STARTFONT 2.3
FONT -FontForge-Bungee Shade-Book-R-Normal--28-280-72-72-P-240-ISO10646-1
SIZE 28 72 72  2
FONTBOUNDINGBOX 72 72 -17 -26
COMMENT "Generated by fontforge, http://fontforge.sourceforge.net"
COMMENT "Copyright 2008 The Bungee Project Authors (david@djr.com)"
STARTPROPERTIES 40
FOUNDRY "FontForge"
FAMILY_NAME "Bungee Shade"
WEIGHT_NAME "Book"
SLANT "R"
SETWIDTH_NAME "Normal"
ADD_STYLE_NAME ""
PIXEL_SIZE 28
POINT_SIZE 280
RESOLUTION_X 72
RESOLUTION_Y 72
SPACING "P"
AVERAGE_WIDTH 240
CHARSET_REGISTRY "ISO10646"
CHARSET_ENCODING "1"
FONTNAME_REGISTRY ""
CHARSET_COLLECTIONS "ISO8859-2 ISO8859-9 ISO8859-4 ISO10646-1"
BITS_PER_PIXEL 2
FONT_NAME "BungeeShade-Regular"
FACE_NAME "Bungee Shade"
COPYRIGHT "Copyright 2008 The Bungee Project Authors (david@djr.com)"
FONT_VERSION "1.000;PS 1.0;hotconv 1.0.72;makeotf.lib2.5.5900"
FONT_ASCENT 24
FONT_DESCENT 4
UNDERLINE_POSITION 0
UNDERLINE_THICKNESS 0
X_HEIGHT 20
CAP_HEIGHT 20
RAW_ASCENT 860
RAW_DESCENT 140
NORM_SPACE 9
RELATIVE_WEIGHT 40
RELATIVE_SETWIDTH 50
SUPERSCRIPT_X 0
SUPERSCRIPT_Y 9
SUPERSCRIPT_SIZE 16
SUBSCRIPT_X 0
SUBSCRIPT_Y 2
SUBSCRIPT_SIZE 16
AVG_LOWERCASE_WIDTH 229
AVG_UPPERCASE_WIDTH 233
ENDPROPERTIES
CHARS 1065
STARTCHAR space
ENCODING 32
SWIDTH 325 0
DWIDTH 9 0
BBX 1 1 0 0
BITMAP
00
ENDCHAR
STARTCHAR exclam
ENCODING 33
SWIDTH 524 0
DWIDTH 15 0
BBX 12 24 1 -3
BITMAP
005555
028001
0B8001
3F8041
7F8041
7F8041
7F8041
7F8041
7F8041
3FC041
3FC041
3FC001
3FC001
3FFFF8
3FEAA5
3F8001
0B8001
2F8041
7F8001
7F8001
7FD555
7FFFF8
7FFFD0
3FFF40
ENDCHAR
STARTCHAR quotedbl
ENCODING 34
SWIDTH 746 0
DWIDTH 21 0
BBX 21 15 0 6
BITMAP
005555155540
028001D00040
1F8002D00040
3F8102D04040
7F8102D04040
7F8102D04040
7F8102D04040
7F8102D04040
7F8002D00000
7F8003D00000
7FC003E00100
3FFFFFFFFD00
3FFFEFFFF000
3FFF5FFF8000
155405550000
ENDCHAR
STARTCHAR numbersign
ENCODING 35
SWIDTH 850 0
DWIDTH 24 0
BBX 24 24 0 -3
BITMAP
000055505550
000240128010
001F402F4010
002A042A4414
009004000401
02D004000401
0BD055555541
2FD004000401
2FD010000401
2FFD10BD10B4
2FFC10FD1090
2FE810A81050
074010001004
0B4010001004
2F4155555504
BF4000001004
BF4040004014
BFF443F442D0
BFF003F00240
BFF003F00100
1BF55BF55400
0FFFEBFFE000
0FFF8FFF8000
0BFD0BFD0000
ENDCHAR
STARTCHAR dollar
ENCODING 36
SWIDTH 750 0
DWIDTH 21 0
BBX 21 30 0 -6
BITMAP
000015550000
000060010000
0002D0010000
000A40405500
001400400100
005000400100
02C015554100
0B8040000100
2F8100000100
3F8102FFF800
7F8102BFD000
7F8100005000
7F8050000100
7FC005540000
7FE000004040
3FF900000040
3FFFEA401040
1FFFFFF01040
07EAAA900040
028000004040
0B8155550040
2F8000400100
7F8000401800
7FEA9001E000
7FFFD0014000
7FFFE0010000
3FFFFFF80000
001FFFE00000
001FFF400000
000555000000
ENDCHAR
STARTCHAR percent
ENCODING 37
SWIDTH 1131 0
DWIDTH 32 0
BBX 32 24 0 -3
BITMAP
0015555015540000
00515510A0040000
0284010BD0040000
0B44004BC1040000
3F44744B81100000
7F44B44B84100000
7F44B44B44100000
BF44B44B04100000
BF44604A04415540
BF84010A10540014
7FC1550D10905504
7FE4017C10D10041
7FFFFFF811C11811
2FFFFEF801C12C11
0BFFE3F442C12C11
005503F043C12C11
000007E047C12C11
00000BE007D10041
00000BD00BD05501
00000FC00FF00004
00001FEAAFFE55A0
00002FFFAFFFFF40
00002FFE0FFFFD00
00002FF402FFE000
ENDCHAR
STARTCHAR ampersand
ENCODING 38
SWIDTH 866 0
DWIDTH 24 0
BBX 25 24 0 -3
BITMAP
00005555540000
00050000040000
00180000040000
00B40555040000
02F01000040000
07F01015540000
0BF010BFD00000
0BF410BF400000
0BF81004000000
0BF91004555500
07D05506800040
07810007814040
1F410007810040
3F4107FF810040
7F410BFF810500
BF41026A010400
BF410000010400
BF805555540400
BFC00000001000
7FE00000005000
7FFE5555564000
2FFFFFFFF80000
0BFFFFFFE00000
01BFFFFE400000
ENDCHAR
STARTCHAR quotesingle
ENCODING 39
SWIDTH 456 0
DWIDTH 13 0
BBX 11 15 1 6
BITMAP
015554
0A0004
2F0004
BF0104
FF0104
FF0104
FF0104
FF0104
FF0004
FF0004
FF4004
FFFFE0
FFFF80
BFFD00
155400
ENDCHAR
STARTCHAR parenleft
ENCODING 40
SWIDTH 529 0
DWIDTH 15 0
BBX 15 29 0 -6
BITMAP
00005550
00050004
00200004
00901404
07C04004
0F810004
2F8102A0
3F810380
7F810200
7F810100
7F810100
7F810100
7F810100
7F810100
7F810100
7F810100
7F810100
7F810100
7F810100
7F810100
7F810150
7F804004
7FC01404
7FE00004
7FF80004
3FFFA550
1FFFFFC0
0BFFFE00
01AFF800
ENDCHAR
STARTCHAR parenright
ENCODING 41
SWIDTH 529 0
DWIDTH 15 0
BBX 15 29 0 -6
BITMAP
00555000
01800100
0B400040
2F414010
7F401410
7F800410
7FFD0400
7FFD0404
7FFE0404
16FE0404
01FE0404
01FE0404
01FE0404
01FE0404
01FE0404
01FE0404
01FE0404
01FE0404
01FD0404
01FD0404
01800400
07401410
1F414010
7F400050
7F400140
7FD56900
7FFFF000
7FFF8000
7FF90000
ENDCHAR
STARTCHAR asterisk
ENCODING 42
SWIDTH 818 0
DWIDTH 23 0
BBX 21 20 1 1
BITMAP
000015550000
0000A0010000
0003F0000000
001BF0440500
0081B4445100
078014440040
1F4000400040
2F0054454040
3F4001900040
7FFE4110AF40
BFFF44107800
FFFD04041000
16B410810400
00A001D00100
02F803E00400
0BFE0BF45000
1FFFEFFE4000
0BFF9FFD0000
01FE0BE00000
002402400000
ENDCHAR
STARTCHAR plus
ENCODING 43
SWIDTH 834 0
DWIDTH 23 0
BBX 21 21 1 -2
BITMAP
000005540000
000060010000
0001E0010000
0007E0410000
000FE0410000
000FE0410000
005A90415540
024000400040
0B4000400040
3F4155555040
BF4000400040
BF4000400040
BFFFE042FF40
BFFFE042F800
BFFFE042E000
155FE0014000
000FE0010000
000FF5550000
000FFFF40000
000FFFC00000
000FFE000000
ENDCHAR
STARTCHAR comma
ENCODING 44
SWIDTH 484 0
DWIDTH 14 0
BBX 12 15 1 -6
BITMAP
005555
060001
1E0001
7E0551
FE0011
FE0011
FF0011
FFFE11
FF5441
FF0500
2F4014
BFEA90
BFFF40
BFF800
6A9000
ENDCHAR
STARTCHAR hyphen
ENCODING 45
SWIDTH 520 0
DWIDTH 15 0
BBX 14 10 0 4
BITMAP
00555550
02400010
0B400000
2F415400
7F400000
BF400000
BF955550
BFFFFF80
BFFFFE00
7FFFF400
ENDCHAR
STARTCHAR period
ENCODING 46
SWIDTH 484 0
DWIDTH 14 0
BBX 12 12 1 -3
BITMAP
005555
060001
1E0001
7E0101
FE0101
FE0101
FE0001
FE0001
FF5555
FFFFF4
FFFFD0
BFFE00
ENDCHAR
STARTCHAR slash
ENCODING 47
SWIDTH 487 0
DWIDTH 14 0
BBX 14 29 0 -5
BITMAP
00015550
00090010
002D0010
00FC0410
02FC1010
02F81000
03F81040
03F41040
03F41040
07F41040
07F01040
0BF04040
0BE04100
0FE04100
0FD04100
0FD04100
1FC04100
1FC04100
2FC10100
2F810400
3F810400
3F410400
7F410400
7F000400
7F000400
BF555000
BFFF8000
FFFE0000
BFF80000
ENDCHAR
STARTCHAR zero
ENCODING 48
SWIDTH 827 0
DWIDTH 23 0
BBX 22 24 1 -3
BITMAP
000155555000
001400000500
008015550040
024140004040
1F0100001040
3F0107F41010
BF000BF81010
FF000BF81010
FF000BF81010
FF000BF81010
FF000BF81010
FF000BF81010
FF000BF81010
FF000BF81010
FF0107F41010
FF0100401010
FF0140004040
FF4015550040
FFC000000140
BFF400000500
7FFFA556B400
2FFFFFFF8000
0BFFFFFE0000
006FFF900000
ENDCHAR
STARTCHAR one
ENCODING 49
SWIDTH 701 0
DWIDTH 20 0
BBX 20 24 0 -3
BITMAP
0015555500
01C0000100
07C0000100
1FC0550100
2FC0000100
2FD0000100
2FFA800100
2FFF800100
2FFF800100
1ABF800100
007F800100
007F800100
007F800100
007F800100
007F800100
006A400154
0180000001
0B80000001
2F81555501
7F80000001
7FD5555554
7FFFFFFFF0
7FFFFFFF80
3FFFFFFD00
ENDCHAR
STARTCHAR two
ENCODING 50
SWIDTH 739 0
DWIDTH 21 0
BBX 20 24 0 -3
BITMAP
0015555550
0090000004
07D0000001
1FD0555501
1FD0000041
1FE5554041
1FFFFFD041
1FFFFE4041
1FFF900041
0004000501
0050015001
01C0500014
0781000190
1F41006F40
3F4103FC00
7F4106A555
7F41000001
BF41555541
BF40000001
BF40000001
BF95555555
BFFFFFFFF8
BFFFFFFFD0
7FFFFFFF40
ENDCHAR
STARTCHAR three
ENCODING 51
SWIDTH 737 0
DWIDTH 21 0
BBX 20 24 0 -3
BITMAP
0055555540
0280000010
0B80000010
3F81555004
7F80000404
7F80000404
7FFFFE0404
7FFFFE0410
7FFC000410
057C000414
01FC155501
03FC000041
03FC000041
03FFFFE040
03FFFFE040
03D5554040
0280000040
0B81555501
3F80000001
7F80000004
7FD55555A0
7FFFFFFF40
7FFFFFFD00
3FFFFFE000
ENDCHAR
STARTCHAR four
ENCODING 52
SWIDTH 809 0
DWIDTH 23 0
BBX 21 24 1 -3
BITMAP
015554155540
070004600040
2F0005E00040
BF010BE00040
FF010BE00040
FF010BE00040
FF010BE00040
FF010BE00040
FF010BE00040
FF010BE00040
FF0101500040
FF0100000040
FF0100000040
FF4055554040
FFC000000040
BFF400000040
7FFFFFE00040
2FFFFFE00040
0BFFFFE00040
00555FE00040
00000FF55500
00000FFFFD00
00000FFFE000
00000BFF8000
ENDCHAR
STARTCHAR five
ENCODING 53
SWIDTH 747 0
DWIDTH 21 0
BBX 20 24 1 -3
BITMAP
0155555550
0700000004
1F00000004
BF01555504
FF01000004
FF01000004
FF010BFFD0
FF010BFF40
FF01000050
FF01000004
FF01555400
FF00000101
FF40000101
FFFFFF8101
FFFFFF8101
BF55554101
0A00000101
2E05555401
FE00000004
FE00000010
FF55555680
FFFFFFFE00
FFFFFFF400
BFFFFF9000
ENDCHAR
STARTCHAR six
ENCODING 54
SWIDTH 793 0
DWIDTH 22 0
BBX 21 24 1 -3
BITMAP
000555555400
001000000400
008015550400
074100000400
1F0100000400
7F0107FFE000
BF010BFF8000
FF0105005400
FF0100000100
FF0115550100
FF0140004040
FF0100000040
FF010BE01040
FF010BF01040
FF010BF01040
FF0106901040
FF0100004040
FF4140004000
FF8015540100
BFF400001400
7FFFA556D000
2FFFFFFF4000
0BFFFFF80000
00AFFE900000
ENDCHAR
STARTCHAR seven
ENCODING 55
SWIDTH 727 0
DWIDTH 20 0
BBX 20 24 0 -3
BITMAP
0055555555
0340000001
1F40000001
7F41555541
BF40000041
BF40000041
BFFFFFC041
BFFFFFC041
BFFFFF8041
1555640041
0001000101
0008005404
0028050004
00F4100050
02F4101B40
07F4103D00
07F4102000
0BF4100000
0BF4000000
0BF4000000
0BF9554000
0BFFFE0000
0BFFF80000
07FFD00000
ENDCHAR
STARTCHAR eight
ENCODING 56
SWIDTH 811 0
DWIDTH 23 0
BBX 22 24 0 -3
BITMAP
000055555000
000500000100
002405550040
00B010005040
03F040501040
0BF042FC1040
0FF042FC1040
0FF441F81040
0FFC10001200
0FE019564040
0BC050001010
078100000410
1F8102FD0410
3F8107FE0410
7F8107FE0410
7F8101A40410
7F8100000410
7FC050001010
7FD005554010
7FF800000140
3FFFA555AD00
1FFFFFFFE000
07FFFFFF8000
006BFFE40000
ENDCHAR
STARTCHAR nine
ENCODING 57
SWIDTH 793 0
DWIDTH 22 0
BBX 22 24 0 -3
BITMAP
000155555000
000400000500
005015550040
01C040005040
0B8100001000
2F8102F41010
3F8103F81010
7F8103F81010
7F8102A41010
7F8100001010
7FC040005010
7FE015551010
7FF900001010
3FFFFFF81010
1FFFFFF41010
06F800001010
007800001040
01F815550040
03F800000040
07F800000500
07FD5555A400
07FFFFFFD000
07FFFFFE0000
03FFFFE40000
ENDCHAR
STARTCHAR colon
ENCODING 58
SWIDTH 484 0
DWIDTH 14 0
BBX 12 22 1 -3
BITMAP
005555
060001
1E0001
BE0101
FE0101
FE0101
FE0001
FE0001
FFAAA9
FFFFF0
FFAA95
AE0001
1E0001
7E0101
FE0101
FE0101
FE0001
FE0001
FF5555
FFFFF4
FFFFD0
BFFE00
ENDCHAR
STARTCHAR semicolon
ENCODING 59
SWIDTH 484 0
DWIDTH 14 0
BBX 12 25 1 -6
BITMAP
005555
060001
1E0001
BE0101
FE0101
FE0101
FE0001
FE0001
FFAAA9
FFFFF0
FFAA95
6E0001
1E0001
BE0551
FE0011
FE0011
FF0011
FFFE11
FF5441
FF0500
2F4014
BFEA90
BFFF40
BFF800
6A9000
ENDCHAR
STARTCHAR less
ENCODING 60
SWIDTH 814 0
DWIDTH 23 0
BBX 20 21 1 -2
BITMAP
0000000015
0000001541
0000054001
0001500041
0014001501
0080154001
0281400019
1F41001BF0
3F4106FF80
7F4106F900
7F41001540
7F80400015
7FC0054001
7FF4001501
7FFF900001
3FFFFE4001
0BFFFFFE41
01BFFFFFF9
0006BFFFF4
000006FFD0
0000001A00
ENDCHAR
STARTCHAR equal
ENCODING 61
SWIDTH 834 0
DWIDTH 23 0
BBX 21 18 1 0
BITMAP
005555555540
024000000040
0B4000000040
2F4155555040
BF4000000040
BF4000000040
BFEAAAAAAA40
BFFFFFFFFD00
BFFFFFFFF400
6AAAAAAA9540
024000000040
0F4000000040
7F4155555040
BF4000000040
BF9555555540
BFFFFFFFFE00
BFFFFFFFF800
7FFFFFFFD000
ENDCHAR
STARTCHAR greater
ENCODING 62
SWIDTH 814 0
DWIDTH 23 0
BBX 20 21 2 -2
BITMAP
02A5000000
0A01A40000
2E00059400
FE05000640
FE00540024
FE00015404
FFA4000104
FFFF940041
FFFFFF8041
6BFFFE8041
006F900101
0154001504
0600054004
2E01500010
BE00000640
FE0006FD00
FE01BFE000
FFBFFE4000
FFFE400000
FF90000000
5000000000
ENDCHAR
STARTCHAR question
ENCODING 63
SWIDTH 756 0
DWIDTH 21 0
BBX 21 24 0 -3
BITMAP
005555555000
024000000500
0F4000000100
3F4155550040
7F4000004040
7F8000004040
7FFFFFE01040
7FFFFF901040
7FFD50001040
156800004040
00BC05550000
02FC00000000
03FD00001400
03FD016AD000
03FFAABF4000
02F800180000
01F800000000
01F804000000
03F800000000
07F800000000
07FD55500000
07FFFF800000
03FFFE000000
03FFF4000000
ENDCHAR
STARTCHAR at
ENCODING 64
SWIDTH 967 0
DWIDTH 27 0
BBX 25 29 1 -5
BITMAP
00001555540000
00015555555000
00154000015500
00841AFFE90500
0251FFFFFF8440
0F13FFFFFFE140
3F165AAAAAF140
7F14100000B140
BF14805550B140
FF17450000B140
FF17443E00B140
FF17443E00B140
FF17443E00B140
FF17443E00B140
FF17443E00B140
FF17443E00B140
FF174405009140
FF178400000440
FF17C155555100
FF17E400001400
FF12FFEAAFE000
FF50BFFFFF4000
FF8405AAAA4000
BFE14000004000
7FFD0555544000
2FFFE955554000
0BFFFFFFFE0000
01FFFFFFF40000
001AFFFFD00000
ENDCHAR
STARTCHAR A
ENCODING 65
SWIDTH 830 0
DWIDTH 23 0
BBX 22 24 1 -3
BITMAP
000155555000
000800001000
002800000400
00B405540400
02F010010000
03E000010100
07D041D04100
0BC043E04040
0F8107F01040
1F4107F01040
3F010AA41010
7E0400001010
BE0400000410
FE0555555410
FE0400000410
FE0405540410
FE040FF80410
FE040FF80410
FE000FF80010
FE0007F80010
FF5553FD5540
FFFF83FFFF40
FFFE03FFF800
FFF402FFE000
ENDCHAR
STARTCHAR B
ENCODING 66
SWIDTH 825 0
DWIDTH 23 0
BBX 22 24 1 -3
BITMAP
005555555000
070000000400
1F0000000100
7F0155540100
BF0100010100
BF010BE04100
BF010BF04100
BF010BE04100
BF0100004400
BF0100010500
BF0155554040
BF0100001010
BF0105540410
BF010BFC0410
BF010BFC0410
BF010BFC0410
BF0100001010
BF0155554010
BF0000000040
BF0000000040
BF9555555900
BFFFFFFFF400
BFFFFFFF8000
7FFFFFF90000
ENDCHAR
STARTCHAR C
ENCODING 67
SWIDTH 728 0
DWIDTH 20 0
BBX 19 24 1 -3
BITMAP
0005555554
0010000004
0080000004
0740555504
1F01000004
3F01000004
BF0007FFE0
FF000BFF80
FF000BFD00
FF00055400
FF00040000
FF00040000
FF00040000
FF00040000
FF01040000
FF01015554
FF01000004
FF40555504
FF80000004
BFE0000004
7FFE955554
2FFFFFFFE0
0BFFFFFF40
01BFFFFD00
ENDCHAR
STARTCHAR D
ENCODING 68
SWIDTH 846 0
DWIDTH 24 0
BBX 22 24 1 -3
BITMAP
005555555400
070000000100
1F0000000040
7F0155554010
BF0100001010
BF0100000410
BF0106A80410
BF0107FC0410
BF0107FC0410
BF0107FC0410
BF0106FC0410
BF0106FC0410
BF0106FC0410
BF0106FC0410
BF0106FC0410
BF0106A40410
BF0100001010
BF0155554010
BF0000000040
BF0000000100
BF9555556800
BFFFFFFFE000
BFFFFFFF4000
7FFFFFE40000
ENDCHAR
STARTCHAR E
ENCODING 69
SWIDTH 754 0
DWIDTH 21 0
BBX 20 24 1 -3
BITMAP
0055555555
0700000001
1F00000001
7F01555541
BF01000001
BF01015555
BF010BFFF4
BF010BFFD0
BF01000040
BF01000010
BF01555010
BF01000010
BF01000040
BF010BFF40
BF010BFD00
BF0106A554
BF01000001
BF01555541
BF00000001
BF00000001
BF95555555
BFFFFFFFF4
BFFFFFFF80
7FFFFFFE00
ENDCHAR
STARTCHAR F
ENCODING 70
SWIDTH 718 0
DWIDTH 20 0
BBX 19 24 1 -3
BITMAP
0055555554
0700000004
1F00000004
7F01555504
BF01000004
BF01000004
BF0107FFE0
BF0107FF80
BF0107FE00
BF01000040
BF01000040
BF01555040
BF01000040
BF01000040
BF0107FE00
BF0107F800
BF0107D000
BF01050000
BF00040000
BF00040000
BF95540000
BFFFD00000
BFFF400000
7FF8000000
ENDCHAR
STARTCHAR G
ENCODING 71
SWIDTH 808 0
DWIDTH 23 0
BBX 21 24 1 -3
BITMAP
000555555400
001000000400
008000000400
074055550400
1F0100000400
3F0100000400
BF0107FFE000
FF010BFF8000
FF010BFE0000
FF0105595540
FF0104240040
FF0104B40040
FF0107F41040
FF010BF41040
FF0107F41040
FF0100001040
FF0140001040
FF4015555040
FF8000000040
BFE000000040
7FFE95555540
2FFFFFFFFD00
0BFFFFFFF400
01BFFFFFD000
ENDCHAR
STARTCHAR H
ENCODING 72
SWIDTH 859 0
DWIDTH 24 0
BBX 22 24 1 -3
BITMAP
005554015550
0700041D0010
1F00047D0010
7F0105FD0410
BF0106FD0410
BF0106FD0410
BF0106FD0410
BF0106A80410
BF0100000410
BF0100000410
BF0155555410
BF0100000410
BF0100000410
BF0105540410
BF0107FD0410
BF0107FD0410
BF0107FD0410
BF0106FD0410
BF0006FD0010
BF0006FD0010
BF9556FE5550
BFFFE2FFFF40
BFFF42FFFD00
7FF901FFF400
ENDCHAR
STARTCHAR I
ENCODING 73
SWIDTH 705 0
DWIDTH 20 0
BBX 19 24 0 -3
BITMAP
0055555554
0280000004
0B80000004
2F81555504
3F80010004
7F80010004
7FFA4102A0
7FFF410380
3FFF410200
1ABF410100
007F410100
007F410100
007F410100
007F410100
007F410100
006A410154
0180010004
0B81555504
2F80000004
3F80000004
7FD5555554
7FFFFFFFE0
7FFFFFFF40
3FFFFFFD00
ENDCHAR
STARTCHAR J
ENCODING 74
SWIDTH 788 0
DWIDTH 22 0
BBX 21 24 0 -3
BITMAP
000000055540
000000740040
000001F40040
000007F41040
00000BF41040
00000BF41040
00000BF41040
00000BF41040
00000BF41040
00555BF41040
02400BF41040
0B400BF41040
3F410BF41040
BF410BF41040
BF4106E01040
BF4100001040
BF8040004040
BF8015550040
7FD000000100
7FF800000400
3FFFA556A000
1FFFFFFF8000
07FFFFFD0000
006BFF900000
ENDCHAR
STARTCHAR K
ENCODING 75
SWIDTH 846 0
DWIDTH 24 0
BBX 22 24 1 -3
BITMAP
005554055540
070004240040
1F0004B00040
7F0106E04000
BF0107C04100
BF0107810100
BF0107410400
BF0106040400
BF0100040140
BF0100040040
BF0155554010
BF0100001010
BF0100000410
BF0106A80410
BF0107FC0410
BF0107FC0410
BF0107FC0410
BF0106FC0410
BF0006FC0010
BF0006FC0010
BF9556FE5550
BFFFD2FFFF40
BFFF42FFFD00
7FF802FFE000
ENDCHAR
STARTCHAR L
ENCODING 76
SWIDTH 795 0
DWIDTH 22 0
BBX 21 24 1 -3
BITMAP
005554000000
070004000000
1F0004000000
7F0104000000
BF0104000000
BF0104000000
BF0104000000
BF0104000000
BF0104000000
BF0104055540
BF0104240040
BF0104B40040
BF0107F41040
BF0107F41040
BF0107F41040
BF0100001040
BF0100001040
BF0155555040
BF0000000040
BF0000000040
BF9555555540
BFFFFFFFFD00
BFFFFFFFF400
7FFFFFFF8000
ENDCHAR
STARTCHAR M
ENCODING 77
SWIDTH 949 0
DWIDTH 27 0
BBX 25 24 1 -3
BITMAP
00555400155500
07000100800040
1F000102800040
7F01404B014040
BF01102D044040
BF01042C104040
BF010100504040
BF010100404040
BF010041004040
BF010014004040
BF010800204040
BF010900604040
BF010B00E04040
BF010BEBE04040
BF010BFFE04040
BF010BEFE04040
BF010A4FE04040
BF01040FE04040
BF00040FE00040
BF00040FE00040
BF95540FF55500
BFFFD00FFFF800
BFFF000FFFE000
7FF8000FFF8000
ENDCHAR
STARTCHAR N
ENCODING 78
SWIDTH 853 0
DWIDTH 24 0
BBX 22 24 1 -3
BITMAP
005550015550
0700041C0010
1F00017C0010
7F0101FC0410
BF01407C0410
BF01102C0410
BF0104080410
BF0101000410
BF0100400410
BF0100100410
BF0100040410
BF0109050410
BF010B010410
BF010B804410
BF010BE01410
BF010BF80410
BF010BFC0410
BF010BFC0410
BF000BFC0010
BF0006FC0010
BF9556FE5550
BFFFD2FFFF40
BFFF42FFFD00
7FF801FFE000
ENDCHAR
STARTCHAR O
ENCODING 79
SWIDTH 837 0
DWIDTH 23 0
BBX 22 24 1 -3
BITMAP
000155555000
001400000500
004015550040
024040004040
1F0100001010
3F0107F40010
BF000BFC0410
FF000BFC0410
FF000BFC0410
FF0007FC0410
FF0007FC0410
FF0007FC0410
FF0007FC0410
FF0007FC0410
FF0107F80010
FF0100401010
FF0040004010
FF4015550040
FFC000000040
BFF400000500
7FFFA556B400
2FFFFFFFD000
0BFFFFFE0000
006FFFA40000
ENDCHAR
STARTCHAR P
ENCODING 80
SWIDTH 782 0
DWIDTH 22 0
BBX 21 24 1 -3
BITMAP
005555555000
070000000400
1F0000000100
7F0155550040
BF0100004040
BF0101401040
BF010BF01040
BF010BF41040
BF010BF41040
BF010BF01040
BF0100001040
BF0100004040
BF0155550100
BF0100000500
BF0100006400
BF0107FFC000
BF0107FE0000
BF0107F40000
BF0005000000
BF0004000000
BF9554000000
BFFFD0000000
BFFF40000000
7FF800000000
ENDCHAR
STARTCHAR Q
ENCODING 81
SWIDTH 837 0
DWIDTH 23 0
BBX 22 27 1 -6
BITMAP
000155555000
001400000500
004000000040
024015550040
0F0040004010
3F0101501010
BF010BF80010
FF000BFC0410
FF000BFC0410
FF000BFC0410
FF0007FC0410
FF0007FC0410
FF0007FC0410
FF0007FC0410
FF0007FC0410
FF0107F40010
FF0100001010
FF4040005010
FF8015550040
FFE000400100
BFFD40405800
7FFFD001E000
1FFFD0018000
06FFE5550000
006FFFF80000
002FFFD00000
001FFF400000
ENDCHAR
STARTCHAR R
ENCODING 82
SWIDTH 843 0
DWIDTH 24 0
BBX 22 24 1 -3
BITMAP
005555555000
070000000400
1F0000000100
7F0155540100
BF0100010040
BF0106904040
BF010BE04040
BF010BE04000
BF010BE04100
BF0100004100
BF0100004040
BF0155554010
BF0100001010
BF0100000410
BF010BFD0410
BF010BFD0410
BF010BFD0410
BF0106FD0410
BF0005FD0010
BF0005FD0010
BF9555FE5550
BFFFD1FFFF80
BFFF41FFFE00
7FF801FFF400
ENDCHAR
STARTCHAR S
ENCODING 83
SWIDTH 750 0
DWIDTH 21 0
BBX 21 24 0 -3
BITMAP
000155555500
001400000100
005000000100
02C015554100
0B8040000100
1F8100000100
3F8102FFF800
7F8102BFD000
7F8100015000
7F8050000100
7FC005540100
7FE000004040
3FF900000040
3FFFE9401040
1FFFFFF01040
07EAAA900040
028000004040
0B8155550040
2F8000000100
7F8000000400
7FD55555A000
7FFFFFFF8000
7FFFFFFE0000
3FFFFFE40000
ENDCHAR
STARTCHAR T
ENCODING 84
SWIDTH 756 0
DWIDTH 21 0
BBX 21 24 0 -3
BITMAP
015555555540
070000000040
1F0000000040
7F0155555040
FF0000400040
FF4000400040
FFFFC041FF00
FFFFC041F800
BFFFC041E000
157FC0414000
002FC0410000
002FC0410000
002FC0410000
002FC0410000
002FC0410000
002FC0410000
002FC0410000
002FC0410000
002FC0010000
002FC0010000
002FE5550000
002FFFF80000
002FFFD00000
001FFF400000
ENDCHAR
STARTCHAR U
ENCODING 85
SWIDTH 846 0
DWIDTH 24 0
BBX 22 24 1 -3
BITMAP
015554055550
0700041C0010
2F0004BC0010
BF0106FC0410
FF0107FC0410
FF0107FC0410
FF0107FC0410
FF0107FC0410
FF0107FC0410
FF0107FC0410
FF0107FC0410
FF0107FC0410
FF0107FC0410
FF0107FC0410
FF0102A40410
FF0100001010
FF4040005010
FF4015550040
BFD000000040
BFF400000500
3FFFA556B400
1FFFFFFFD000
07FFFFFE0000
006BFFA40000
ENDCHAR
STARTCHAR V
ENCODING 86
SWIDTH 830 0
DWIDTH 23 0
BBX 22 24 1 -3
BITMAP
015554055550
0A0004280010
2E0004B80010
BE0107F81010
FE0107F81010
FE0107F81010
FE0107F81010
FE0107F81010
FE0107F81010
FE0107F81010
FF0107F41010
FF0103F01040
FF8102E04040
FFC041D04040
BFD040404100
7FE010010100
3FF010010400
2FF405540400
1FFC00000400
0BFD00001000
07FF55555000
03FFFFFF4000
02FFFFF80000
00FFFFE00000
ENDCHAR
STARTCHAR W
ENCODING 87
SWIDTH 931 0
DWIDTH 26 0
BBX 24 24 1 -3
BITMAP
015554001555
07000400A001
2F000402E001
BF01040BE041
FF01041FE041
FF01041FE041
FF01041FE041
FF01045BE041
FF010600E041
FF010900A041
FF0108002041
FF0104141041
FF0100410041
FF0101004041
FF0101104041
FF4104381041
FF81043C1101
FFC0507C0504
BFD000BD0004
7FE000FE0004
3FF956FF9550
2FFFFAFFFF80
0FFFE1FFFD00
0BFF40BFF400
ENDCHAR
STARTCHAR X
ENCODING 88
SWIDTH 837 0
DWIDTH 23 0
BBX 22 24 1 -3
BITMAP
015554055550
0700041C0010
2F00047C0010
BF0106FC0410
FF0107F81010
FF0103F01010
FF4041D01040
FFC040004040
BFE010010100
7FF804000400
2FFC05540400
0FF404000400
07E010010100
03C040404040
0B4102E01040
1F0107F41010
3F010BFC0010
BF010BFC0410
FF000BFC0010
FF0007FC0010
FF5557FD5550
FFFFD3FFFF40
FFFE03FFF800
BFF802FFE000
ENDCHAR
STARTCHAR Y
ENCODING 89
SWIDTH 805 0
DWIDTH 23 0
BBX 22 24 0 -3
BITMAP
005554015550
0240040A0010
0F40042E0010
3F4105FE0410
7F4105FE0410
7F4105FE0410
7F4101FD0410
7F8102FD0410
7F8041F80410
7FC040A01010
7FE010004040
7FF404000140
3FFC04010100
1FFE01540400
0BFF80101000
02FFD0101000
00FFE0104000
007FE0104000
002FE0004000
000FF0004000
000FF5554000
000FFFFD0000
000FFFF40000
000BFF800000
ENDCHAR
STARTCHAR Z
ENCODING 90
SWIDTH 760 0
DWIDTH 21 0
BBX 21 24 0 -3
BITMAP
005555555500
01C000000040
07C000000040
1FC055554040
3FC000004040
3FD000004040
3FFFFE010100
3FFFF8040100
2FFFF0100400
0556D0101000
000740405000
000D01004000
002804010000
00A010040000
01C040100000
078040155540
1F8100000040
3F8055555040
7F8000000040
7F8000000040
7F9555555540
7FFFFFFFFD00
7FFFFFFFF400
7FFFFFFF8000
ENDCHAR
STARTCHAR bracketleft
ENCODING 91
SWIDTH 529 0
DWIDTH 15 0
BBX 15 29 0 -6
BITMAP
00555550
01800004
0B800004
2F815404
7F810004
7F810004
7F8102A0
7F810380
7F810200
7F810100
7F810100
7F810100
7F810100
7F810100
7F810100
7F810100
7F810100
7F810100
7F810100
7F810100
7F810150
7F810004
7F815404
7F800004
7F800004
7FD55550
7FFFFFC0
7FFFFE00
3FFFF800
ENDCHAR
STARTCHAR backslash
ENCODING 92
SWIDTH 487 0
DWIDTH 14 0
BBX 14 29 0 -5
BITMAP
00555000
02000400
1F000400
7F410400
FF410400
BF810400
BF810400
BF810000
7FC00100
7FC04100
3FD04100
3FD04100
2FE04100
2FE04100
2FE04040
1FF01040
1FF01040
0FF41040
0FF41040
0BF81040
0BF81040
07FC1010
07FC0410
07FC0010
03FD0010
03FE5550
02FFFF40
02FFFD00
01FFE000
ENDCHAR
STARTCHAR bracketright
ENCODING 93
SWIDTH 529 0
DWIDTH 15 0
BBX 15 29 0 -6
BITMAP
00555550
01800000
0B400004
2F415404
7F400404
7F800404
7FFD0404
7FFE0404
7FFE0404
16FE0404
01FE0404
01FE0404
01FE0404
01FE0404
01FE0404
01FE0404
01FE0404
01FE0404
01FE0404
01FE0404
01800404
07400404
1F415404
7F400004
7F400000
7FD55550
7FFFFF80
7FFFFE00
7FFFF400
ENDCHAR
STARTCHAR asciicircum
ENCODING 94
SWIDTH 814 0
DWIDTH 23 0
BBX 22 19 0 2
BITMAP
000015554000
000040001000
000701541000
001E04010400
007D10010400
00FC10010400
01F810904100
02F410E04100
03F041F04100
07F042F41100
07E042F41040
0BD043F81040
0FC107FC1040
1F800BFD0000
2F400BFD0010
3F9553FF5550
3FFFC2FFFF40
7FFE01FFFD00
7FF800FFE000
ENDCHAR
STARTCHAR underscore
ENCODING 95
SWIDTH 834 0
DWIDTH 23 0
BBX 21 10 1 -6
BITMAP
005555555540
024000000040
0B4000000040
3F4155555040
BF4000000040
BF4000000040
BF9555555540
BFFFFFFFFE00
BFFFFFFFF800
7FFFFFFFD000
ENDCHAR
STARTCHAR grave
ENCODING 96
SWIDTH 600 0
DWIDTH 17 0
BBX 17 10 0 17
BITMAP
0145555000
0740000500
1F41500040
7F40054040
BF90000040
BFFFEA5140
BFFFFFFD00
7FFFFFF400
016AFFC000
0000010000
ENDCHAR
STARTCHAR a
ENCODING 97
SWIDTH 830 0
DWIDTH 23 0
BBX 22 24 1 -3
BITMAP
000155555000
000800001000
002800000400
00B405540400
02F010010000
03E000010100
07D041D04100
0BC043E04040
0F8107F01040
1F4107F01040
3F010AA41010
7E0400001010
BE0400000410
FE0555555410
FE0400000410
FE0405540410
FE040FF80410
FE040FF80410
FE000FF80010
FE0007F80010
FF5553FD5540
FFFF83FFFF40
FFFE03FFF800
FFF402FFE000
ENDCHAR
STARTCHAR b
ENCODING 98
SWIDTH 825 0
DWIDTH 23 0
BBX 22 24 1 -3
BITMAP
005555555000
070000000400
1F0000000100
7F0155540100
BF0100010100
BF010BE04100
BF010BF04100
BF010BE04100
BF0100004400
BF0100010500
BF0155554040
BF0100001010
BF0105540410
BF010BFC0410
BF010BFC0410
BF010BFC0410
BF0100001010
BF0155554010
BF0000000040
BF0000000040
BF9555555900
BFFFFFFFF400
BFFFFFFF8000
7FFFFFF90000
ENDCHAR
STARTCHAR c
ENCODING 99
SWIDTH 728 0
DWIDTH 20 0
BBX 19 24 1 -3
BITMAP
0005555554
0010000004
0080000004
0740555504
1F01000004
3F01000004
BF0007FFE0
FF000BFF80
FF000BFD00
FF00055400
FF00040000
FF00040000
FF00040000
FF00040000
FF01040000
FF01015554
FF01000004
FF40555504
FF80000004
BFE0000004
7FFE955554
2FFFFFFFE0
0BFFFFFF40
01BFFFFD00
ENDCHAR
STARTCHAR d
ENCODING 100
SWIDTH 846 0
DWIDTH 24 0
BBX 22 24 1 -3
BITMAP
005555555400
070000000100
1F0000000040
7F0155554010
BF0100001010
BF0100000410
BF0106A80410
BF0107FC0410
BF0107FC0410
BF0107FC0410
BF0106FC0410
BF0106FC0410
BF0106FC0410
BF0106FC0410
BF0106FC0410
BF0106A40410
BF0100001010
BF0155554010
BF0000000040
BF0000000100
BF9555556800
BFFFFFFFE000
BFFFFFFF4000
7FFFFFE40000
ENDCHAR
STARTCHAR e
ENCODING 101
SWIDTH 754 0
DWIDTH 21 0
BBX 20 24 1 -3
BITMAP
0055555555
0700000001
1F00000001
7F01555541
BF01000001
BF01015555
BF010BFFF4
BF010BFFD0
BF01000040
BF01000010
BF01555010
BF01000010
BF01000040
BF010BFF40
BF010BFD00
BF0106A554
BF01000001
BF01555541
BF00000001
BF00000001
BF95555555
BFFFFFFFF4
BFFFFFFF80
7FFFFFFE00
ENDCHAR
STARTCHAR f
ENCODING 102
SWIDTH 718 0
DWIDTH 20 0
BBX 19 24 1 -3
BITMAP
0055555554
0700000004
1F00000004
7F01555504
BF01000004
BF01000004
BF0107FFE0
BF0107FF80
BF0107FE00
BF01000040
BF01000040
BF01555040
BF01000040
BF01000040
BF0107FE00
BF0107F800
BF0107D000
BF01050000
BF00040000
BF00040000
BF95540000
BFFFD00000
BFFF400000
7FF8000000
ENDCHAR
STARTCHAR g
ENCODING 103
SWIDTH 808 0
DWIDTH 23 0
BBX 21 24 1 -3
BITMAP
000555555400
001000000400
008000000400
074055550400
1F0100000400
3F0100000400
BF0107FFE000
FF010BFF8000
FF010BFE0000
FF0105595540
FF0104240040
FF0104B40040
FF0107F41040
FF010BF41040
FF0107F41040
FF0100001040
FF0140001040
FF4015555040
FF8000000040
BFE000000040
7FFE95555540
2FFFFFFFFD00
0BFFFFFFF400
01BFFFFFD000
ENDCHAR
STARTCHAR h
ENCODING 104
SWIDTH 859 0
DWIDTH 24 0
BBX 22 24 1 -3
BITMAP
005554015550
0700041D0010
1F00047D0010
7F0105FD0410
BF0106FD0410
BF0106FD0410
BF0106FD0410
BF0106A80410
BF0100000410
BF0100000410
BF0155555410
BF0100000410
BF0100000410
BF0105540410
BF0107FD0410
BF0107FD0410
BF0107FD0410
BF0106FD0410
BF0006FD0010
BF0006FD0010
BF9556FE5550
BFFFE2FFFF40
BFFF42FFFD00
7FF901FFF400
ENDCHAR
STARTCHAR i
ENCODING 105
SWIDTH 705 0
DWIDTH 20 0
BBX 19 24 0 -3
BITMAP
0055555554
0280000004
0B80000004
2F81555504
3F80010004
7F80010004
7FFA4102A0
7FFF410380
3FFF410200
1ABF410100
007F410100
007F410100
007F410100
007F410100
007F410100
006A410154
0180010004
0B81555504
2F80000004
3F80000004
7FD5555554
7FFFFFFFE0
7FFFFFFF40
3FFFFFFD00
ENDCHAR
STARTCHAR j
ENCODING 106
SWIDTH 788 0
DWIDTH 22 0
BBX 21 24 0 -3
BITMAP
000000055540
000000740040
000001F40040
000007F41040
00000BF41040
00000BF41040
00000BF41040
00000BF41040
00000BF41040
00555BF41040
02400BF41040
0B400BF41040
3F410BF41040
BF410BF41040
BF4106E01040
BF4100001040
BF8040004040
BF8015550040
7FD000000100
7FF800000400
3FFFA556A000
1FFFFFFF8000
07FFFFFD0000
006BFF900000
ENDCHAR
STARTCHAR k
ENCODING 107
SWIDTH 846 0
DWIDTH 24 0
BBX 22 24 1 -3
BITMAP
005554055540
070004240040
1F0004B00040
7F0106E04000
BF0107C04100
BF0107810100
BF0107410400
BF0106040400
BF0100040140
BF0100040040
BF0155554010
BF0100001010
BF0100000410
BF0106A80410
BF0107FC0410
BF0107FC0410
BF0107FC0410
BF0106FC0410
BF0006FC0010
BF0006FC0010
BF9556FE5550
BFFFD2FFFF40
BFFF42FFFD00
7FF802FFE000
ENDCHAR
STARTCHAR l
ENCODING 108
SWIDTH 795 0
DWIDTH 22 0
BBX 21 24 1 -3
BITMAP
005554000000
070004000000
1F0004000000
7F0104000000
BF0104000000
BF0104000000
BF0104000000
BF0104000000
BF0104000000
BF0104055540
BF0104240040
BF0104B40040
BF0107F41040
BF0107F41040
BF0107F41040
BF0100001040
BF0100001040
BF0155555040
BF0000000040
BF0000000040
BF9555555540
BFFFFFFFFD00
BFFFFFFFF400
7FFFFFFF8000
ENDCHAR
STARTCHAR m
ENCODING 109
SWIDTH 949 0
DWIDTH 27 0
BBX 25 24 1 -3
BITMAP
00555400155500
07000100800040
1F000102800040
7F01404B014040
BF01102D044040
BF01042C104040
BF010100504040
BF010100404040
BF010041004040
BF010014004040
BF010800204040
BF010900604040
BF010B00E04040
BF010BEBE04040
BF010BFFE04040
BF010BEFE04040
BF010A4FE04040
BF01040FE04040
BF00040FE00040
BF00040FE00040
BF95540FF55500
BFFFD00FFFF800
BFFF000FFFE000
7FF8000FFF8000
ENDCHAR
STARTCHAR n
ENCODING 110
SWIDTH 853 0
DWIDTH 24 0
BBX 22 24 1 -3
BITMAP
005550015550
0700041C0010
1F00017C0010
7F0101FC0410
BF01407C0410
BF01102C0410
BF0104080410
BF0101000410
BF0100400410
BF0100100410
BF0100040410
BF0109050410
BF010B010410
BF010B804410
BF010BE01410
BF010BF80410
BF010BFC0410
BF010BFC0410
BF000BFC0010
BF0006FC0010
BF9556FE5550
BFFFD2FFFF40
BFFF42FFFD00
7FF801FFE000
ENDCHAR
STARTCHAR o
ENCODING 111
SWIDTH 837 0
DWIDTH 23 0
BBX 22 24 1 -3
BITMAP
000155555000
001400000500
004015550040
024040004040
1F0100001010
3F0107F40010
BF000BFC0410
FF000BFC0410
FF000BFC0410
FF0007FC0410
FF0007FC0410
FF0007FC0410
FF0007FC0410
FF0007FC0410
FF0107F80010
FF0100401010
FF0040004010
FF4015550040
FFC000000040
BFF400000500
7FFFA556B400
2FFFFFFFD000
0BFFFFFE0000
006FFFA40000
ENDCHAR
STARTCHAR p
ENCODING 112
SWIDTH 782 0
DWIDTH 22 0
BBX 21 24 1 -3
BITMAP
005555555000
070000000400
1F0000000100
7F0155550040
BF0100004040
BF0101401040
BF010BF01040
BF010BF41040
BF010BF41040
BF010BF01040
BF0100001040
BF0100004040
BF0155550100
BF0100000500
BF0100006400
BF0107FFC000
BF0107FE0000
BF0107F40000
BF0005000000
BF0004000000
BF9554000000
BFFFD0000000
BFFF40000000
7FF800000000
ENDCHAR
STARTCHAR q
ENCODING 113
SWIDTH 837 0
DWIDTH 23 0
BBX 22 27 1 -6
BITMAP
000155555000
001400000500
004000000040
024015550040
0F0040004010
3F0101501010
BF010BF80010
FF000BFC0410
FF000BFC0410
FF000BFC0410
FF0007FC0410
FF0007FC0410
FF0007FC0410
FF0007FC0410
FF0007FC0410
FF0107F40010
FF0100001010
FF4040005010
FF8015550040
FFE000400100
BFFD40405800
7FFFD001E000
1FFFD0018000
06FFE5550000
006FFFF80000
002FFFD00000
001FFF400000
ENDCHAR
STARTCHAR r
ENCODING 114
SWIDTH 843 0
DWIDTH 24 0
BBX 22 24 1 -3
BITMAP
005555555000
070000000400
1F0000000100
7F0155540100
BF0100010040
BF0106904040
BF010BE04040
BF010BE04000
BF010BE04100
BF0100004100
BF0100004040
BF0155554010
BF0100001010
BF0100000410
BF010BFD0410
BF010BFD0410
BF010BFD0410
BF0106FD0410
BF0005FD0010
BF0005FD0010
BF9555FE5550
BFFFD1FFFF80
BFFF41FFFE00
7FF801FFF400
ENDCHAR
STARTCHAR s
ENCODING 115
SWIDTH 750 0
DWIDTH 21 0
BBX 21 24 0 -3
BITMAP
000155555500
001400000100
005000000100
02C015554100
0B8040000100
1F8100000100
3F8102FFF800
7F8102BFD000
7F8100015000
7F8050000100
7FC005540100
7FE000004040
3FF900000040
3FFFE9401040
1FFFFFF01040
07EAAA900040
028000004040
0B8155550040
2F8000000100
7F8000000400
7FD55555A000
7FFFFFFF8000
7FFFFFFE0000
3FFFFFE40000
ENDCHAR
STARTCHAR t
ENCODING 116
SWIDTH 756 0
DWIDTH 21 0
BBX 21 24 0 -3
BITMAP
015555555540
070000000040
1F0000000040
7F0155555040
FF0000400040
FF4000400040
FFFFC041FF00
FFFFC041F800
BFFFC041E000
157FC0414000
002FC0410000
002FC0410000
002FC0410000
002FC0410000
002FC0410000
002FC0410000
002FC0410000
002FC0410000
002FC0010000
002FC0010000
002FE5550000
002FFFF80000
002FFFD00000
001FFF400000
ENDCHAR
STARTCHAR u
ENCODING 117
SWIDTH 846 0
DWIDTH 24 0
BBX 22 24 1 -3
BITMAP
015554055550
0700041C0010
2F0004BC0010
BF0106FC0410
FF0107FC0410
FF0107FC0410
FF0107FC0410
FF0107FC0410
FF0107FC0410
FF0107FC0410
FF0107FC0410
FF0107FC0410
FF0107FC0410
FF0107FC0410
FF0102A40410
FF0100001010
FF4040005010
FF4015550040
BFD000000040
BFF400000500
3FFFA556B400
1FFFFFFFD000
07FFFFFE0000
006BFFA40000
ENDCHAR
STARTCHAR v
ENCODING 118
SWIDTH 830 0
DWIDTH 23 0
BBX 22 24 1 -3
BITMAP
015554055550
0A0004280010
2E0004B80010
BE0107F81010
FE0107F81010
FE0107F81010
FE0107F81010
FE0107F81010
FE0107F81010
FE0107F81010
FF0107F41010
FF0103F01040
FF8102E04040
FFC041D04040
BFD040404100
7FE010010100
3FF010010400
2FF405540400
1FFC00000400
0BFD00001000
07FF55555000
03FFFFFF4000
02FFFFF80000
00FFFFE00000
ENDCHAR
STARTCHAR w
ENCODING 119
SWIDTH 931 0
DWIDTH 26 0
BBX 24 24 1 -3
BITMAP
015554001555
07000400A001
2F000402E001
BF01040BE041
FF01041FE041
FF01041FE041
FF01041FE041
FF01045BE041
FF010600E041
FF010900A041
FF0108002041
FF0104141041
FF0100410041
FF0101004041
FF0101104041
FF4104381041
FF81043C1101
FFC0507C0504
BFD000BD0004
7FE000FE0004
3FF956FF9550
2FFFFAFFFF80
0FFFE1FFFD00
0BFF40BFF400
ENDCHAR
STARTCHAR x
ENCODING 120
SWIDTH 837 0
DWIDTH 23 0
BBX 22 24 1 -3
BITMAP
015554055550
0700041C0010
2F00047C0010
BF0106FC0410
FF0107F81010
FF0103F01010
FF4041D01040
FFC040004040
BFE010010100
7FF804000400
2FFC05540400
0FF404000400
07E010010100
03C040404040
0B4102E01040
1F0107F41010
3F010BFC0010
BF010BFC0410
FF000BFC0010
FF0007FC0010
FF5557FD5550
FFFFD3FFFF40
FFFE03FFF800
BFF802FFE000
ENDCHAR
STARTCHAR y
ENCODING 121
SWIDTH 805 0
DWIDTH 23 0
BBX 22 24 0 -3
BITMAP
005554015550
0240040A0010
0F40042E0010
3F4105FE0410
7F4105FE0410
7F4105FE0410
7F4101FD0410
7F8102FD0410
7F8041F80410
7FC040A01010
7FE010004040
7FF404000140
3FFC04010100
1FFE01540400
0BFF80101000
02FFD0101000
00FFE0104000
007FE0104000
002FE0004000
000FF0004000
000FF5554000
000FFFFD0000
000FFFF40000
000BFF800000
ENDCHAR
STARTCHAR z
ENCODING 122
SWIDTH 760 0
DWIDTH 21 0
BBX 21 24 0 -3
BITMAP
005555555500
01C000000040
07C000000040
1FC055554040
3FC000004040
3FD000004040
3FFFFE010100
3FFFF8040100
2FFFF0100400
0556D0101000
000740405000
000D01004000
002804010000
00A010040000
01C040100000
078040155540
1F8100000040
3F8055555040
7F8000000040
7F8000000040
7F9555555540
7FFFFFFFFD00
7FFFFFFFF400
7FFFFFFF8000
ENDCHAR
STARTCHAR braceleft
ENCODING 123
SWIDTH 555 0
DWIDTH 16 0
BBX 15 29 0 -6
BITMAP
00001554
00014004
00040004
00240504
00B01004
03E04004
0BE040A4
0FE040D0
1FE04040
1FE04040
1FD04040
1F414040
1F010100
2E041C00
BF010100
FF414040
FFD04040
FFE04040
FFE04040
6FE04040
1FE04054
1FE01004
1FF00504
1FF80004
1FFE0004
0FFFE954
0BFFFFE0
02FFFF40
006BFD00
ENDCHAR
STARTCHAR bar
ENCODING 124
SWIDTH 447 0
DWIDTH 13 0
BBX 11 29 1 -5
BITMAP
005550
020004
1F0004
7F0104
BF0104
FF0104
FF0104
FF0104
FF0104
FF0104
FF0104
FF0104
FF0104
FF0104
FF0104
FF0104
FF0104
FF0104
FF0104
FF0104
FF0104
FF0104
FF0104
FF0004
FF0004
FF9550
FFFFD0
FFFE00
BFF800
ENDCHAR
STARTCHAR braceright
ENCODING 125
SWIDTH 555 0
DWIDTH 16 0
BBX 16 29 0 -6
BITMAP
00555000
01800500
0B400040
2F414010
7F401010
7F800410
7FFC0410
7FFD0410
7FFD0410
17FD0410
02FD0404
02FD0101
02FF9041
02FF9041
02FD0101
00BD0404
00BD0410
02FD0410
02FD0410
02FC0410
02800410
07401010
1F414010
7F400040
7F400100
7FD56800
7FFFE000
7FFF4000
7FE80000
ENDCHAR
STARTCHAR asciitilde
ENCODING 126
SWIDTH 834 0
DWIDTH 23 0
BBX 21 10 1 4
BITMAP
000555000140
005000155440
024000000040
0F4155400040
7F4000055040
BF4000000040
BF9BFE951600
BFFFFFFFF800
BFFFFFFFE000
7955AFFE4000
ENDCHAR
STARTCHAR uni00A0
ENCODING 160
SWIDTH 325 0
DWIDTH 9 0
BBX 1 1 0 0
BITMAP
00
ENDCHAR
STARTCHAR exclamdown
ENCODING 161
SWIDTH 523 0
DWIDTH 15 0
BBX 12 24 1 -3
BITMAP
005555
028001
0B8001
3F8041
7F8001
7F8001
7FFFFD
7FEAA4
7FC001
1BC001
1FC041
3FC041
3F8041
3F8041
3F8041
3F8041
3F8041
3F8041
7F8001
7F8001
7F9555
7FFFF8
7FFFE0
3FFF40
ENDCHAR
STARTCHAR cent
ENCODING 162
SWIDTH 728 0
DWIDTH 20 0
BBX 19 27 1 -5
BITMAP
0000155500
0000900100
0002D00154
0004004004
0000004004
0040555504
0701000004
1F01000004
7F01015554
BF000BFFD0
FF000BFF40
FF000BFC00
FF00040000
FF00040000
FF00040000
FF01055554
FF01000004
FF41000004
FF80555504
BFD0004004
BFF9004004
3FFFD002E0
1FFFD00280
07FFE55500
006FFFF400
002FFFD000
001FFE0000
ENDCHAR
STARTCHAR sterling
ENCODING 163
SWIDTH 795 0
DWIDTH 22 0
BBX 22 24 0 -3
BITMAP
000055555400
000500000400
002400000400
00A005550400
03D050000400
0FD040555400
1FC041FFD000
2FC041FF4000
2F0040180000
2E0040000000
7E0554000000
FE0040015550
FF0040190010
FFC041FD0010
FFC041FD0410
FFC040000410
2FC040000410
2FC055555410
2FC000000010
2FC000000010
2FE555555550
2FFFFFFFFF40
2FFFFFFFFD00
1FFFFFFFE000
ENDCHAR
STARTCHAR currency
ENCODING 164
SWIDTH 921 0
DWIDTH 26 0
BBX 26 25 0 -4
BITMAP
00024000006400
00145000018200
00600555560080
01800000000050
07C04000001040
1FF01055504000
7FFC0900050400
3FFD0415410400
1FFD047FC10400
07FD007FC10400
01FD007FC10400
01FD007FC10400
01FD007FC10400
01FD043F810400
01FD0400010400
01F81500050500
01E05055504140
01804000001050
07800655580040
1FE01FFFFE0100
7FF87FFFFF8400
3FFFFFFBFFE000
1FF80001FF8000
07E000007E0000
00400000040000
ENDCHAR
STARTCHAR yen
ENCODING 165
SWIDTH 803 0
DWIDTH 22 0
BBX 22 24 0 -3
BITMAP
005554015550
0240040A0010
1F40043E0010
7F4105FE0410
7F4105FE0410
7F4101FE0410
7F8102FD0410
7F8041F81010
7FD010601040
7FF010004040
3FF804010100
1FFE01540400
0BFA00100500
03F000100040
02F015555040
0BF000100040
0FF000100040
0FFFF010BE00
0FFFF000B800
0FFFF0009000
015FF5554000
000FFFFD0000
000FFFE00000
000BFF800000
ENDCHAR
STARTCHAR brokenbar
ENCODING 166
SWIDTH 447 0
DWIDTH 13 0
BBX 11 29 1 -5
BITMAP
005550
020004
1F0004
7F0104
BF0104
FF0104
FF0104
FF0104
FF0104
FF0004
FF0004
FF0004
FFEAA0
FFFF80
BFAA50
6B0004
1F0004
7F0104
FF0104
FF0104
FF0104
FF0104
FF0104
FF0004
FF0004
FF9554
FFFFD0
FFFE00
BFF800
ENDCHAR
STARTCHAR section
ENCODING 167
SWIDTH 750 0
DWIDTH 21 0
BBX 21 24 0 -3
BITMAP
000155555500
000400000100
006015554100
01C040000100
07C100000500
1F8103FFF400
2F810155A000
3F8155550400
7F8100004100
7F8100001100
7F8107E01040
7FC042F41040
7FE050001040
3FF415555040
3FFF54001040
1FFFFFF01040
0BD555401040
02C000004100
07C055550100
2FC000000400
3FD55555A000
3FFFFFFF4000
3FFFFFFD0000
2FFFFF900000
ENDCHAR
STARTCHAR dieresis
ENCODING 168
SWIDTH 600 0
DWIDTH 17 0
BBX 18 10 -1 17
BITMAP
0055505550
0180060010
07800B0010
2F810B0410
7F800B0010
7F800B0010
7FFFFFFFC0
7FFFFFFE00
3FFDFFF800
1554155000
ENDCHAR
STARTCHAR copyright
ENCODING 169
SWIDTH 967 0
DWIDTH 27 0
BBX 25 29 1 -5
BITMAP
00001555540000
00015555555000
00154000015500
00841AFFE90500
0251FFFFFF8440
0F13FEAAABE140
3F16640002F140
7F14505542F140
BF16C10002F140
FF17C10556F140
FF17C11FFFF140
FF17C12FDFF140
FF17C12F4FF140
FF17C1100FF140
FF17C1100FF140
FF17C1100FF140
FF17C1055BF140
FF17C10002F140
FF17E05552F140
FF17F90002F140
FF13FFFFFFE140
FF51FFFFEF8440
FF841AFF991440
BFE14000015100
7FFD1555542400
2FFFE9556BD000
0FFFFFFFFF0000
02FFFFFFF80000
001AFFFA400000
ENDCHAR
STARTCHAR ordfeminine
ENCODING 170
SWIDTH 620 0
DWIDTH 17 0
BBX 17 24 0 -3
BITMAP
0005555400
0024000400
00B0550100
03E0404100
07D1040100
0FC11C1040
1F802D1040
2F44190440
3F44000440
7F45555440
BF44000440
BF442A0440
BF447F0440
BF407F0040
BF807F4040
BFFFFFFF00
BFE9AAA940
BF40000040
1F45555440
7F40000040
BF95555540
BFFFFFFE00
BFFFFFF800
7FFFFFD000
ENDCHAR
STARTCHAR guillemotleft
ENCODING 171
SWIDTH 912 0
DWIDTH 26 0
BBX 25 18 0 -1
BITMAP
00000154001540
00015404054040
00140004500040
00500506005040
01C05009050040
0B81001C100140
2F8106FC106900
3F810BFC10B400
7F81006C100500
7F81400C040040
7FC01509015040
7FE0000B400040
3FFE400BE40040
3FFFF90FFFA440
1FFFFFFFFFFE00
02FFFF9BFFF400
001AFD006FD000
00001400010000
ENDCHAR
STARTCHAR logicalnot
ENCODING 172
SWIDTH 834 0
DWIDTH 23 0
BBX 21 16 1 -2
BITMAP
005555555540
024000000040
0F4000000040
7F4155555440
BF4000000440
BF9555540440
BFFFFFFD0440
BFFFFFFD0440
7FFFFFFD0440
000002FD0440
000002FD0040
000002FD0040
000002FE5540
000002FFFE00
000002FFF800
000001FFD000
ENDCHAR
STARTCHAR uni00AD
ENCODING 173
SWIDTH 520 0
DWIDTH 15 0
BBX 14 10 0 4
BITMAP
00555550
02400010
0B400000
2F415400
7F400000
BF400000
BF955550
BFFFFF80
BFFFFE00
7FFFF400
ENDCHAR
STARTCHAR registered
ENCODING 174
SWIDTH 660 0
DWIDTH 18 0
BBX 17 18 1 3
BITMAP
001AAAA400
0066FF9500
025EAAF540
1F69547940
7E69153940
BE69353940
FE69017940
FE69551940
FE69185940
FE693D5940
FE683D1940
FF5FFFF540
FF56FF9540
FFD5555500
FFFFAAF400
7FFFFFD000
1FFFFE0000
01AA940000
ENDCHAR
STARTCHAR macron
ENCODING 175
SWIDTH 600 0
DWIDTH 17 0
BBX 17 9 0 17
BITMAP
0055555500
0240000040
0B41554040
3F40000040
BF40000040
BFFFFFFE00
BFFFFFF400
7FFFFFD000
1555550000
ENDCHAR
STARTCHAR degree
ENCODING 176
SWIDTH 583 0
DWIDTH 16 0
BBX 16 16 0 5
BITMAP
00055550
00500005
01815541
0B840011
2F447D11
7F447D11
7F447D11
7F447D11
7F440011
7F840011
7FC15540
7FE40010
3FFFAAD0
2FFFFE00
07FFF800
00150000
ENDCHAR
STARTCHAR plusminus
ENCODING 177
SWIDTH 834 0
DWIDTH 23 0
BBX 21 24 1 -3
BITMAP
000015550000
000060010000
0002E0010000
000BE0410000
000FE0410000
000FE0410000
005A90415540
024000400040
0F4155555040
7F4000400040
BF4000400040
BFEAA042AA80
BFFFE042FE00
BFFFE042F800
7FFFE042D000
005A90015540
024000000040
0F4000000040
7F4155555040
BF4000000040
BF9555555540
BFFFFFFFFE00
BFFFFFFFF800
7FFFFFFFD000
ENDCHAR
STARTCHAR twosuperior
ENCODING 178
SWIDTH 585 0
DWIDTH 16 0
BBX 16 19 0 2
BITMAP
00555550
01C00004
0BC15541
2FC00041
2FFAA801
2FFFE401
2FF90041
05901404
02810060
0B441B80
2F442A55
7F440001
7F455541
BF400001
BF400001
BFFFFFF8
BFFFFFD0
BFFFFF40
15555500
ENDCHAR
STARTCHAR threesuperior
ENCODING 179
SWIDTH 584 0
DWIDTH 16 0
BBX 16 19 0 2
BITMAP
00555550
02800010
1F815504
3F800104
7FFFE044
7FFA9044
7FF40114
1AF45541
07F40011
0BFEA811
0BFFFC11
0B800011
0B815541
2F800001
7F800014
7FFFFFD0
7FFFFF40
7FFFF800
15554000
ENDCHAR
STARTCHAR acute
ENCODING 180
SWIDTH 600 0
DWIDTH 17 0
BBX 17 10 0 17
BITMAP
0001555540
0050000040
0240054040
1F41500040
7F40000500
BF856BFC00
BFFFFFE000
BFFFFF8000
7FEA540000
1000000000
ENDCHAR
STARTCHAR mu
ENCODING 181
SWIDTH 813 0
DWIDTH 23 0
BBX 21 22 1 -5
BITMAP
005550055540
060004240040
1F0005F40040
7F010BF41040
FF010BF41040
FF010BF41040
FF010BF41040
FF010BF41040
FF010BF41040
FF010BF41040
FF0107F01040
FF0200001040
FF0140014040
FF0115540040
FF0100000100
FF0100001900
FF000AAAE000
FF000BFF8000
FF555FFD0000
FFFFFF900000
FFFF40000000
BFF800000000
ENDCHAR
STARTCHAR paragraph
ENCODING 182
SWIDTH 782 0
DWIDTH 22 0
BBX 21 24 0 -3
BITMAP
000155555540
001000000040
008000000040
028055555040
0F4100001040
2F4100001040
7F4400001040
BF4400001040
BF4400001040
BF4400001040
BF4000001040
BF4100001040
BFC055555040
BFE001001040
7FF901001040
3FFF411C1040
1FFF411C1040
06FF411C1040
007F401C0040
007F401C0040
007F956E5540
007FFFFFFD00
007FFFFFF400
007FF5FF8000
ENDCHAR
STARTCHAR periodcentered
ENCODING 183
SWIDTH 464 0
DWIDTH 13 0
BBX 13 12 0 3
BITMAP
00555500
01800040
0B400040
2F404040
7F404040
7F404040
7F400040
7F400040
7F955500
7FFFFC00
7FFFE000
7FFF8000
ENDCHAR
STARTCHAR cedilla
ENCODING 184
SWIDTH 600 0
DWIDTH 17 0
BBX 12 12 2 -7
BITMAP
000540
001805
00B401
02E041
07D041
0BC104
0F8004
1F4004
2F9550
3FFF80
BFFE00
7FF400
ENDCHAR
STARTCHAR onesuperior
ENCODING 185
SWIDTH 557 0
DWIDTH 16 0
BBX 16 19 0 2
BITMAP
00555540
02C00040
0BC15040
2FD01040
3FFE1040
3FFE1040
3FFE1040
05FE1040
01FE1040
01FE1040
01E91054
01801001
07801001
1F815541
7F800004
7FFFFFF4
7FFFFFD0
7FFFFE00
15555400
ENDCHAR
STARTCHAR ordmasculine
ENCODING 186
SWIDTH 625 0
DWIDTH 18 0
BBX 17 24 0 -3
BITMAP
0005555400
0010000100
0180554040
0741001040
2F442E0440
7F443F0440
7F443F0440
BF443F0440
BF443F0440
BF443F0440
BF442F0440
BF44000440
BF81001040
BFC0554040
BFF9000500
7FFFFFF400
2FEAAA9540
0B40000040
0B45555440
3F40000040
BF95555540
BFFFFFFE00
BFFFFFF800
7FFFFFD000
ENDCHAR
STARTCHAR guillemotright
ENCODING 187
SWIDTH 912 0
DWIDTH 26 0
BBX 24 17 1 0
BITMAP
02A900269000
0B01A4B00640
2F0006F00014
BF0500B01405
FF0010300141
FF4004340041
FFF9042F9041
FFFE042FE041
7F9004290041
0B0010300141
1F0540701400
7F0001F00004
FF001BF00190
FF16EFF06F40
FFFF8FFFF800
FFF90FFF9000
F9400BE40000
ENDCHAR
STARTCHAR onequarter
ENCODING 188
SWIDTH 1303 0
DWIDTH 36 0
BBX 36 24 0 -3
BITMAP
005555400555000000
02C000402401000000
0BC15041F401000000
2FD01043F041000000
3FFE1047F041000000
3FFE104BE041554155
3FFE104FE046004801
1AFE104FD007006C01
01FE105FC10B04BC11
01FE105FC10B04BC11
01E9105B810F04BC11
01801003810F04BC11
07801003411F04BC11
1F815543442F041411
7F800007042F040011
7FFFFFFF043F415551
7FFFFFFE043FD00011
7FFFFEFE047FFFFC11
155554FD007FFFFC11
000001FC007FFFFC01
000001FE554557FD55
000002FFFD0003FFF4
000002FFF00003FFD0
000002FF800002FF40
ENDCHAR
STARTCHAR onehalf
ENCODING 189
SWIDTH 1260 0
DWIDTH 35 0
BBX 35 24 0 -3
BITMAP
005555400555000000
01C000402401000000
0BC15041F401000000
2FD01043F041000000
3FFE1047F041000000
3FFE104BE041555540
3FFE104FE046000010
2FFE104FD007000004
01FE105FC10B055504
01FE105FC10B554104
01E9105B810FFFE104
01801003810FFE4104
07801003411FD00104
1F815543441A015010
7F8000070419140140
7FFFFFFF043D106D00
7FFFFFFE043D10A954
7FFFFEFE047D100004
155554FD007D155504
000001FC00BD000004
000001FE55FE555554
000002FFFFFFFFFFD0
000002FFF6FFFFFF40
000002FF81FFFFF800
ENDCHAR
STARTCHAR threequarters
ENCODING 190
SWIDTH 1313 0
DWIDTH 37 0
BBX 36 24 0 -3
BITMAP
005555500555000000
028000102800400000
1F815504B801000000
3F800106F401000000
7FFFE047F441000000
7FF9504BF041554155
7FF4011BE043404901
1AF45542E043406D01
03F40011D047447D11
0BFEA811D10B447D11
0BFFFC11C10B447D11
0B800011C10F447D11
0B800012810F447D11
0B815543811F441811
3F80001F401F440011
7FFFFFFF042F815551
7FFFFFBF042FE00011
7FFFF9BE043FFFFD11
155540BE003FFFFD11
000000FD006FFFFD01
000000FE554556FE55
000001FFFD0002FFF8
000001FFF40002FFE0
000001FFD00001FF40
ENDCHAR
STARTCHAR questiondown
ENCODING 191
SWIDTH 756 0
DWIDTH 21 0
BBX 21 24 0 -3
BITMAP
000005555000
00001C000400
00007C000400
0001FC040400
0003FC000400
0003FC000400
0003FEAA9000
0003FFFA9000
000395001000
001400001000
008001540000
028054000400
1F8100000400
3F4100169000
7F4103FF4000
7F4102AA5500
7F8040000040
7F8015555040
7FD000000040
7FF400000040
7FFE55555540
2FFFFFFFFD00
0FFFFFFFF400
01BFFFFF8000
ENDCHAR
STARTCHAR Agrave
ENCODING 192
SWIDTH 830 0
DWIDTH 23 0
BBX 22 31 1 -3
BITMAP
000650000000
001856AA5000
007800005400
02F815540400
07F800000400
07FD00000400
07FFFEA54000
07FFAAAA9000
02FD00001000
002C00000400
00B405540400
02F010010400
03E000010100
07D041D04100
0BC043E04040
0F8107F01040
1F4107F01040
3F010AA41010
7E0400001010
BE0400000410
FE0555555410
FE0400000410
FE0405540410
FE040FF80410
FE040FF80410
FE000FF80010
FE0007F80010
FF5553FD5540
FFFF83FFFF40
FFFE03FFF800
FFF402FFE000
ENDCHAR
STARTCHAR Aacute
ENCODING 193
SWIDTH 830 0
DWIDTH 23 0
BBX 22 31 1 -3
BITMAP
00000016A400
0002AEA54400
001940000400
007815540400
02F800000400
07F800004000
07F856AF8000
07FE55555000
07FC00001000
07F800000400
00B405540400
02F010010000
03E000010100
07D041D04100
0BC043E04040
0F8107F01040
1F4107F01040
3F010AA41010
7E0400001010
BE0400000410
FE0555555410
FE0400000410
FE0405540410
FE040FF80410
FE040FF80410
FE000FF80010
FE0007F80010
FF5553FD5540
FFFF83FFFF40
FFFE03FFF800
FFF402FFE000
ENDCHAR
STARTCHAR Acircumflex
ENCODING 194
SWIDTH 830 0
DWIDTH 23 0
BBX 22 32 1 -3
BITMAP
000001500000
000054054000
000500001000
001801500400
007810050400
01F800000400
07F81BE90400
07FEFFFFE400
07FE55555000
07FC00001000
07F800000400
00B405540400
02F010010000
03E000010100
07D041D04100
0BC043E04040
0F8107F01040
1F4107F01040
3F010AA41010
7E0400001010
BE0400000410
FE0555555410
FE0400000410
FE0405540410
FE040FF80410
FE040FF80410
FE000FF80010
FE0007F80010
FF5553FD5540
FFFF83FFFF40
FFFE03FFF800
FFF402FFE000
ENDCHAR
STARTCHAR Atilde
ENCODING 195
SWIDTH 830 0
DWIDTH 23 0
BBX 22 30 1 -3
BITMAP
000155505000
000400050400
002800000400
01F815550400
03F800000400
07F969405000
07FFFFFFC000
07FE00001000
07FC00000000
00B805540400
02F410010400
03E000010100
07D041D04100
0BC043E04000
0F8107F01040
1F4107F01040
3F010AA41000
7E0400001010
BE0400000410
FE0555555410
FE0400000410
FE0405540410
FE040FF80410
FE040FF80410
FE000FF80010
FE0007F80010
FF5553FD5550
FFFF83FFFF40
FFFE03FFF800
FFF402FFE000
ENDCHAR
STARTCHAR Adieresis
ENCODING 196
SWIDTH 830 0
DWIDTH 23 0
BBX 22 31 1 -3
BITMAP
000555155400
002001900400
00F001C00000
07F041C00000
0FF001C00000
0FF001C00000
0FF002D00400
0FFFFFFFF400
0FFE40005000
0BFC00001000
00B805540400
02F410010400
03F000010100
07D041D04100
0BC043E04100
0F8107F01040
1F4107F01040
3F010AA41040
7F0400001010
BE0400000410
FE0555555410
FE0400000410
FE0405540410
FE040FF80410
FE040FF80410
FE000FF80010
FE0007F80010
FF5553FD5550
FFFF83FFFF40
FFFE03FFF800
FFF402FFE000
ENDCHAR
STARTCHAR Aring
ENCODING 197
SWIDTH 830 0
DWIDTH 23 0
BBX 22 31 1 -3
BITMAP
000015550000
000140005000
000805540400
002410010400
01F442E04400
03F443F04400
07F443F04400
07F811410400
0BFC05540000
0BF800000400
07F405540400
03F010010100
03E000010100
07D042D04100
0B8043E04040
0F4107F01040
2F0107F01040
3F010AA41010
7E0400001010
BE0400000410
FE0555555410
FE0400000410
FE0405540410
FE040FF80410
FE040FF80410
FE000FF80010
FE0007F80010
FF5553FD5540
FFFF83FFFF00
FFFE03FFF800
FFF402FFE000
ENDCHAR
STARTCHAR AE
ENCODING 198
SWIDTH 1105 0
DWIDTH 31 0
BBX 30 24 1 -3
BITMAP
0001555555555540
0008000000000010
0078000000000010
01F4155555555010
03F0100010000010
07E0400010000040
0BC041F8103FFF40
0F8042F8103FFD00
1F4103F810155400
2F0107F810000400
3F050BF415550400
7E04000010000400
BE04000010000400
FE055555502AA400
FE040000103FD000
FE040554102A5540
FE040FF810000010
FE040FF815555010
FE000FF800000010
FE0007F800000010
FF5557FD55555540
FFFF87FFFFFFFF00
FFFE07FFFFFFF800
FFF403FFFFFFE000
ENDCHAR
STARTCHAR Ccedilla
ENCODING 199
SWIDTH 728 0
DWIDTH 20 0
BBX 19 28 1 -7
BITMAP
0005555554
0010000004
0080555504
0741000004
1F01000004
3F01015554
BF000BFFD0
FF000BFF40
FF000BFD00
FF00040000
FF00040000
FF00040000
FF00040000
FF00040000
FF01040000
FF01015554
FF01000004
FF40555504
FFD0001004
BFF4004004
7FFFD042A8
2FFFD003E0
0BFFC00740
01AF800800
002FFFE000
003FFF4000
007FFD0000
0015500000
ENDCHAR
STARTCHAR Egrave
ENCODING 200
SWIDTH 754 0
DWIDTH 21 0
BBX 20 31 1 -3
BITMAP
001A540000
00A15ABA40
02E0000150
0FE0555410
1FE0000010
1FE4000010
1FFFFA9500
1F95555555
0B00000001
1F00000001
7F01555541
BF01000001
BF01015555
BF010BFFF4
BF010BFFD0
BF01000040
BF01000010
BF01555010
BF01000010
BF01000040
BF010BFF40
BF010BFD00
BF0106A554
BF01000001
BF01555541
BF00000001
BF00000001
BF95555555
BFFFFFFFF4
BFFFFFFF80
7FFFFFFE00
ENDCHAR
STARTCHAR Eacute
ENCODING 201
SWIDTH 754 0
DWIDTH 21 0
BBX 20 31 1 -3
BITMAP
00000056A0
0006AEA554
0019000004
00B4155404
02F4000004
0BF4000040
0BF856BF40
0B95555555
0B00000001
1F00000001
7F01555541
BF01000001
BF01015555
BF010BFFF4
BF010BFFD0
BF01000040
BF01000010
BF01555010
BF01000010
BF01000040
BF010BFF40
BF010BFD00
BF0106A554
BF01000001
BF01555541
BF00000001
BF00000001
BF95555555
BFFFFFFFF4
BFFFFFFF80
7FFFFFFE00
ENDCHAR
STARTCHAR Ecircumflex
ENCODING 202
SWIDTH 754 0
DWIDTH 21 0
BBX 20 32 1 -3
BITMAP
0000054000
0001501500
0014000050
0060055010
02E0500410
0BE0000010
0FE06BE410
0FFBFFFF90
0F95555555
0F00000001
2F00000001
BF01555541
BF01000001
BF01015555
BF010BFFF4
BF010BFFD0
BF01000040
BF01000010
BF01555010
BF01000010
BF01000040
BF010BFF40
BF010BFD00
BF0106A554
BF01000001
BF01555541
BF00000001
BF00000001
BF95555555
BFFFFFFFF4
BFFFFFFF80
7FFFFFFE00
ENDCHAR
STARTCHAR Edieresis
ENCODING 203
SWIDTH 754 0
DWIDTH 21 0
BBX 20 31 1 -3
BITMAP
0015545550
0050028004
02D0038004
0BD0438104
1FD0038004
2FD0038004
2FE0038010
2FFFFFFFFD
2F40000005
1F00000001
2F01555541
BF01000001
BF01015555
BF010BFFF4
BF010BFFD0
BF01000040
BF01000010
BF01555010
BF01000010
BF01000040
BF010BFF40
BF010BFD00
BF0106A554
BF01000001
BF01555541
BF00000001
BF00000001
BF95555555
BFFFFFFFF4
BFFFFFFF80
7FFFFFFE00
ENDCHAR
STARTCHAR Igrave
ENCODING 204
SWIDTH 705 0
DWIDTH 20 0
BBX 19 31 0 -3
BITMAP
001A940000
00715ABA90
02E0000160
0BE0155410
0FE0000010
0FF5000010
0FFFFA9500
0FD5555554
0780000004
0780000004
2F81555504
3F80010004
7F80010004
7FFA4102A0
7FFF410380
3FFF410200
1ABF410100
007F410100
007F410100
007F410100
007F410100
007F410100
006A410154
0180010004
0B81555504
2F80000004
3F80000004
7FD5555554
7FFFFFFFE0
7FFFFFFF40
3FFFFFFD00
ENDCHAR
STARTCHAR Iacute
ENCODING 205
SWIDTH 705 0
DWIDTH 20 0
BBX 19 31 0 -3
BITMAP
0000005690
0006BA9510
0025000010
01E0555410
07E0000010
0FE0000000
0FF15ABE00
0FD5555554
0F80000004
0F80000004
1F81555504
3F80010004
7F80010004
7FFA4102A0
7FFF410380
3FFF410200
1ABF410100
007F410100
007F410100
007F410100
007F410100
007F410100
006A410154
0180010004
0B81555504
2F80000004
3F80000004
7FD5555554
7FFFFFFFE0
7FFFFFFF40
3FFFFFFD00
ENDCHAR
STARTCHAR Icircumflex
ENCODING 206
SWIDTH 705 0
DWIDTH 20 0
BBX 19 32 0 -3
BITMAP
0000054000
0000501500
0004000050
0020055010
01E0500410
07E0000010
0FE06BE410
0FFBFFFF90
0FD5555554
0F80000004
0F80000004
1F81555504
3F80010004
7F80010004
7FFA4102A0
7FFF410380
3FFF410200
1ABF410100
007F410100
007F410100
007F410100
007F410100
007F410100
006A410154
0180010004
0B81555504
2F80000004
3F80000004
7FD5555554
7FFFFFFFE0
7FFFFFFF40
3FFFFFFD00
ENDCHAR
STARTCHAR Idieresis
ENCODING 207
SWIDTH 705 0
DWIDTH 20 0
BBX 19 31 0 -3
BITMAP
0015545550
0090064004
02C0034004
0BC0034104
2FC0034004
2FC0034004
2FD0078010
2FFFFFFFF8
2FD0000008
2F80000004
1F81555504
3F80010004
7F80010004
7FFA4102A0
7FFF410380
3FFF410200
1ABF410100
007F410100
007F410100
007F410100
007F410100
007F410100
006A410154
0180010004
0B81555504
2F80000004
3F80000004
7FD5555554
7FFFFFFFE0
7FFFFFFF40
3FFFFFFD00
ENDCHAR
STARTCHAR Eth
ENCODING 208
SWIDTH 856 0
DWIDTH 24 0
BBX 23 24 0 -3
BITMAP
001555555500
009000000050
07D000000014
1FD055555004
1FD040000404
1FD040550104
1FD041FF4104
1FD041FF4104
1F00401F4104
1E00400F4104
7E05540F4104
FE00400F4104
FF00401F4104
FFD041FF4104
FFD041BF4104
FFD040000104
2FD040000404
1FD055555004
1FD000000010
1FD000000050
1FE555555A00
1FFFFFFFF800
1FFFFFFFE000
1FFFFFFA4000
ENDCHAR
STARTCHAR Ntilde
ENCODING 209
SWIDTH 853 0
DWIDTH 24 0
BBX 22 30 1 -3
BITMAP
000055505400
000500010400
002C00000400
00FC05550400
03FC00000000
03FD69500000
03956FFE5550
07000FFC0010
1F0003FC0010
7F0101FC0410
BF01407C0410
BF01102C0410
BF0104080410
BF0101000410
BF0100400410
BF0100100410
BF0100040410
BF0109050410
BF010B010410
BF010B804410
BF010BE01410
BF010BF80410
BF010BFC0410
BF010BFC0410
BF000BFC0010
BF0006FC0010
BF9556FE5550
BFFFD2FFFF40
BFFF42FFFD00
7FF801FFE000
ENDCHAR
STARTCHAR Ograve
ENCODING 210
SWIDTH 837 0
DWIDTH 23 0
BBX 22 31 1 -3
BITMAP
000BEA540000
002856AFE400
01F815005800
03F800550400
07F800000400
07FD40000400
07FFE9400000
03F900000500
009000000140
014015550040
0B0040004010
2F0100001010
7F0107F40010
BF000BFC0410
FF000BFC0410
FF000BFC0410
FF0007FC0410
FF0007FC0410
FF0007FC0410
FF0007FC0410
FF0007FC0410
FF0107F80010
FF0100401010
FF0040004010
FF4015550040
FFC000000040
BFF400000500
7FFFA556B400
2FFFFFFFD000
07FFFFFE0000
006FFFA40000
ENDCHAR
STARTCHAR Oacute
ENCODING 211
SWIDTH 837 0
DWIDTH 23 0
BBX 22 31 1 -3
BITMAP
000005ABF400
0007FEA54400
002D40150400
00B815400400
02F800000000
07F800001000
07F8005A9000
07F900000500
07D000000140
024015550040
070040004010
2F0100001010
7F0107F40010
BF000BFC0410
FF000BFC0410
FF000BFC0410
FF0007FC0410
FF0007FC0410
FF0007FC0410
FF0007FC0410
FF0007FC0410
FF0107F80010
FF0100401010
FF0040004010
FF4015550040
FFC000000040
BFF400000500
7FFFA556B400
2FFFFFFFD000
07FFFFFE0000
006FFFA00000
ENDCHAR
STARTCHAR Ocircumflex
ENCODING 212
SWIDTH 837 0
DWIDTH 23 0
BBX 22 32 1 -3
BITMAP
000001500000
000054054000
000500001400
001801500400
00B814050400
02F800000400
07F81BF90400
07FEFFFFE400
07FE40005400
07E000000100
038015550040
070040004010
2F0100001010
7F0107F40010
BF000BFC0410
FF000BFC0410
FF000BFC0410
FF0007FC0410
FF0007FC0410
FF0007FC0410
FF0007FC0410
FF0007FC0410
FF0107F80010
FF0100401010
FF0040004010
FF4015550040
FFC000000040
BFF400000500
7FFFA556B400
2FFFFFFFD000
07FFFFFE0000
006FFFA40000
ENDCHAR
STARTCHAR Otilde
ENCODING 213
SWIDTH 837 0
DWIDTH 23 0
BBX 22 31 1 -3
BITMAP
000055405000
000500054400
002800000400
00B815400400
03F800150400
07F800000400
07F96A505000
07FFA5569000
07F400000500
02C015550040
074040004040
2F0100001010
7F0107F40010
BF000BFC0410
FF000BFC0410
FF000BFC0410
FF0007FC0410
FF0007FC0410
FF0007FC0410
FF0007FC0410
FF0007FC0410
FF0107F80010
FF0100401010
FF0040004010
FF4015550040
FFC000000040
BFF400000500
7FFFA556B400
2FFFFFFFD000
07FFFFFE0000
006FFFA40000
ENDCHAR
STARTCHAR Odieresis
ENCODING 214
SWIDTH 837 0
DWIDTH 23 0
BBX 22 31 1 -3
BITMAP
000555155400
002001900100
01F001D00100
07F041D04100
0FF001D00100
0FF001D00100
0FF001D00400
0FFFFAABF400
0FF900001500
02D015550140
074040004040
2F0100001010
7F0107F40010
BF000BFC0410
FF000BFC0410
FF000BFC0410
FF0007FC0410
FF0007FC0410
FF0007FC0410
FF0007FC0410
FF0007FC0410
FF0107F80010
FF0100401010
FF0040004010
FF4015550040
FF8000000040
BFF400000500
7FFFA556B400
2FFFFFFFD000
07FFFFFE0000
006FFFA40000
ENDCHAR
STARTCHAR multiply
ENCODING 215
SWIDTH 834 0
DWIDTH 23 0
BBX 21 20 1 -1
BITMAP
000140005000
000410010400
005004080100
018001200040
07C040804040
1FE010010100
3FF804040400
3FFE01101000
1FFF80804000
07FE01101000
01F804040400
006010010100
008040804040
038002E00040
0FE00BF80100
3FF82FFE0400
7FFE5FFFA000
1FFD07FF8000
07F401FE0000
019000740000
ENDCHAR
STARTCHAR Oslash
ENCODING 216
SWIDTH 837 0
DWIDTH 23 0
BBX 22 29 1 -5
BITMAP
000000015500
000000040040
000000180100
000155500100
001400004100
004015550040
024140000000
1F0100000010
3F040B800410
BF041F400410
FF041E000410
FF041D010410
FF041C050410
FF0418090410
FF04100D0410
FF04001D0410
FF04003D0410
FF04007D0410
FF0000A81010
FF0000005010
FF4015550040
FFD040000040
BFF000000A00
7FD006AAF400
3FD00BFFD000
0FFABFFE0000
1FFFFFA40000
2FFD00000000
155400000000
ENDCHAR
STARTCHAR Ugrave
ENCODING 217
SWIDTH 846 0
DWIDTH 24 0
BBX 22 31 1 -3
BITMAP
0006A5000000
002856AE9000
00B800005400
03F815550400
07F800000400
07F900000400
07FFFEA54000
07555FFD5550
07000BFC0010
2F0005FC0010
BF0106FC0410
FF0107FC0410
FF0107FC0410
FF0107FC0410
FF0107FC0410
FF0107FC0410
FF0107FC0410
FF0107FC0410
FF0107FC0410
FF0107FC0410
FF0107FC0410
FF0102A40410
FF0100001010
FF4040005010
FF4015550040
BFD000000040
BFF400000500
3FFFA556B400
1FFFFFFFD000
07FFFFFE0000
006BFFA40000
ENDCHAR
STARTCHAR Uacute
ENCODING 218
SWIDTH 846 0
DWIDTH 24 0
BBX 22 31 1 -3
BITMAP
00000015A800
0001ABA94400
000A40000400
002C05550400
01FC00000400
02FC00001000
02FD16AFD000
02555FFD5550
07000ABC0010
2F0004BC0010
BF0106FC0410
FF0107FC0410
FF0107FC0410
FF0107FC0410
FF0107FC0410
FF0107FC0410
FF0107FC0410
FF0107FC0410
FF0107FC0410
FF0107FC0410
FF0107FC0410
FF0102A40410
FF0100001010
FF4040005010
FF4015550040
BFD000000040
BFF400000500
3FFFA556B400
1FFFFFFFD000
07FFFFFE0000
006BFFA40000
ENDCHAR
STARTCHAR Ucircumflex
ENCODING 219
SWIDTH 846 0
DWIDTH 24 0
BBX 22 32 1 -3
BITMAP
000001500000
000054014000
000100000400
001805540400
007810010400
01F801500400
03FD6FFE5400
03FFFFFFF400
03555FFD5550
07000BFC0010
2F0004BC0010
BF0106FC0410
FF0107FC0410
FF0107FC0410
FF0107FC0410
FF0107FC0410
FF0107FC0410
FF0107FC0410
FF0107FC0410
FF0107FC0410
FF0107FC0410
FF0107FC0410
FF0106F80410
FF0100001010
FF4040005010
FF4015550040
BFD000000040
BFF400000500
3FFFA556B400
1FFFFFFFD000
07FFFFFE0000
006BFFA40000
ENDCHAR
STARTCHAR Udieresis
ENCODING 220
SWIDTH 846 0
DWIDTH 24 0
BBX 22 31 1 -3
BITMAP
000555155400
002001900100
00F000D00100
07F000D04100
0BF000D00100
0BF000D00100
0BF401E00400
0BFFFFFFFFD0
0F400BFD0050
2F000BFC0010
BF0005FC0010
FF0106FC0410
FF0107FC0410
FF0107FC0410
FF0107FC0410
FF0107FC0410
FF0107FC0410
FF0107FC0410
FF0107FC0410
FF0107FC0410
FF0107FC0410
FF0106F80410
FF0100001010
FF0040005010
FF4015550000
BFC000000040
BFF400000500
3FFFA556B400
1FFFFFFFD000
07FFFFFE0000
006BFFA40000
ENDCHAR
STARTCHAR Yacute
ENCODING 221
SWIDTH 805 0
DWIDTH 23 0
BBX 22 31 0 -3
BITMAP
00000005A800
0001ABA95100
000650000100
001D05550100
00BD00000100
01FD00001000
01FE15ABD000
01955BFE5550
024007AE0010
0F40043E0010
3F4105FE0410
7F4105FE0410
7F4105FE0410
7F4101FD0410
7F8102FD0410
7F8041F80410
7FC040A01010
7FE010004040
7FF404000140
3FFC04010100
1FFE01540400
0BFF80101000
02FFD0101000
00FFE0104000
007FE0104000
002FE0004000
000FF0004000
000FF5554000
000FFFFD0000
000FFFF40000
000BFF800000
ENDCHAR
STARTCHAR Thorn
ENCODING 222
SWIDTH 792 0
DWIDTH 22 0
BBX 21 24 1 -3
BITMAP
005554000000
070004000000
1F0004000000
7F0101555000
BF0100000400
BF0155550100
BF0100004040
BF0100000040
BF0101401040
BF010BF01040
BF010BF41040
BF010BF41040
BF010BF01040
BF0100000040
BF0100004040
BF0155550100
BF0100000400
BF010155A000
BF0007FF8000
BF0007FD0000
BF955BA00000
BFFFD0000000
BFFF40000000
7FF800000000
ENDCHAR
STARTCHAR germandbls
ENCODING 223
SWIDTH 859 0
DWIDTH 24 0
BBX 23 24 1 -3
BITMAP
005555555000
074000000500
1F0000000100
7F0155550100
BF0100004100
BF0100004100
BF0107C04100
BF0107C10100
BF0107C10140
BF0107810010
BF0107815004
BF0107400404
BF0107400104
BF0107FF0104
BF0107FF0104
BF0107EA0104
BF0107400404
BF0107415404
BF0007400014
BF0007400050
BF955B955640
BFFFFFFFFD00
BFFFFFFFE000
7FF87FFE4000
ENDCHAR
STARTCHAR agrave
ENCODING 224
SWIDTH 830 0
DWIDTH 23 0
BBX 22 31 1 -3
BITMAP
000650000000
001856AA5000
007800005400
02F815540400
07F800000400
07FD00000400
07FFFEA54000
07FFAAAA9000
02FD00001000
002C00000400
00B405540400
02F010010400
03E000010100
07D041D04100
0BC043E04040
0F8107F01040
1F4107F01040
3F010AA41010
7E0400001010
BE0400000410
FE0555555410
FE0400000410
FE0405540410
FE040FF80410
FE040FF80410
FE000FF80010
FE0007F80010
FF5553FD5540
FFFF83FFFF40
FFFE03FFF800
FFF402FFE000
ENDCHAR
STARTCHAR aacute
ENCODING 225
SWIDTH 830 0
DWIDTH 23 0
BBX 22 31 1 -3
BITMAP
00000016A400
0002AEA54400
001940000400
007815540400
02F800000400
07F800004000
07F856AF8000
07FE55555000
07FC00001000
07F800000400
00B405540400
02F010010000
03E000010100
07D041D04100
0BC043E04040
0F8107F01040
1F4107F01040
3F010AA41010
7E0400001010
BE0400000410
FE0555555410
FE0400000410
FE0405540410
FE040FF80410
FE040FF80410
FE000FF80010
FE0007F80010
FF5553FD5540
FFFF83FFFF40
FFFE03FFF800
FFF402FFE000
ENDCHAR
STARTCHAR acircumflex
ENCODING 226
SWIDTH 830 0
DWIDTH 23 0
BBX 22 32 1 -3
BITMAP
000001500000
000054054000
000500001000
001801500400
007810050400
01F800000400
07F81BE90400
07FEFFFFE400
07FE55555000
07FC00001000
07F800000400
00B405540400
02F010010000
03E000010100
07D041D04100
0BC043E04040
0F8107F01040
1F4107F01040
3F010AA41010
7E0400001010
BE0400000410
FE0555555410
FE0400000410
FE0405540410
FE040FF80410
FE040FF80410
FE000FF80010
FE0007F80010
FF5553FD5540
FFFF83FFFF40
FFFE03FFF800
FFF402FFE000
ENDCHAR
STARTCHAR atilde
ENCODING 227
SWIDTH 830 0
DWIDTH 23 0
BBX 22 30 1 -3
BITMAP
000155505000
000400050400
002800000400
01F815550400
03F800000400
07F969405000
07FFFFFFC000
07FE00001000
07FC00000000
00B805540400
02F410010400
03E000010100
07D041D04100
0BC043E04000
0F8107F01040
1F4107F01040
3F010AA41000
7E0400001010
BE0400000410
FE0555555410
FE0400000410
FE0405540410
FE040FF80410
FE040FF80410
FE000FF80010
FE0007F80010
FF5553FD5550
FFFF83FFFF40
FFFE03FFF800
FFF402FFE000
ENDCHAR
STARTCHAR adieresis
ENCODING 228
SWIDTH 830 0
DWIDTH 23 0
BBX 22 31 1 -3
BITMAP
000555155400
002001900400
00F001C00000
07F041C00000
0FF001C00000
0FF001C00000
0FF002D00400
0FFFFFFFF400
0FFE40005000
0BFC00001000
00B805540400
02F410010400
03F000010100
07D041D04100
0BC043E04100
0F8107F01040
1F4107F01040
3F010AA41040
7F0400001010
BE0400000410
FE0555555410
FE0400000410
FE0405540410
FE040FF80410
FE040FF80410
FE000FF80010
FE0007F80010
FF5553FD5550
FFFF83FFFF40
FFFE03FFF800
FFF402FFE000
ENDCHAR
STARTCHAR aring
ENCODING 229
SWIDTH 830 0
DWIDTH 23 0
BBX 22 31 1 -3
BITMAP
000015550000
000140005000
000805540400
002410010400
01F442E04400
03F443F04400
07F443F04400
07F811410400
0BFC05540000
0BF800000400
07F405540400
03F010010100
03E000010100
07D042D04100
0B8043E04040
0F4107F01040
2F0107F01040
3F010AA41010
7E0400001010
BE0400000410
FE0555555410
FE0400000410
FE0405540410
FE040FF80410
FE040FF80410
FE000FF80010
FE0007F80010
FF5553FD5540
FFFF83FFFF00
FFFE03FFF800
FFF402FFE000
ENDCHAR
STARTCHAR ae
ENCODING 230
SWIDTH 1105 0
DWIDTH 31 0
BBX 30 24 1 -3
BITMAP
0001555555555540
0008000000000010
0078000000000010
01F4155555555010
03F0100010000010
07E0400010000040
0BC041F8103FFF40
0F8042F8103FFD00
1F4103F810155400
2F0107F810000400
3F050BF415550400
7E04000010000400
BE04000010000400
FE055555502AA400
FE040000103FD000
FE040554102A5540
FE040FF810000010
FE040FF815555010
FE000FF800000010
FE0007F800000010
FF5557FD55555540
FFFF87FFFFFFFF00
FFFE07FFFFFFF800
FFF403FFFFFFE000
ENDCHAR
STARTCHAR ccedilla
ENCODING 231
SWIDTH 728 0
DWIDTH 20 0
BBX 19 28 1 -7
BITMAP
0005555554
0010000004
0080555504
0741000004
1F01000004
3F01015554
BF000BFFD0
FF000BFF40
FF000BFD00
FF00040000
FF00040000
FF00040000
FF00040000
FF00040000
FF01040000
FF01015554
FF01000004
FF40555504
FFD0001004
BFF4004004
7FFFD042A8
2FFFD003E0
0BFFC00740
01AF800800
002FFFE000
003FFF4000
007FFD0000
0015500000
ENDCHAR
STARTCHAR egrave
ENCODING 232
SWIDTH 754 0
DWIDTH 21 0
BBX 20 31 1 -3
BITMAP
001A540000
00A15ABA40
02E0000150
0FE0555410
1FE0000010
1FE4000010
1FFFFA9500
1F95555555
0B00000001
1F00000001
7F01555541
BF01000001
BF01015555
BF010BFFF4
BF010BFFD0
BF01000040
BF01000010
BF01555010
BF01000010
BF01000040
BF010BFF40
BF010BFD00
BF0106A554
BF01000001
BF01555541
BF00000001
BF00000001
BF95555555
BFFFFFFFF4
BFFFFFFF80
7FFFFFFE00
ENDCHAR
STARTCHAR eacute
ENCODING 233
SWIDTH 754 0
DWIDTH 21 0
BBX 20 31 1 -3
BITMAP
00000056A0
0006AEA554
0019000004
00B4155404
02F4000004
0BF4000040
0BF856BF40
0B95555555
0B00000001
1F00000001
7F01555541
BF01000001
BF01015555
BF010BFFF4
BF010BFFD0
BF01000040
BF01000010
BF01555010
BF01000010
BF01000040
BF010BFF40
BF010BFD00
BF0106A554
BF01000001
BF01555541
BF00000001
BF00000001
BF95555555
BFFFFFFFF4
BFFFFFFF80
7FFFFFFE00
ENDCHAR
STARTCHAR ecircumflex
ENCODING 234
SWIDTH 754 0
DWIDTH 21 0
BBX 20 32 1 -3
BITMAP
0000054000
0001501500
0014000050
0060055010
02E0500410
0BE0000010
0FE06BE410
0FFBFFFF90
0F95555555
0F00000001
2F00000001
BF01555541
BF01000001
BF01015555
BF010BFFF4
BF010BFFD0
BF01000040
BF01000010
BF01555010
BF01000010
BF01000040
BF010BFF40
BF010BFD00
BF0106A554
BF01000001
BF01555541
BF00000001
BF00000001
BF95555555
BFFFFFFFF4
BFFFFFFF80
7FFFFFFE00
ENDCHAR
STARTCHAR edieresis
ENCODING 235
SWIDTH 754 0
DWIDTH 21 0
BBX 20 31 1 -3
BITMAP
0015545550
0050028004
02D0038004
0BD0438104
1FD0038004
2FD0038004
2FE0038010
2FFFFFFFFD
2F40000005
1F00000001
2F01555541
BF01000001
BF01015555
BF010BFFF4
BF010BFFD0
BF01000040
BF01000010
BF01555010
BF01000010
BF01000040
BF010BFF40
BF010BFD00
BF0106A554
BF01000001
BF01555541
BF00000001
BF00000001
BF95555555
BFFFFFFFF4
BFFFFFFF80
7FFFFFFE00
ENDCHAR
STARTCHAR igrave
ENCODING 236
SWIDTH 705 0
DWIDTH 20 0
BBX 19 31 0 -3
BITMAP
001A940000
00715ABA90
02E0000160
0BE0155410
0FE0000010
0FF5000010
0FFFFA9500
0FD5555554
0780000004
0780000004
2F81555504
3F80010004
7F80010004
7FFA4102A0
7FFF410380
3FFF410200
1ABF410100
007F410100
007F410100
007F410100
007F410100
007F410100
006A410154
0180010004
0B81555504
2F80000004
3F80000004
7FD5555554
7FFFFFFFE0
7FFFFFFF40
3FFFFFFD00
ENDCHAR
STARTCHAR iacute
ENCODING 237
SWIDTH 705 0
DWIDTH 20 0
BBX 19 31 0 -3
BITMAP
0000005690
0006BA9510
0025000010
01E0555410
07E0000010
0FE0000000
0FF15ABE00
0FD5555554
0F80000004
0F80000004
1F81555504
3F80010004
7F80010004
7FFA4102A0
7FFF410380
3FFF410200
1ABF410100
007F410100
007F410100
007F410100
007F410100
007F410100
006A410154
0180010004
0B81555504
2F80000004
3F80000004
7FD5555554
7FFFFFFFE0
7FFFFFFF40
3FFFFFFD00
ENDCHAR
STARTCHAR icircumflex
ENCODING 238
SWIDTH 705 0
DWIDTH 20 0
BBX 19 32 0 -3
BITMAP
0000054000
0000501500
0004000050
0020055010
01E0500410
07E0000010
0FE06BE410
0FFBFFFF90
0FD5555554
0F80000004
0F80000004
1F81555504
3F80010004
7F80010004
7FFA4102A0
7FFF410380
3FFF410200
1ABF410100
007F410100
007F410100
007F410100
007F410100
007F410100
006A410154
0180010004
0B81555504
2F80000004
3F80000004
7FD5555554
7FFFFFFFE0
7FFFFFFF40
3FFFFFFD00
ENDCHAR
STARTCHAR idieresis
ENCODING 239
SWIDTH 705 0
DWIDTH 20 0
BBX 19 31 0 -3
BITMAP
0015545550
0090064004
02C0034004
0BC0034104
2FC0034004
2FC0034004
2FD0078010
2FFFFFFFF8
2FD0000008
2F80000004
1F81555504
3F80010004
7F80010004
7FFA4102A0
7FFF410380
3FFF410200
1ABF410100
007F410100
007F410100
007F410100
007F410100
007F410100
006A410154
0180010004
0B81555504
2F80000004
3F80000004
7FD5555554
7FFFFFFFE0
7FFFFFFF40
3FFFFFFD00
ENDCHAR
STARTCHAR eth
ENCODING 240
SWIDTH 856 0
DWIDTH 24 0
BBX 23 24 0 -3
BITMAP
001555555500
009000000050
07D000000014
1FD055555004
1FD040000404
1FD040550104
1FD041FF4104
1FD041FF4104
1F00401F4104
1E00400F4104
7E05540F4104
FE00400F4104
FF00401F4104
FFD041FF4104
FFD041BF4104
FFD040000104
2FD040000404
1FD055555004
1FD000000010
1FD000000050
1FE555555A00
1FFFFFFFF800
1FFFFFFFE000
1FFFFFFA4000
ENDCHAR
STARTCHAR ntilde
ENCODING 241
SWIDTH 853 0
DWIDTH 24 0
BBX 22 30 1 -3
BITMAP
000055505400
000500010400
002C00000400
00FC05550400
03FC00000000
03FD69500000
03956FFE5550
07000FFC0010
1F0003FC0010
7F0101FC0410
BF01407C0410
BF01102C0410
BF0104080410
BF0101000410
BF0100400410
BF0100100410
BF0100040410
BF0109050410
BF010B010410
BF010B804410
BF010BE01410
BF010BF80410
BF010BFC0410
BF010BFC0410
BF000BFC0010
BF0006FC0010
BF9556FE5550
BFFFD2FFFF40
BFFF42FFFD00
7FF801FFE000
ENDCHAR
STARTCHAR ograve
ENCODING 242
SWIDTH 837 0
DWIDTH 23 0
BBX 22 31 1 -3
BITMAP
000BEA540000
002856AFE400
01F815005800
03F800550400
07F800000400
07FD40000400
07FFE9400000
03F900000500
009000000140
014015550040
0B0040004010
2F0100001010
7F0107F40010
BF000BFC0410
FF000BFC0410
FF000BFC0410
FF0007FC0410
FF0007FC0410
FF0007FC0410
FF0007FC0410
FF0007FC0410
FF0107F80010
FF0100401010
FF0040004010
FF4015550040
FFC000000040
BFF400000500
7FFFA556B400
2FFFFFFFD000
07FFFFFE0000
006FFFA40000
ENDCHAR
STARTCHAR oacute
ENCODING 243
SWIDTH 837 0
DWIDTH 23 0
BBX 22 31 1 -3
BITMAP
000005ABF400
0007FEA54400
002D40150400
00B815400400
02F800000000
07F800001000
07F8005A9000
07F900000500
07D000000140
024015550040
070040004010
2F0100001010
7F0107F40010
BF000BFC0410
FF000BFC0410
FF000BFC0410
FF0007FC0410
FF0007FC0410
FF0007FC0410
FF0007FC0410
FF0007FC0410
FF0107F80010
FF0100401010
FF0040004010
FF4015550040
FFC000000040
BFF400000500
7FFFA556B400
2FFFFFFFD000
07FFFFFE0000
006FFFA00000
ENDCHAR
STARTCHAR ocircumflex
ENCODING 244
SWIDTH 837 0
DWIDTH 23 0
BBX 22 32 1 -3
BITMAP
000001500000
000054054000
000500001400
001801500400
00B814050400
02F800000400
07F81BF90400
07FEFFFFE400
07FE40005400
07E000000100
038015550040
070040004010
2F0100001010
7F0107F40010
BF000BFC0410
FF000BFC0410
FF000BFC0410
FF0007FC0410
FF0007FC0410
FF0007FC0410
FF0007FC0410
FF0007FC0410
FF0107F80010
FF0100401010
FF0040004010
FF4015550040
FFC000000040
BFF400000500
7FFFA556B400
2FFFFFFFD000
07FFFFFE0000
006FFFA40000
ENDCHAR
STARTCHAR otilde
ENCODING 245
SWIDTH 837 0
DWIDTH 23 0
BBX 22 31 1 -3
BITMAP
000055405000
000500054400
002800000400
00B815400400
03F800150400
07F800000400
07F96A505000
07FFA5569000
07F400000500
02C015550040
074040004040
2F0100001010
7F0107F40010
BF000BFC0410
FF000BFC0410
FF000BFC0410
FF0007FC0410
FF0007FC0410
FF0007FC0410
FF0007FC0410
FF0007FC0410
FF0107F80010
FF0100401010
FF0040004010
FF4015550040
FFC000000040
BFF400000500
7FFFA556B400
2FFFFFFFD000
07FFFFFE0000
006FFFA40000
ENDCHAR
STARTCHAR odieresis
ENCODING 246
SWIDTH 837 0
DWIDTH 23 0
BBX 22 31 1 -3
BITMAP
000555155400
002001900100
01F001D00100
07F041D04100
0FF001D00100
0FF001D00100
0FF001D00400
0FFFFAABF400
0FF900001500
02D015550140
074040004040
2F0100001010
7F0107F40010
BF000BFC0410
FF000BFC0410
FF000BFC0410
FF0007FC0410
FF0007FC0410
FF0007FC0410
FF0007FC0410
FF0007FC0410
FF0107F80010
FF0100401010
FF0040004010
FF4015550040
FF8000000040
BFF400000500
7FFFA556B400
2FFFFFFFD000
07FFFFFE0000
006FFFA40000
ENDCHAR
STARTCHAR divide
ENCODING 247
SWIDTH 834 0
DWIDTH 23 0
BBX 21 22 1 -2
BITMAP
000015550000
000090010000
0002D0010000
000BD0410000
002FD0010000
002FD0010000
002FE5550000
006AAAA95540
024000000040
1F4155555040
7F4000000040
BF4000000040
BFFFFFFFFF40
BFFFE002F800
BFFFD001E000
000BD0410000
002FD0010000
002FD0010000
002FE5550000
002FFFF80000
002FFFD00000
001FFF400000
ENDCHAR
STARTCHAR oslash
ENCODING 248
SWIDTH 837 0
DWIDTH 23 0
BBX 22 29 1 -5
BITMAP
000000015500
000000040040
000000180100
000155500100
001400004100
004015550040
024140000000
1F0100000010
3F040B800410
BF041F400410
FF041E000410
FF041D010410
FF041C050410
FF0418090410
FF04100D0410
FF04001D0410
FF04003D0410
FF04007D0410
FF0000A81010
FF0000005010
FF4015550040
FFD040000040
BFF000000A00
7FD006AAF400
3FD00BFFD000
0FFABFFE0000
1FFFFFA40000
2FFD00000000
155400000000
ENDCHAR
STARTCHAR ugrave
ENCODING 249
SWIDTH 846 0
DWIDTH 24 0
BBX 22 31 1 -3
BITMAP
0006A5000000
002856AE9000
00B800005400
03F815550400
07F800000400
07F900000400
07FFFEA54000
07555FFD5550
07000BFC0010
2F0005FC0010
BF0106FC0410
FF0107FC0410
FF0107FC0410
FF0107FC0410
FF0107FC0410
FF0107FC0410
FF0107FC0410
FF0107FC0410
FF0107FC0410
FF0107FC0410
FF0107FC0410
FF0102A40410
FF0100001010
FF4040005010
FF4015550040
BFD000000040
BFF400000500
3FFFA556B400
1FFFFFFFD000
07FFFFFE0000
006BFFA40000
ENDCHAR
STARTCHAR uacute
ENCODING 250
SWIDTH 846 0
DWIDTH 24 0
BBX 22 31 1 -3
BITMAP
00000015A800
0001ABA94400
000A40000400
002C05550400
01FC00000400
02FC00001000
02FD16AFD000
02555FFD5550
07000ABC0010
2F0004BC0010
BF0106FC0410
FF0107FC0410
FF0107FC0410
FF0107FC0410
FF0107FC0410
FF0107FC0410
FF0107FC0410
FF0107FC0410
FF0107FC0410
FF0107FC0410
FF0107FC0410
FF0102A40410
FF0100001010
FF4040005010
FF4015550040
BFD000000040
BFF400000500
3FFFA556B400
1FFFFFFFD000
07FFFFFE0000
006BFFA40000
ENDCHAR
STARTCHAR ucircumflex
ENCODING 251
SWIDTH 846 0
DWIDTH 24 0
BBX 22 32 1 -3
BITMAP
000001500000
000054014000
000100000400
001805540400
007810010400
01F801500400
03FD6FFE5400
03FFFFFFF400
03555FFD5550
07000BFC0010
2F0004BC0010
BF0106FC0410
FF0107FC0410
FF0107FC0410
FF0107FC0410
FF0107FC0410
FF0107FC0410
FF0107FC0410
FF0107FC0410
FF0107FC0410
FF0107FC0410
FF0107FC0410
FF0106F80410
FF0100001010
FF4040005010
FF4015550040
BFD000000040
BFF400000500
3FFFA556B400
1FFFFFFFD000
07FFFFFE0000
006BFFA40000
ENDCHAR
STARTCHAR udieresis
ENCODING 252
SWIDTH 846 0
DWIDTH 24 0
BBX 22 31 1 -3
BITMAP
000555155400
002001900100
00F000D00100
07F000D04100
0BF000D00100
0BF000D00100
0BF401E00400
0BFFFFFFFFD0
0F400BFD0050
2F000BFC0010
BF0005FC0010
FF0106FC0410
FF0107FC0410
FF0107FC0410
FF0107FC0410
FF0107FC0410
FF0107FC0410
FF0107FC0410
FF0107FC0410
FF0107FC0410
FF0107FC0410
FF0106F80410
FF0100001010
FF0040005010
FF4015550000
BFC000000040
BFF400000500
3FFFA556B400
1FFFFFFFD000
07FFFFFE0000
006BFFA40000
ENDCHAR
STARTCHAR yacute
ENCODING 253
SWIDTH 805 0
DWIDTH 23 0
BBX 22 31 0 -3
BITMAP
00000005A800
0001ABA95100
000650000100
001D05550100
00BD00000100
01FD00001000
01FE15ABD000
01955BFE5550
024007AE0010
0F40043E0010
3F4105FE0410
7F4105FE0410
7F4105FE0410
7F4101FD0410
7F8102FD0410
7F8041F80410
7FC040A01010
7FE010004040
7FF404000140
3FFC04010100
1FFE01540400
0BFF80101000
02FFD0101000
00FFE0104000
007FE0104000
002FE0004000
000FF0004000
000FF5554000
000FFFFD0000
000FFFF40000
000BFF800000
ENDCHAR
STARTCHAR thorn
ENCODING 254
SWIDTH 792 0
DWIDTH 22 0
BBX 21 24 1 -3
BITMAP
005554000000
070004000000
1F0004000000
7F0101555000
BF0100000400
BF0155550100
BF0100004040
BF0100000040
BF0101401040
BF010BF01040
BF010BF41040
BF010BF41040
BF010BF01040
BF0100000040
BF0100004040
BF0155550100
BF0100000400
BF010155A000
BF0007FF8000
BF0007FD0000
BF955BA00000
BFFFD0000000
BFFF40000000
7FF800000000
ENDCHAR
STARTCHAR ydieresis
ENCODING 255
SWIDTH 805 0
DWIDTH 23 0
BBX 22 31 0 -3
BITMAP
000555055500
001800600100
00B800A00100
02F810A04100
07F800A00100
07F800A00100
07F800F00100
07FFFFFFFFE0
078007FE0020
1F4007FE0010
7F4005BE0010
7F4105FE0410
7F4105FE0410
7F4105FE0410
7F4102FD0410
7F8101F80410
7F8040B01000
7FD010004000
7FF404004000
3FFC04010100
1FFE01540400
0BFF40101000
02FFD0101000
00FFE0104000
007FE0104000
002FE0004000
000FF0004000
000FF5554000
000FFFFD0000
000FFFF40000
000BFF800000
ENDCHAR
STARTCHAR Amacron
ENCODING 256
SWIDTH 830 0
DWIDTH 23 0
BBX 22 30 1 -3
BITMAP
000555555000
001800000400
007815550400
02F800000400
07F800000400
07F800000400
07FFFFFFE000
07FE40005000
03FC00001000
00B805540400
02F410010400
03F000010100
07D041D04100
0BC043E04100
0F8107F01040
1F4107F01040
3F010AA41040
7F0400001010
BE0400000410
FE0555555410
FE0400000410
FE0405540410
FE040FF80410
FE040FF80410
FE000FF80010
FE0007F80010
FF5553FD5550
FFFF83FFFF40
FFFE03FFF800
FFF402FFE000
ENDCHAR
STARTCHAR amacron
ENCODING 257
SWIDTH 830 0
DWIDTH 23 0
BBX 22 30 1 -3
BITMAP
000555555000
001800000400
007815550400
02F800000400
07F800000400
07F800000400
07FFFFFFE000
07FE40005000
03FC00001000
00B805540400
02F410010400
03F000010100
07D041D04100
0BC043E04100
0F8107F01040
1F4107F01040
3F010AA41040
7F0400001010
BE0400000410
FE0555555410
FE0400000410
FE0405540410
FE040FF80410
FE040FF80410
FE000FF80010
FE0007F80010
FF5553FD5550
FFFF83FFFF40
FFFE03FFF800
FFF402FFE000
ENDCHAR
STARTCHAR Abreve
ENCODING 258
SWIDTH 830 0
DWIDTH 23 0
BBX 22 32 1 -3
BITMAP
000554055400
001400200400
00B402F00400
02F441504400
07F410010400
0BF805540000
0BFD00000000
07FF90010000
07FFFFFFD000
02FE00002000
007C00000400
00B805540800
02F410010400
03F000010100
07D041D04100
0BC043E04040
0F8107F01040
1F4107F01040
3F010AA41010
7E0400001010
BE0400000410
FE0555555410
FE0400000410
FE0405540410
FE040FF80410
FE040FF80410
FE000FF80010
FE0007F80010
FF5553FD5540
FFFF83FFFF40
FFFE03FFF800
FFF402FFE000
ENDCHAR
STARTCHAR abreve
ENCODING 259
SWIDTH 830 0
DWIDTH 23 0
BBX 22 32 1 -3
BITMAP
000554055400
001400200400
00B402F00400
02F441504400
07F410010400
0BF805540000
0BFD00000000
07FF90010000
07FFFFFFD000
02FE00002000
007C00000400
00B805540800
02F410010400
03F000010100
07D041D04100
0BC043E04040
0F8107F01040
1F4107F01040
3F010AA41010
7E0400001010
BE0400000410
FE0555555410
FE0400000410
FE0405540410
FE040FF80410
FE040FF80410
FE000FF80010
FE0007F80010
FF5553FD5540
FFFF83FFFF40
FFFE03FFF800
FFF402FFE000
ENDCHAR
STARTCHAR Aogonek
ENCODING 260
SWIDTH 830 0
DWIDTH 23 0
BBX 22 30 1 -9
BITMAP
000155555000
000800001000
002800000400
00B405540400
02F010010000
03E000010100
07D041D04100
0BC043E04040
0F8107F01040
1F4107F01040
3F010AA41010
7E0400001010
BE0400000410
FE0555555410
FE0400000410
FE0405540410
FE040FF80410
FE040FF80410
FE000FF81010
FE0007F80010
FF5553F84140
FFFF83F44140
FFFE07F44010
FFF407F45410
00000BF40010
00000BFD0010
00000BFFFF40
000007FFFD00
000002FFF400
000000554000
ENDCHAR
STARTCHAR aogonek
ENCODING 261
SWIDTH 830 0
DWIDTH 23 0
BBX 22 30 1 -9
BITMAP
000155555000
000800001000
002800000400
00B405540400
02F010010000
03E000010100
07D041D04100
0BC043E04040
0F8107F01040
1F4107F01040
3F010AA41010
7E0400001010
BE0400000410
FE0555555410
FE0400000410
FE0405540410
FE040FF80410
FE040FF80410
FE000FF81010
FE0007F80010
FF5553F84140
FFFF83F44140
FFFE07F44010
FFF407F45410
00000BF40010
00000BFD0010
00000BFFFF40
000007FFFD00
000002FFF400
000000554000
ENDCHAR
STARTCHAR Cacute
ENCODING 262
SWIDTH 728 0
DWIDTH 20 0
BBX 19 31 1 -3
BITMAP
00000015A4
0001AFA544
0009400004
007C155504
01FC000004
03FC000000
03FC16AF80
03FE555554
03E0000004
0380000004
0240555504
0B01000004
2F01000004
7F0007FFE0
BF000BFF80
FF000BFD00
FF00055400
FF00040000
FF00040000
FF00040000
FF00040000
FF01040000
FF01015554
FF01000004
FF40555504
FF80000004
BFE0000004
7FFE955554
2FFFFFFFE0
0BFFFFFF40
01BFFFFD00
ENDCHAR
STARTCHAR cacute
ENCODING 263
SWIDTH 728 0
DWIDTH 20 0
BBX 19 31 1 -3
BITMAP
00000015A4
0001AFA544
0009400004
007C155504
01FC000004
03FC000000
03FC16AF80
03FE555554
03E0000004
0380000004
0240555504
0B01000004
2F01000004
7F0007FFE0
BF000BFF80
FF000BFD00
FF00055400
FF00040000
FF00040000
FF00040000
FF00040000
FF01040000
FF01015554
FF01000004
FF40555504
FF80000004
BFE0000004
7FFE955554
2FFFFFFFE0
0BFFFFFF40
01BFFFFD00
ENDCHAR
STARTCHAR Ccircumflex
ENCODING 264
SWIDTH 728 0
DWIDTH 20 0
BBX 19 32 1 -3
BITMAP
0000055000
0000500500
0004000050
0020055010
00F0100410
03F0000010
0BF05BE410
0FFBFFFF90
0FFE555554
0FE0000004
0B80000004
0240555504
0B01000004
2F01000004
7F0007FFE0
BF000BFF80
FF000BFD00
FF00055400
FF00040000
FF00040000
FF00040000
FF00040000
FF01040000
FF01015554
FF01000004
FF40555504
FF80000004
BFE0000004
7FFE955554
2FFFFFFFE0
0BFFFFFF40
01BFFFFD00
ENDCHAR
STARTCHAR ccircumflex
ENCODING 265
SWIDTH 728 0
DWIDTH 20 0
BBX 19 32 1 -3
BITMAP
0000055000
0000500500
0004000050
0020055010
00F0100410
03F0000010
0BF05BE410
0FFBFFFF90
0FFE555554
0FE0000004
0B80000004
0240555504
0B01000004
2F01000004
7F0007FFE0
BF000BFF80
FF000BFD00
FF00055400
FF00040000
FF00040000
FF00040000
FF00040000
FF01040000
FF01015554
FF01000004
FF40555504
FF80000004
BFE0000004
7FFE955554
2FFFFFFFE0
0BFFFFFF40
01BFFFFD00
ENDCHAR
STARTCHAR Cdotaccent
ENCODING 266
SWIDTH 728 0
DWIDTH 20 0
BBX 19 31 1 -3
BITMAP
0000155500
0000800100
0007C04100
001FC04100
003FC00100
003FC00100
003FC00000
003E555554
0020000004
0080000004
0240555504
1F01000004
3F01000004
BF0007FFE0
FF000BFF80
FF000BFD00
FF00055400
FF00040000
FF00040000
FF00040000
FF00040000
FF01040000
FF01015554
FF01000004
FF40555504
FF80000004
BFE0000004
7FFE955554
2FFFFFFFE0
0BFFFFFF40
01BFFFFD00
ENDCHAR
STARTCHAR cdotaccent
ENCODING 267
SWIDTH 728 0
DWIDTH 20 0
BBX 19 31 1 -3
BITMAP
0000155500
0000800100
0007C04100
001FC04100
003FC00100
003FC00100
003FC00000
003E555554
0020000004
0080000004
0240555504
1F01000004
3F01000004
BF0007FFE0
FF000BFF80
FF000BFD00
FF00055400
FF00040000
FF00040000
FF00040000
FF00040000
FF01040000
FF01015554
FF01000004
FF40555504
FF80000004
BFE0000004
7FFE955554
2FFFFFFFE0
0BFFFFFF40
01BFFFFD00
ENDCHAR
STARTCHAR Ccaron
ENCODING 268
SWIDTH 728 0
DWIDTH 20 0
BBX 19 31 1 -3
BITMAP
0015500550
00B0055010
02F0000010
0BF0055010
0FF0000000
0FFE000140
0FFFE41D00
0BFE555554
01E0000004
0040000004
0240555504
0B01000004
2F01000004
7F0007FFE0
BF000BFF80
FF000BFD00
FF00055400
FF00040000
FF00040000
FF00040000
FF00040000
FF01040000
FF01015554
FF01000004
FF40555504
FF80000004
BFE0000004
7FFE955554
2FFFFFFFE0
0BFFFFFF40
01BFFFFD00
ENDCHAR
STARTCHAR ccaron
ENCODING 269
SWIDTH 728 0
DWIDTH 20 0
BBX 19 31 1 -3
BITMAP
0015500550
00B0055010
02F0000010
0BF0055010
0FF0000000
0FFE000140
0FFFE41D00
0BFE555554
01E0000004
0040000004
0240555504
0B01000004
2F01000004
7F0007FFE0
BF000BFF80
FF000BFD00
FF00055400
FF00040000
FF00040000
FF00040000
FF00040000
FF01040000
FF01015554
FF01000004
FF40555504
FF80000004
BFE0000004
7FFE955554
2FFFFFFFE0
0BFFFFFF40
01BFFFFD00
ENDCHAR
STARTCHAR Dcaron
ENCODING 270
SWIDTH 846 0
DWIDTH 24 0
BBX 22 31 1 -3
BITMAP
000950015400
002801540400
01F800010400
03F805540400
03FC00000000
03FF40004000
03FFF91A4000
025555555400
070000000140
1F0000000040
7F0155554010
BF0100001010
BF0100000410
BF0106A80410
BF0107FC0410
BF0107FC0410
BF0107FC0410
BF0106FC0410
BF0106FC0410
BF0106FC0410
BF0106FC0410
BF0106FC0410
BF0106A40410
BF0100001010
BF0155554010
BF0000000040
BF0000000100
BF9555556800
BFFFFFFFE000
BFFFFFFF4000
7FFFFFE40000
ENDCHAR
STARTCHAR dcaron
ENCODING 271
SWIDTH 846 0
DWIDTH 24 0
BBX 22 31 1 -3
BITMAP
000950015400
002801540400
01F800010400
03F805540400
03FC00000000
03FF40004000
03FFF91A4000
025555555400
070000000140
1F0000000040
7F0155554010
BF0100001010
BF0100000410
BF0106A80410
BF0107FC0410
BF0107FC0410
BF0107FC0410
BF0106FC0410
BF0106FC0410
BF0106FC0410
BF0106FC0410
BF0106FC0410
BF0106A40410
BF0100001010
BF0155554010
BF0000000040
BF0000000100
BF9555556800
BFFFFFFFE000
BFFFFFFF4000
7FFFFFE40000
ENDCHAR
STARTCHAR Dcroat
ENCODING 272
SWIDTH 856 0
DWIDTH 24 0
BBX 23 24 0 -3
BITMAP
001555555500
009000000050
07D000000014
1FD055555004
1FD040000404
1FD040550104
1FD041FF4104
1FD041FF4104
1F00401F4104
1E00400F4104
7E05540F4104
FE00400F4104
FF00401F4104
FFD041FF4104
FFD041BF4104
FFD040000104
2FD040000404
1FD055555004
1FD000000010
1FD000000050
1FE555555A00
1FFFFFFFF800
1FFFFFFFE000
1FFFFFFA4000
ENDCHAR
STARTCHAR dcroat
ENCODING 273
SWIDTH 856 0
DWIDTH 24 0
BBX 23 24 0 -3
BITMAP
001555555500
009000000050
07D000000014
1FD055555004
1FD040000404
1FD040550104
1FD041FF4104
1FD041FF4104
1F00401F4104
1E00400F4104
7E05540F4104
FE00400F4104
FF00401F4104
FFD041FF4104
FFD041BF4104
FFD040000104
2FD040000404
1FD055555004
1FD000000010
1FD000000050
1FE555555A00
1FFFFFFFF800
1FFFFFFFE000
1FFFFFFA4000
ENDCHAR
STARTCHAR Emacron
ENCODING 274
SWIDTH 754 0
DWIDTH 21 0
BBX 20 30 1 -3
BITMAP
0005555550
0060000010
01E0555410
07E0000010
0FE0000010
0FF0000010
0F95555555
0F00000001
0F00000001
7F01555541
BF01000001
BF01015555
BF010BFFF4
BF010BFFD0
BF01000040
BF01000010
BF01555010
BF01000010
BF01000040
BF010BFF40
BF010BFD00
BF0106A554
BF01000001
BF01555541
BF00000001
BF00000001
BF95555555
BFFFFFFFF4
BFFFFFFF80
7FFFFFFE00
ENDCHAR
STARTCHAR emacron
ENCODING 275
SWIDTH 754 0
DWIDTH 21 0
BBX 20 30 1 -3
BITMAP
0005555550
0060000010
01E0555410
07E0000010
0FE0000010
0FF0000010
0F95555555
0F00000001
0F00000001
7F01555541
BF01000001
BF01015555
BF010BFFF4
BF010BFFD0
BF01000040
BF01000010
BF01555010
BF01000010
BF01000040
BF010BFF40
BF010BFD00
BF0106A554
BF01000001
BF01555541
BF00000001
BF00000001
BF95555555
BFFFFFFFF4
BFFFFFFF80
7FFFFFFE00
ENDCHAR
STARTCHAR Ebreve
ENCODING 276
SWIDTH 754 0
DWIDTH 21 0
BBX 20 32 1 -3
BITMAP
0005541550
0020046004
01F006E004
07F0414104
0FF0400100
0FF4155400
0FFC000000
0FFF900500
0B95555555
0700000001
1F00000001
7F01555541
BF01000001
BF01015555
BF010BFFF4
BF010BFFD0
BF01000040
BF01000010
BF01555010
BF01000010
BF01000040
BF010BFF40
BF010BFD00
BF0106A554
BF01000001
BF01555541
BF00000001
BF00000001
BF95555555
BFFFFFFFF4
BFFFFFFF80
7FFFFFFE00
ENDCHAR
STARTCHAR ebreve
ENCODING 277
SWIDTH 754 0
DWIDTH 21 0
BBX 20 32 1 -3
BITMAP
0005541550
0020046004
01F006E004
07F0414104
0FF0400100
0FF4155400
0FFC000000
0FFF900500
0B95555555
0700000001
1F00000001
7F01555541
BF01000001
BF01015555
BF010BFFF4
BF010BFFD0
BF01000040
BF01000010
BF01555010
BF01000010
BF01000040
BF010BFF40
BF010BFD00
BF0106A554
BF01000001
BF01555541
BF00000001
BF00000001
BF95555555
BFFFFFFFF4
BFFFFFFF80
7FFFFFFE00
ENDCHAR
STARTCHAR Edotaccent
ENCODING 278
SWIDTH 754 0
DWIDTH 21 0
BBX 20 31 1 -3
BITMAP
0000555400
0002400400
000F010400
007F010400
00BF000400
00BF000400
00BF400400
0055555555
0700000001
1F00000001
7F01555541
BF01000001
BF01015555
BF010BFFF4
BF010BFFD0
BF01000040
BF01000010
BF01555010
BF01000010
BF01000040
BF010BFF40
BF010BFD00
BF0106A554
BF01000001
BF01555541
BF00000001
BF00000001
BF95555555
BFFFFFFFF4
BFFFFFFF80
7FFFFFFE00
ENDCHAR
STARTCHAR edotaccent
ENCODING 279
SWIDTH 754 0
DWIDTH 21 0
BBX 20 31 1 -3
BITMAP
0000555400
0002400400
000F010400
007F010400
00BF000400
00BF000400
00BF400400
0055555555
0700000001
1F00000001
7F01555541
BF01000001
BF01015555
BF010BFFF4
BF010BFFD0
BF01000040
BF01000010
BF01555010
BF01000010
BF01000040
BF010BFF40
BF010BFD00
BF0106A554
BF01000001
BF01555541
BF00000001
BF00000001
BF95555555
BFFFFFFFF4
BFFFFFFF80
7FFFFFFE00
ENDCHAR
STARTCHAR Eogonek
ENCODING 280
SWIDTH 754 0
DWIDTH 21 0
BBX 20 30 1 -9
BITMAP
0055555555
0700000001
1F00000001
7F01555541
BF01000001
BF01015555
BF010BFFF4
BF010BFFD0
BF01000040
BF01000010
BF01555010
BF01000010
BF01000040
BF010BFF40
BF010BFD00
BF0106A554
BF01000001
BF01555541
BF00000101
BF00000401
BF95554414
BFFFFF4424
BFFFFF4401
7FFFFF4541
00007F4001
0000BFD001
0000BFFFF4
0000BFFFD0
00003FFF40
0000055400
ENDCHAR
STARTCHAR eogonek
ENCODING 281
SWIDTH 754 0
DWIDTH 21 0
BBX 20 30 1 -9
BITMAP
0055555555
0700000001
1F00000001
7F01555541
BF01000001
BF01015555
BF010BFFF4
BF010BFFD0
BF01000040
BF01000010
BF01555010
BF01000010
BF01000040
BF010BFF40
BF010BFD00
BF0106A554
BF01000001
BF01555541
BF00000101
BF00000401
BF95554414
BFFFFF4424
BFFFFF4401
7FFFFF4541
00007F4001
0000BFD001
0000BFFFF4
0000BFFFD0
00003FFF40
0000055400
ENDCHAR
STARTCHAR Ecaron
ENCODING 282
SWIDTH 754 0
DWIDTH 21 0
BBX 20 31 1 -3
BITMAP
0015500550
00B0055010
02F0000410
0BF0055010
0FF0000000
0FFE000140
0FFFE41D00
0B95555555
0300000001
1F00000001
7F01555541
BF01000001
BF01015555
BF010BFFF4
BF010BFFD0
BF01000040
BF01000010
BF01555010
BF01000010
BF01000040
BF010BFF40
BF010BFD00
BF0106A554
BF01000001
BF01555541
BF00000001
BF00000001
BF95555555
BFFFFFFFF4
BFFFFFFF80
7FFFFFFE00
ENDCHAR
STARTCHAR ecaron
ENCODING 283
SWIDTH 754 0
DWIDTH 21 0
BBX 20 31 1 -3
BITMAP
0015500550
00B0055010
02F0000410
0BF0055010
0FF0000000
0FFE000140
0FFFE41D00
0B95555555
0300000001
1F00000001
7F01555541
BF01000001
BF01015555
BF010BFFF4
BF010BFFD0
BF01000040
BF01000010
BF01555010
BF01000010
BF01000040
BF010BFF40
BF010BFD00
BF0106A554
BF01000001
BF01555541
BF00000001
BF00000001
BF95555555
BFFFFFFFF4
BFFFFFFF80
7FFFFFFE00
ENDCHAR
STARTCHAR Gcircumflex
ENCODING 284
SWIDTH 808 0
DWIDTH 23 0
BBX 21 32 1 -3
BITMAP
000001540000
000014014000
000100001400
000801540400
002C04010400
00FC00000400
02FC16F90400
03FEFFFFE400
03FE55555400
03E000000400
038000000400
024055550400
0B0100000400
2F0100000400
7F0107FFF000
BF010BFF8000
FF010BFE0000
FF0105595540
FF0104240040
FF0104B40040
FF0107F41040
FF010BF41040
FF0107F41040
FF0100001040
FF0140001040
FF4015555040
FF8000000040
BFE000000040
7FFE95555540
2FFFFFFFFD00
0BFFFFFFF400
01BFFFFFD000
ENDCHAR
STARTCHAR gcircumflex
ENCODING 285
SWIDTH 808 0
DWIDTH 23 0
BBX 21 32 1 -3
BITMAP
000001540000
000014014000
000100001400
000801540400
002C04010400
00FC00000400
02FC16F90400
03FEFFFFE400
03FE55555400
03E000000400
038000000400
024055550400
0B0100000400
2F0100000400
7F0107FFF000
BF010BFF8000
FF010BFE0000
FF0105595540
FF0104240040
FF0104B40040
FF0107F41040
FF010BF41040
FF0107F41040
FF0100001040
FF0140001040
FF4015555040
FF8000000040
BFE000000040
7FFE95555540
2FFFFFFFFD00
0BFFFFFFF400
01BFFFFFD000
ENDCHAR
STARTCHAR Gbreve
ENCODING 286
SWIDTH 808 0
DWIDTH 23 0
BBX 21 32 1 -3
BITMAP
000154055400
001801240400
007802B40400
01F840504400
03F810014400
07FC05540000
07FE00000000
07FFD4010000
03FE55555400
01E000000400
004000000400
024055550400
0B0100000400
2F0100000400
7F0107FFE000
BF010BFF8000
FF010BFE0000
FF0105595540
FF0104240040
FF0104B40040
FF0107F41040
FF010BF41040
FF0107F41040
FF0100001040
FF0140001040
FF4015555040
FF8000000040
BFE000000040
7FFE95555540
2FFFFFFFFD00
0BFFFFFFF400
01BFFFFFD000
ENDCHAR
STARTCHAR gbreve
ENCODING 287
SWIDTH 808 0
DWIDTH 23 0
BBX 21 32 1 -3
BITMAP
000154055400
001801240400
007802B40400
01F840504400
03F810014400
07FC05540000
07FE00000000
07FFD4010000
03FE55555400
01E000000400
004000000400
024055550400
0B0100000400
2F0100000400
7F0107FFE000
BF010BFF8000
FF010BFE0000
FF0105595540
FF0104240040
FF0104B40040
FF0107F41040
FF010BF41040
FF0107F41040
FF0100001040
FF0140001040
FF4015555040
FF8000000040
BFE000000040
7FFE95555540
2FFFFFFFFD00
0BFFFFFFF400
01BFFFFFD000
ENDCHAR
STARTCHAR Gdotaccent
ENCODING 288
SWIDTH 808 0
DWIDTH 23 0
BBX 21 31 1 -3
BITMAP
000015550000
000060004000
0002E0404000
000BE0404000
001FE0004000
001FE0000000
001FE0010000
001E55555400
001000000400
004000000400
024055550400
0F0100000400
3F0100000400
BF0107FFE000
FF010BFF8000
FF010BFE0000
FF0105595540
FF0104240040
FF0104B40040
FF0107F41040
FF010BF41040
FF0107F41040
FF0100001040
FF0140001040
FF4015555040
FF8000000040
BFE000000040
7FFE95555540
2FFFFFFFFD00
0BFFFFFFF400
01BFFFFFD000
ENDCHAR
STARTCHAR gdotaccent
ENCODING 289
SWIDTH 808 0
DWIDTH 23 0
BBX 21 31 1 -3
BITMAP
000015550000
000060004000
0002E0404000
000BE0404000
001FE0004000
001FE0000000
001FE0010000
001E55555400
001000000400
004000000400
024055550400
0F0100000400
3F0100000400
BF0107FFE000
FF010BFF8000
FF010BFE0000
FF0105595540
FF0104240040
FF0104B40040
FF0107F41040
FF010BF41040
FF0107F41040
FF0100001040
FF0140001040
FF4015555040
FF8000000040
BFE000000040
7FFE95555540
2FFFFFFFFD00
0BFFFFFFF400
01BFFFFFD000
ENDCHAR
STARTCHAR Gcommaaccent
ENCODING 290
SWIDTH 808 0
DWIDTH 23 0
BBX 21 34 1 -13
BITMAP
000555555400
001000000400
008000000400
034055550400
1F0100000400
3F0100000400
BF0107FFE000
FF010BFF8000
FF010BFE0000
FF0105595540
FF0104240040
FF0104B40040
FF0106F40040
FF010BF41040
FF010BF41040
FF0106A01040
FF0100001040
FF4140001040
FF8015555040
BFE000000040
7FF940000000
2FFFFFFFFD00
0BFFE555F400
01BFD000D000
000BD1544000
001FD0044000
001FE0044000
001FFF844000
001FF0110000
001FE1510000
000BF4140000
000FFFD00000
000FFF400000
000FF8000000
ENDCHAR
STARTCHAR gcommaaccent
ENCODING 291
SWIDTH 808 0
DWIDTH 23 0
BBX 21 34 1 -13
BITMAP
000555555400
001000000400
008000000400
034055550400
1F0100000400
3F0100000400
BF0107FFE000
FF010BFF8000
FF010BFE0000
FF0105595540
FF0104240040
FF0104B40040
FF0106F40040
FF010BF41040
FF010BF41040
FF0106A01040
FF0100001040
FF4140001040
FF8015555040
BFE000000040
7FF940000000
2FFFFFFFFD00
0BFFE555F400
01BFD000D000
000BD1544000
001FD0044000
001FE0044000
001FFF844000
001FF0110000
001FE1510000
000BF4140000
000FFFD00000
000FFF400000
000FF8000000
ENDCHAR
STARTCHAR Hcircumflex
ENCODING 292
SWIDTH 859 0
DWIDTH 24 0
BBX 22 32 1 -3
BITMAP
000001540000
000014014000
000100001400
000C01540400
007C04010400
01FC00000400
03FC16F90400
03FEFFFFE400
03955BFE5550
070007FD0010
1F0004BD0010
7F0105FD0410
BF0106FD0410
BF0106FD0410
BF0106FD0410
BF0106A80410
BF0100000410
BF0100000410
BF0155555410
BF0100000410
BF0100000410
BF0105540410
BF0107FD0410
BF0107FD0410
BF0107FD0410
BF0106FD0410
BF0006FD0010
BF0006FD0010
BF9556FE5550
BFFFE2FFFF40
BFFF42FFFD00
7FF901FFF400
ENDCHAR
STARTCHAR hcircumflex
ENCODING 293
SWIDTH 859 0
DWIDTH 24 0
BBX 22 32 1 -3
BITMAP
000001540000
000014014000
000100001400
000C01540400
007C04010400
01FC00000400
03FC16F90400
03FEFFFFE400
03955BFE5550
070007FD0010
1F0004BD0010
7F0105FD0410
BF0106FD0410
BF0106FD0410
BF0106FD0410
BF0106A80410
BF0100000410
BF0100000410
BF0155555410
BF0100000410
BF0100000410
BF0105540410
BF0107FD0410
BF0107FD0410
BF0107FD0410
BF0106FD0410
BF0006FD0010
BF0006FD0010
BF9556FE5550
BFFFE2FFFF40
BFFF42FFFD00
7FF901FFF400
ENDCHAR
STARTCHAR Hbar
ENCODING 294
SWIDTH 879 0
DWIDTH 25 0
BBX 25 24 0 -3
BITMAP
00155500555400
00900102800400
03D0011F800400
0F90416A410100
1F004000010040
1F004000010040
2F015555555040
BF004000010040
BF404055010140
BFD041FF810500
BFD041FF810400
BFD04000010400
1FD04000010400
1FD05555550400
1FD04000010400
1FD04000010400
1FD04055410400
1FD041FF810400
1FD001FF800400
1FD001FF800400
1FE5557FD55400
1FFFF87FFFE000
1FFFD07FFF8000
1FFF403FFD0000
ENDCHAR
STARTCHAR hbar
ENCODING 295
SWIDTH 879 0
DWIDTH 25 0
BBX 25 24 0 -3
BITMAP
00155500555400
00900102800400
03D0011F800400
0F90416A410100
1F004000010040
1F004000010040
2F015555555040
BF004000010040
BF404055010140
BFD041FF810500
BFD041FF810400
BFD04000010400
1FD04000010400
1FD05555550400
1FD04000010400
1FD04000010400
1FD04055410400
1FD041FF810400
1FD001FF800400
1FD001FF800400
1FE5557FD55400
1FFFF87FFFE000
1FFFD07FFF8000
1FFF403FFD0000
ENDCHAR
STARTCHAR Itilde
ENCODING 296
SWIDTH 705 0
DWIDTH 20 0
BBX 19 30 0 -3
BITMAP
0001554150
0014001410
00A0000010
02E0555410
0FE0000000
0FF1A54000
0FD5555554
0F80000004
0F80000004
1F81555504
3F80010004
7F80010004
7FFA4102A0
7FFF410380
3FFF410200
1ABF410100
007F410100
007F410100
007F410100
007F410100
007F410100
006A410154
0180010004
0B81555504
2F80000004
3F80000004
7FD5555554
7FFFFFFFE0
7FFFFFFF40
3FFFFFFD00
ENDCHAR
STARTCHAR itilde
ENCODING 297
SWIDTH 705 0
DWIDTH 20 0
BBX 19 30 0 -3
BITMAP
0001554150
0014001410
00A0000010
02E0555410
0FE0000000
0FF1A54000
0FD5555554
0F80000004
0F80000004
1F81555504
3F80010004
7F80010004
7FFA4102A0
7FFF410380
3FFF410200
1ABF410100
007F410100
007F410100
007F410100
007F410100
007F410100
006A410154
0180010004
0B81555504
2F80000004
3F80000004
7FD5555554
7FFFFFFFE0
7FFFFFFF40
3FFFFFFD00
ENDCHAR
STARTCHAR Imacron
ENCODING 298
SWIDTH 705 0
DWIDTH 20 0
BBX 19 30 0 -3
BITMAP
0005555550
0060000010
01E0555410
07E0000010
0FE0000010
0FF0000010
0FFFFFFFF8
0FD0000008
0F80000004
1F81555504
3F80010004
7F80010004
7FFA4102A0
7FFF410380
3FFF410200
1ABF410100
007F410100
007F410100
007F410100
007F410100
007F410100
006A410154
0180010004
0B81555504
2F80000004
3F80000004
7FD5555554
7FFFFFFFE0
7FFFFFFF40
3FFFFFFD00
ENDCHAR
STARTCHAR imacron
ENCODING 299
SWIDTH 705 0
DWIDTH 20 0
BBX 19 30 0 -3
BITMAP
0005555550
0060000010
01E0555410
07E0000010
0FE0000010
0FF0000010
0FFFFFFFF8
0FD0000008
0F80000004
1F81555504
3F80010004
7F80010004
7FFA4102A0
7FFF410380
3FFF410200
1ABF410100
007F410100
007F410100
007F410100
007F410100
007F410100
006A410154
0180010004
0B81555504
2F80000004
3F80000004
7FD5555554
7FFFFFFFE0
7FFFFFFF40
3FFFFFFD00
ENDCHAR
STARTCHAR Ibreve
ENCODING 300
SWIDTH 705 0
DWIDTH 20 0
BBX 19 32 0 -3
BITMAP
0015501550
0060049010
01E00AD010
07E1014110
1FE0400510
1FF0155000
1FF8000000
1FFF500400
0FD5555554
0780000004
0780000004
2F81555504
3F80010004
7F80010004
7FFA4102A0
7FFF410380
3FFF410200
1ABF410100
007F410100
007F410100
007F410100
007F410100
007F410100
006A410154
0180010004
0B81555504
2F80000004
3F80000004
7FD5555554
7FFFFFFFE0
7FFFFFFF40
3FFFFFFD00
ENDCHAR
STARTCHAR ibreve
ENCODING 301
SWIDTH 705 0
DWIDTH 20 0
BBX 19 32 0 -3
BITMAP
0015501550
0060049010
01E00AD010
07E1014110
1FE0400510
1FF0155000
1FF8000000
1FFF500400
0FD5555554
0780000004
0780000004
2F81555504
3F80010004
7F80010004
7FFA4102A0
7FFF410380
3FFF410200
1ABF410100
007F410100
007F410100
007F410100
007F410100
007F410100
006A410154
0180010004
0B81555504
2F80000004
3F80000004
7FD5555554
7FFFFFFFE0
7FFFFFFF40
3FFFFFFD00
ENDCHAR
STARTCHAR Iogonek
ENCODING 302
SWIDTH 705 0
DWIDTH 20 0
BBX 19 30 0 -9
BITMAP
0055555554
0280000004
0B80000004
2F81555504
3F80010004
7F80010004
7FFA4102A0
7FFF410380
3FFF410200
1ABF410100
007F410100
007F410100
007F410100
007F410100
007F410100
006A410154
0180010004
0B81555504
2F80000404
3F80000404
7FD5550410
7FFFFF0454
7FFFFE0404
3FFFFE0504
0000FF0004
0000FF8004
0001FFFFE0
0000FFFF80
00007FFE00
0000055400
ENDCHAR
STARTCHAR iogonek
ENCODING 303
SWIDTH 705 0
DWIDTH 20 0
BBX 19 30 0 -9
BITMAP
0055555554
0280000004
0B80000004
2F81555504
3F80010004
7F80010004
7FFA4102A0
7FFF410380
3FFF410200
1ABF410100
007F410100
007F410100
007F410100
007F410100
007F410100
006A410154
0180010004
0B81555504
2F80000404
3F80000404
7FD5550410
7FFFFF0454
7FFFFE0404
3FFFFE0504
0000FF0004
0000FF8004
0001FFFFE0
0000FFFF80
00007FFE00
0000055400
ENDCHAR
STARTCHAR Idotaccent
ENCODING 304
SWIDTH 705 0
DWIDTH 20 0
BBX 19 31 0 -3
BITMAP
0000555400
0001800100
000B410100
002F410100
007F400100
007F400000
007F800400
0055555554
0280000004
0B80000004
2F81555504
3F80010004
7F80010004
7FFA4102A0
7FFF410380
3FFF410200
1ABF410100
007F410100
007F410100
007F410100
007F410100
007F410100
006A410154
0180010004
0B81555504
2F80000004
3F80000004
7FD5555554
7FFFFFFFE0
7FFFFFFF40
3FFFFFFD00
ENDCHAR
STARTCHAR dotlessi
ENCODING 305
SWIDTH 705 0
DWIDTH 20 0
BBX 19 24 0 -3
BITMAP
0055555554
0280000004
0B80000004
2F81555504
3F80010004
7F80010004
7FFA4102A0
7FFF410380
3FFF410200
1ABF410100
007F410100
007F410100
007F410100
007F410100
007F410100
006A410154
0180010004
0B81555504
2F80000004
3F80000004
7FD5555554
7FFFFFFFE0
7FFFFFFF40
3FFFFFFD00
ENDCHAR
STARTCHAR IJ
ENCODING 306
SWIDTH 844 0
DWIDTH 24 0
BBX 22 24 1 -3
BITMAP
005554055550
0700041C0010
1F00047C0010
7F0106FC0410
BF0107FC0410
BF0107FC0410
BF0107FC0410
BF0107FC0410
BF0107FC0410
BF0007FC0410
BF0007FC0410
BF400BFC0410
BFEAABFC0410
BFFF8BFC0410
BFFE0BF81010
6AA956A01010
024000001010
1F0155550040
7F0000000040
BF0000000100
BF9555556400
BFFFFFFFD000
BFFFFFFF4000
7FFFFFE40000
ENDCHAR
STARTCHAR ij
ENCODING 307
SWIDTH 844 0
DWIDTH 24 0
BBX 22 24 1 -3
BITMAP
005554055550
0700041C0010
1F00047C0010
7F0106FC0410
BF0107FC0410
BF0107FC0410
BF0107FC0410
BF0107FC0410
BF0107FC0410
BF0007FC0410
BF0007FC0410
BF400BFC0410
BFEAABFC0410
BFFF8BFC0410
BFFE0BF81010
6AA956A01010
024000001010
1F0155550040
7F0000000040
BF0000000100
BF9555556400
BFFFFFFFD000
BFFFFFFF4000
7FFFFFE40000
ENDCHAR
STARTCHAR Jcircumflex
ENCODING 308
SWIDTH 788 0
DWIDTH 22 0
BBX 24 32 0 -3
BITMAP
000000005400
000000140150
000001400004
000009015401
00002D040101
0000FD005001
0001FD1BFE51
0002FFFFFFF8
0002FFF40060
0001FEB40040
000052F40040
000007F41040
00000BF41040
00000BF41040
00000BF41040
00000BF41040
00000BF41040
00555BF41040
02400BF41040
0B400BF41040
3F410BF41040
BF410BF41040
BF4106E01040
BF4100001040
BF8040004040
BF8015550040
7FD000000100
7FF800000400
3FFFA556A000
1FFFFFFF8000
07FFFFFD0000
006BFF900000
ENDCHAR
STARTCHAR jcircumflex
ENCODING 309
SWIDTH 788 0
DWIDTH 22 0
BBX 24 32 0 -3
BITMAP
000000005400
000000140150
000001400004
000009015401
00002D040101
0000FD005001
0001FD1BFE51
0002FFFFFFF8
0002FFF40060
0001FEB40040
000052F40040
000007F41040
00000BF41040
00000BF41040
00000BF41040
00000BF41040
00000BF41040
00555BF41040
02400BF41040
0B400BF41040
3F410BF41040
BF410BF41040
BF4106E01040
BF4100001040
BF8040004040
BF8015550040
7FD000000100
7FF800000400
3FFFA556A000
1FFFFFFF8000
07FFFFFD0000
006BFF900000
ENDCHAR
STARTCHAR Kcommaaccent
ENCODING 310
SWIDTH 846 0
DWIDTH 24 0
BBX 22 34 1 -13
BITMAP
005554055540
070004240040
1F0004B00040
7F0106E04000
BF0107C04100
BF0107810100
BF0107410400
BF0106040400
BF0100040140
BF0100040040
BF0155554010
BF0100001010
BF0100000410
BF0106A80410
BF0107FC0410
BF0107FC0410
BF0107FC0410
BF0106FC0410
BF0006FC0010
BF0006FC0010
BF9556FE5550
BFFFE6AAFF40
BFFF9000FD00
7FFED000E000
000BD1544000
001FD0044000
001FE0044000
001FFF840000
001FF0110000
001FE1410000
000BF4540000
000FFFD00000
001FFF400000
000FF8000000
ENDCHAR
STARTCHAR kcommaaccent
ENCODING 311
SWIDTH 846 0
DWIDTH 24 0
BBX 22 34 1 -13
BITMAP
005554055540
070004240040
1F0004B00040
7F0106E04000
BF0107C04100
BF0107810100
BF0107410400
BF0106040400
BF0100040140
BF0100040040
BF0155554010
BF0100001010
BF0100000410
BF0106A80410
BF0107FC0410
BF0107FC0410
BF0107FC0410
BF0106FC0410
BF0006FC0010
BF0006FC0010
BF9556FE5550
BFFFE6AAFF40
BFFF9000FD00
7FFED000E000
000BD1544000
001FD0044000
001FE0044000
001FFF840000
001FF0110000
001FE1410000
000BF4540000
000FFFD00000
001FFF400000
000FF8000000
ENDCHAR
STARTCHAR kgreenlandic
ENCODING 312
SWIDTH 846 0
DWIDTH 24 0
BBX 22 24 1 -3
BITMAP
005554055540
070004240040
1F0004B00040
7F0106E04000
BF0107C04100
BF0107810100
BF0107410400
BF0106040400
BF0100040140
BF0100040040
BF0155554010
BF0100001010
BF0100000410
BF0106A80410
BF0107FC0410
BF0107FC0410
BF0107FC0410
BF0106FC0410
BF0006FC0010
BF0006FC0010
BF9556FE5550
BFFFD2FFFF40
BFFF42FFFD00
7FF802FFE000
ENDCHAR
STARTCHAR Lacute
ENCODING 313
SWIDTH 795 0
DWIDTH 22 0
BBX 21 31 1 -3
BITMAP
000000550000
0016AA510000
019000004000
0B0155404000
2F0000000000
BF0000040000
BF456BF40000
BFAAAFD00000
BF4006400000
7F0004000000
7F0104000000
BF0104000000
BF0104000000
BF0104000000
BF0104000000
BF0104000000
BF0104055540
BF0104240040
BF0104B40040
BF0107F41040
BF0107F41040
BF0107F41040
BF0100001040
BF0100001040
BF0155555040
BF0000000040
BF0000000040
BF9555555540
BFFFFFFFFD00
BFFFFFFFF400
7FFFFFFF8000
ENDCHAR
STARTCHAR lacute
ENCODING 314
SWIDTH 795 0
DWIDTH 22 0
BBX 21 31 1 -3
BITMAP
000000550000
0016AA510000
019000004000
0B0155404000
2F0000000000
BF0000040000
BF456BF40000
BFAAAFD00000
BF4006400000
7F0004000000
7F0104000000
BF0104000000
BF0104000000
BF0104000000
BF0104000000
BF0104000000
BF0104055540
BF0104240040
BF0104B40040
BF0107F41040
BF0107F41040
BF0107F41040
BF0100001040
BF0100001040
BF0155555040
BF0000000040
BF0000000040
BF9555555540
BFFFFFFFFD00
BFFFFFFFF400
7FFFFFFF8000
ENDCHAR
STARTCHAR Lcommaaccent
ENCODING 315
SWIDTH 795 0
DWIDTH 22 0
BBX 21 34 1 -13
BITMAP
005554000000
070004000000
1F0004000000
7F0104000000
BF0104000000
BF0104000000
BF0104000000
BF0104000000
BF0104000000
BF0104055540
BF0104240040
BF0104B40040
BF0107F41040
BF0107F41040
BF0107F41040
BF0100001040
BF0100001040
BF0155555040
BF0000000040
BF0000000040
BF4000000000
BFFFFFFFFD00
BFFFD556F400
7FFFC0018000
000BC1510000
002FC0110000
002FD0110000
002FFF910000
002FE0110000
002FD1410000
000BE0540000
001FFFD00000
001FFE000000
001FF8000000
ENDCHAR
STARTCHAR lcommaaccent
ENCODING 316
SWIDTH 795 0
DWIDTH 22 0
BBX 21 34 1 -13
BITMAP
005554000000
070004000000
1F0004000000
7F0104000000
BF0104000000
BF0104000000
BF0104000000
BF0104000000
BF0104000000
BF0104055540
BF0104240040
BF0104B40040
BF0107F41040
BF0107F41040
BF0107F41040
BF0100001040
BF0100001040
BF0155555040
BF0000000040
BF0000000040
BF4000000000
BFFFFFFFFD00
BFFFD556F400
7FFFC0018000
000BC1510000
002FC0110000
002FD0110000
002FFF910000
002FE0110000
002FD1410000
000BE0540000
001FFFD00000
001FFE000000
001FF8000000
ENDCHAR
STARTCHAR Lcaron
ENCODING 317
SWIDTH 795 0
DWIDTH 22 0
BBX 21 24 1 -3
BITMAP
005554055540
070004340040
1F0005F00040
7F0107F04100
BF0107E04100
BF0107E00100
BF0107D00100
BF0107E55400
BF0107FFF000
BF0107FE9540
BF0107F40040
BF0104B40040
BF0107F41040
BF0107F41040
BF0107F41040
BF0100001040
BF0100001040
BF0155555040
BF0000000040
BF0000000040
BF9555555540
BFFFFFFFFD00
BFFFFFFFF400
7FFFFFFF8000
ENDCHAR
STARTCHAR lcaron
ENCODING 318
SWIDTH 795 0
DWIDTH 22 0
BBX 21 24 1 -3
BITMAP
005554055540
070004340040
1F0005F00040
7F0107F04100
BF0107E04100
BF0107E00100
BF0107D00100
BF0107E55400
BF0107FFF000
BF0107FE9540
BF0107F40040
BF0104B40040
BF0107F41040
BF0107F41040
BF0107F41040
BF0100001040
BF0100001040
BF0155555040
BF0000000040
BF0000000040
BF9555555540
BFFFFFFFFD00
BFFFFFFFF400
7FFFFFFF8000
ENDCHAR
STARTCHAR Ldot
ENCODING 319
SWIDTH 795 0
DWIDTH 22 0
BBX 21 24 1 -3
BITMAP
005554000000
070004000000
1F0004000000
7F0104000000
BF0104055500
BF0104300040
BF0105F00040
BF0107F01040
BF0107F00040
BF0107F40140
BF0107FFFD00
BF0107FEA500
BF0107F40040
BF0105B40040
BF0106F41040
BF0100001040
BF0100001040
BF0155555040
BF0000000040
BF0000000040
BF9555555540
BFFFFFFFFD00
BFFFFFFFF400
7FFFFFFF8000
ENDCHAR
STARTCHAR ldot
ENCODING 320
SWIDTH 795 0
DWIDTH 22 0
BBX 21 24 1 -3
BITMAP
005554000000
070004000000
1F0004000000
7F0104000000
BF0104055500
BF0104300040
BF0105F00040
BF0107F01040
BF0107F00040
BF0107F40140
BF0107FFFD00
BF0107FEA500
BF0107F40040
BF0105B40040
BF0106F41040
BF0100001040
BF0100001040
BF0155555040
BF0000000040
BF0000000040
BF9555555540
BFFFFFFFFD00
BFFFFFFFF400
7FFFFFFF8000
ENDCHAR
STARTCHAR Lslash
ENCODING 321
SWIDTH 805 0
DWIDTH 23 0
BBX 22 24 0 -3
BITMAP
001555000000
009001000000
07D001000000
1FD041000000
1FD041000000
1FD041100000
1FD040440000
1F9040040000
1E0041040000
2E0554055550
BE00400A0010
FF0040BE0010
FF9041FE0410
FFD041FE0410
FFD041FE0410
6FD040000410
1FD040000410
1FD055555410
1FD000000010
1FD000000010
1FE555555550
1FFFFFFFFF80
1FFFFFFFFD00
1FFFFFFFF400
ENDCHAR
STARTCHAR lslash
ENCODING 322
SWIDTH 805 0
DWIDTH 23 0
BBX 22 24 0 -3
BITMAP
001555000000
009001000000
07D001000000
1FD041000000
1FD041000000
1FD041100000
1FD040440000
1F9040040000
1E0041040000
2E0554055550
BE00400A0010
FF0040BE0010
FF9041FE0410
FFD041FE0410
FFD041FE0410
6FD040000410
1FD040000410
1FD055555410
1FD000000010
1FD000000010
1FE555555550
1FFFFFFFFF80
1FFFFFFFFD00
1FFFFFFFF400
ENDCHAR
STARTCHAR Nacute
ENCODING 323
SWIDTH 853 0
DWIDTH 24 0
BBX 22 31 1 -3
BITMAP
00000015A800
0001ABA94400
000A40000000
002C05550000
00FC00000000
02FC00001000
02FD15AFD000
02956FFE5550
07000FFC0010
1F00017C0010
7F0101FC0410
BF01407C0410
BF01102C0410
BF0104080410
BF0101000410
BF0100400410
BF0100100410
BF0100040410
BF0109050410
BF010B010410
BF010B804410
BF010BE01410
BF010BF80410
BF010BFC0410
BF010BFC0410
BF000BFC0010
BF0006FC0010
BF9556FE5550
BFFFD2FFFF40
BFFF42FFFD00
7FF801FFE000
ENDCHAR
STARTCHAR nacute
ENCODING 324
SWIDTH 853 0
DWIDTH 24 0
BBX 22 31 1 -3
BITMAP
00000015A800
0001ABA94400
000A40000000
002C05550000
00FC00000000
02FC00001000
02FD15AFD000
02956FFE5550
07000FFC0010
1F00017C0010
7F0101FC0410
BF01407C0410
BF01102C0410
BF0104080410
BF0101000410
BF0100400410
BF0100100410
BF0100040410
BF0109050410
BF010B010410
BF010B804410
BF010BE01410
BF010BF80410
BF010BFC0410
BF010BFC0410
BF000BFC0010
BF0006FC0010
BF9556FE5550
BFFFD2FFFF40
BFFF42FFFD00
7FF801FFE000
ENDCHAR
STARTCHAR Ncommaaccent
ENCODING 325
SWIDTH 853 0
DWIDTH 24 0
BBX 22 34 1 -13
BITMAP
005550015550
0700041C0010
1F00017C0010
7F0101FC0410
BF01407C0410
BF01102C0410
BF0104080410
BF0101000410
BF0100400410
BF0100100410
BF0100040410
BF0109050410
BF010B010410
BF010B804410
BF010BE01410
BF010BF80410
BF010BFC0410
BF010BFC0410
BF000BFC0010
BF0006FC0010
BF9556FE5550
BFFFE6AAFF40
BFFFA000FD00
7FFAE000E000
000BE1544000
001FE0044000
001FE0044000
001FFF844000
001FF4110000
001FE1510000
000BF4140000
000FFFD00000
000FFF400000
000FF8000000
ENDCHAR
STARTCHAR ncommaaccent
ENCODING 326
SWIDTH 853 0
DWIDTH 24 0
BBX 22 34 1 -13
BITMAP
005550015550
0700041C0010
1F00017C0010
7F0101FC0410
BF01407C0410
BF01102C0410
BF0104080410
BF0101000410
BF0100400410
BF0100100410
BF0100040410
BF0109050410
BF010B010410
BF010B804410
BF010BE01410
BF010BF80410
BF010BFC0410
BF010BFC0410
BF000BFC0010
BF0006FC0010
BF9556FE5550
BFFFE6AAFF40
BFFFA000FD00
7FFAE000E000
000BE1544000
001FE0044000
001FE0044000
001FFF844000
001FF4110000
001FE1510000
000BF4140000
000FFFD00000
000FFF400000
000FF8000000
ENDCHAR
STARTCHAR Ncaron
ENCODING 327
SWIDTH 853 0
DWIDTH 24 0
BBX 22 31 1 -3
BITMAP
001954015400
007805540400
01F810000400
07F805540400
07F800000000
07FE40005000
07FFF91B4000
03956FFE5550
07000FAC0010
1F00017C0010
7F0101FC0410
BF01407C0410
BF01102C0410
BF0104080410
BF0101000410
BF0100400410
BF0100100410
BF0100040410
BF0109050410
BF010B010410
BF010B804410
BF010BE01410
BF010BF80410
BF010BFC0410
BF010BFC0410
BF000BFC0010
BF0006FC0010
BF9556FE5550
BFFFD2FFFF40
BFFF42FFFD00
7FF801FFE000
ENDCHAR
STARTCHAR ncaron
ENCODING 328
SWIDTH 853 0
DWIDTH 24 0
BBX 22 31 1 -3
BITMAP
001954015400
007805540400
01F810000400
07F805540400
07F800000000
07FE40005000
07FFF91B4000
03956FFE5550
07000FAC0010
1F00017C0010
7F0101FC0410
BF01407C0410
BF01102C0410
BF0104080410
BF0101000410
BF0100400410
BF0100100410
BF0100040410
BF0109050410
BF010B010410
BF010B804410
BF010BE01410
BF010BF80410
BF010BFC0410
BF010BFC0410
BF000BFC0010
BF0006FC0010
BF9556FE5550
BFFFD2FFFF40
BFFF42FFFD00
7FF801FFE000
ENDCHAR
STARTCHAR napostrophe
ENCODING 329
SWIDTH 853 0
DWIDTH 24 0
BBX 22 34 1 -3
BITMAP
005550000000
060004000000
1E0004000000
7E1544000000
FE0044000000
FF0044000000
FFFC44000000
FF4044000000
FF1500000000
7F4000000000
BFFFD002FFD0
BF40141D0010
BF00057C0010
7F0101FC0410
BF0140BC0410
BF01102C0410
BF0104080410
BF0101000410
BF0100400410
BF0100100410
BF0100040410
BF0109050410
BF010B010410
BF010B804410
BF010BE01410
BF010BF80410
BF010BFC0410
BF010BFC0410
BF000BFC0010
BF0006FC0010
BF9556FE5550
BFFFD2FFFF40
BFFF42FFFD00
7FF801FFE000
ENDCHAR
STARTCHAR Eng
ENCODING 330
SWIDTH 846 0
DWIDTH 24 0
BBX 22 27 1 -6
BITMAP
000155555000
001400000500
004015550040
024040004000
0B4100001010
3F0101500010
7F010BF80410
BF010BFC0410
FF010BFC0410
FF010BFC0410
FF0107FC0410
FF0107FC0410
FF0107FC0410
FF0107FC0410
FF0107FC0410
FF0107FC0410
FF0107FC0410
FF0107F80410
FF0007400010
FF000B001010
FF955F014040
FFFFFF000040
FFFFFF400500
BFF8BFEBF000
0000BFFF8000
0000BFFD0000
000015500000
ENDCHAR
STARTCHAR eng
ENCODING 331
SWIDTH 846 0
DWIDTH 24 0
BBX 22 27 1 -6
BITMAP
000155555000
001400000500
004015550040
024040004000
0B4100001010
3F0101500010
7F010BF80410
BF010BFC0410
FF010BFC0410
FF010BFC0410
FF0107FC0410
FF0107FC0410
FF0107FC0410
FF0107FC0410
FF0107FC0410
FF0107FC0410
FF0107FC0410
FF0107F80410
FF0007400010
FF000B001010
FF955F014040
FFFFFF000040
FFFFFF400500
BFF8BFEBF000
0000BFFF8000
0000BFFD0000
000015500000
ENDCHAR
STARTCHAR Omacron
ENCODING 332
SWIDTH 837 0
DWIDTH 23 0
BBX 22 30 1 -3
BITMAP
000555555000
001800000400
00B815550400
02F800000400
07F800000400
07F800000400
07FFFAABE000
07F900001500
02D015550140
074040004040
2F0100001010
7F0107F40010
BF000BFC0410
FF000BFC0410
FF000BFC0410
FF0007FC0410
FF0007FC0410
FF0007FC0410
FF0007FC0410
FF0007FC0410
FF0107F80010
FF0100401010
FF0040004010
FF4015550040
FF8000000040
BFF400000600
7FFFA556B400
2FFFFFFFD000
07FFFFFE0000
006FFFA40000
ENDCHAR
STARTCHAR omacron
ENCODING 333
SWIDTH 837 0
DWIDTH 23 0
BBX 22 30 1 -3
BITMAP
000555555000
001800000400
00B815550400
02F800000400
07F800000400
07F800000400
07FFFAABE000
07F900001500
02D015550140
074040004040
2F0100001010
7F0107F40010
BF000BFC0410
FF000BFC0410
FF000BFC0410
FF0007FC0410
FF0007FC0410
FF0007FC0410
FF0007FC0410
FF0007FC0410
FF0107F80010
FF0100401010
FF0040004010
FF4015550040
FF8000000040
BFF400000600
7FFFA556B400
2FFFFFFFD000
07FFFFFE0000
006FFFA40000
ENDCHAR
STARTCHAR Obreve
ENCODING 334
SWIDTH 837 0
DWIDTH 23 0
BBX 22 32 1 -3
BITMAP
000554055400
001401240400
00B402F00400
02F440504400
07F810010400
07FC05540400
07FE00001000
07FF90018000
03FFEAAA5000
01F900000500
019015550040
074040004040
1F0100001010
7F0107F40010
BF000BFC0410
FF000BFC0410
FF000BFC0410
FF0007FC0410
FF0007FC0410
FF0007FC0410
FF0007FC0410
FF0007FC0410
FF0107F80010
FF0100401010
FF0040004010
FF4015550040
FFC000000040
BFF400000500
7FFFA556B400
2FFFFFFFD000
07FFFFFE0000
006FFFA40000
ENDCHAR
STARTCHAR obreve
ENCODING 335
SWIDTH 837 0
DWIDTH 23 0
BBX 22 32 1 -3
BITMAP
000554055400
001401240400
00B402F00400
02F440504400
07F810010400
07FC05540400
07FE00001000
07FF90018000
03FFEAAA5000
01F900000500
019015550040
074040004040
1F0100001010
7F0107F40010
BF000BFC0410
FF000BFC0410
FF000BFC0410
FF0007FC0410
FF0007FC0410
FF0007FC0410
FF0007FC0410
FF0007FC0410
FF0107F80010
FF0100401010
FF0040004010
FF4015550040
FFC000000040
BFF400000500
7FFFA556B400
2FFFFFFFD000
07FFFFFE0000
006FFFA40000
ENDCHAR
STARTCHAR Ohungarumlaut
ENCODING 336
SWIDTH 837 0
DWIDTH 23 0
BBX 22 34 1 -3
BITMAP
000055415500
000200490040
001E006C0040
007D00B80100
00FD10B81100
01FC10F44100
01FC11F04100
02F801F00400
03F402E00400
03F803E00400
07FFFAABE000
0BF900001500
02D015550140
074040004040
2F0100001010
7F0107F40010
BF000BFC0410
FF000BFC0410
FF000BFC0410
FF0007FC0410
FF0007FC0410
FF0007FC0410
FF0007FC0410
FF0007FC0410
FF0107F80010
FF0100401010
FF0040004010
FF4015550040
FF8000000040
BFF400000600
7FFFA556B400
2FFFFFFFD000
07FFFFFE0000
006FFFA40000
ENDCHAR
STARTCHAR ohungarumlaut
ENCODING 337
SWIDTH 837 0
DWIDTH 23 0
BBX 22 34 1 -3
BITMAP
000055415500
000200490040
001E006C0040
007D00B80100
00FD10B81100
01FC10F44100
01FC11F04100
02F801F00400
03F402E00400
03F803E00400
07FFFAABE000
0BF900001500
02D015550140
074040004040
2F0100001010
7F0107F40010
BF000BFC0410
FF000BFC0410
FF000BFC0410
FF0007FC0410
FF0007FC0410
FF0007FC0410
FF0007FC0410
FF0007FC0410
FF0107F80010
FF0100401010
FF0040004010
FF4015550040
FF8000000040
BFF400000600
7FFFA556B400
2FFFFFFFD000
07FFFFFE0000
006FFFA40000
ENDCHAR
STARTCHAR OE
ENCODING 338
SWIDTH 1115 0
DWIDTH 31 0
BBX 30 24 1 -3
BITMAP
0005555555555550
0010000000000010
0080000000000010
0740155555555010
1F01400010000010
3F01000010155550
BF0107F8103FFF40
FF000BF8103FFD00
FF000BF810000400
FF000BF810000100
FF000BF815550100
FF000BF810000100
FF000BF810000100
FF000BF8103FF400
FF010BF8103FD000
FF0106A4102A5540
FF01400010000010
FF40155555555010
FFC0000000000010
BFE0000000000010
7FFE955555555550
2FFFFFFFFFFFFF40
0BFFFFFFFFFFFD00
01BFFFFFFFFFE000
ENDCHAR
STARTCHAR oe
ENCODING 339
SWIDTH 1115 0
DWIDTH 31 0
BBX 30 24 1 -3
BITMAP
0005555555555550
0010000000000010
0080000000000010
0740155555555010
1F01400010000010
3F01000010155550
BF0107F8103FFF40
FF000BF8103FFD00
FF000BF810000400
FF000BF810000100
FF000BF815550100
FF000BF810000100
FF000BF810000100
FF000BF8103FF400
FF010BF8103FD000
FF0106A4102A5540
FF01400010000010
FF40155555555010
FFC0000000000010
BFE0000000000010
7FFE955555555550
2FFFFFFFFFFFFF40
0BFFFFFFFFFFFD00
01BFFFFFFFFFE000
ENDCHAR
STARTCHAR Racute
ENCODING 340
SWIDTH 843 0
DWIDTH 24 0
BBX 22 31 1 -3
BITMAP
000000055000
00016AA54400
001940000400
007405550400
01F400000400
07F400004000
07F856AF8000
07AAAAAA5000
074000000400
0B0000000100
7F0155540100
BF0100010040
BF0106904040
BF010BE04040
BF010BE04040
BF010BE04100
BF0100004100
BF0100004040
BF0155554010
BF0100001010
BF0100000410
BF010BFD0410
BF010BFD0410
BF010BFD0410
BF0106FD0410
BF0005FD0010
BF0005FD0010
BF9555FE5550
BFFFD1FFFF80
BFFF41FFFE00
7FF801FFF400
ENDCHAR
STARTCHAR racute
ENCODING 341
SWIDTH 843 0
DWIDTH 24 0
BBX 22 31 1 -3
BITMAP
000000055000
00016AA54400
001940000400
007405550400
01F400000400
07F400004000
07F856AF8000
07AAAAAA5000
074000000400
0B0000000100
7F0155540100
BF0100010040
BF0106904040
BF010BE04040
BF010BE04040
BF010BE04100
BF0100004100
BF0100004040
BF0155554010
BF0100001010
BF0100000410
BF010BFD0410
BF010BFD0410
BF010BFD0410
BF0106FD0410
BF0005FD0010
BF0005FD0010
BF9555FE5550
BFFFD1FFFF80
BFFF41FFFE00
7FF801FFF400
ENDCHAR
STARTCHAR Rcommaaccent
ENCODING 342
SWIDTH 843 0
DWIDTH 24 0
BBX 22 34 1 -13
BITMAP
005555555000
070000000400
1F0000000100
7F0155540100
BF0100010040
BF0106904040
BF010BE04040
BF010BE04000
BF010BE04100
BF0100004100
BF0100004040
BF0155554010
BF0100001010
BF0100000410
BF010BFD0410
BF010BFD0410
BF010BFD0410
BF0106FD0410
BF0005FD0010
BF0005FD0010
BF9555FE5550
BFFFE5AAFF80
BFFFA000FE00
7FFAE000F400
000BE1544000
001FE0044000
001FE0044000
001FFFC44000
001FF4044000
001FF1510000
0007F4140000
000BFFE00000
000FFF400000
000BF9000000
ENDCHAR
STARTCHAR rcommaaccent
ENCODING 343
SWIDTH 843 0
DWIDTH 24 0
BBX 22 34 1 -13
BITMAP
005555555000
070000000400
1F0000000100
7F0155540100
BF0100010040
BF0106904040
BF010BE04040
BF010BE04000
BF010BE04100
BF0100004100
BF0100004040
BF0155554010
BF0100001010
BF0100000410
BF010BFD0410
BF010BFD0410
BF010BFD0410
BF0106FD0410
BF0005FD0010
BF0005FD0010
BF9555FE5550
BFFFE5AAFF80
BFFFA000FE00
7FFAE000F400
000BE1544000
001FE0044000
001FE0044000
001FFFC44000
001FF4044000
001FF1510000
0007F4140000
000BFFE00000
000FFF400000
000BF9000000
ENDCHAR
STARTCHAR Rcaron
ENCODING 344
SWIDTH 843 0
DWIDTH 24 0
BBX 22 31 1 -3
BITMAP
000950015400
002805540400
00B800010400
03F805540400
03FC00000400
03FF40006000
03FFF91B8000
03FFFFFE4000
024000001400
0B0000000100
2F0155540100
BF0100010040
BF0106904040
BF010BE04040
BF010BE04000
BF010BE04100
BF0100004100
BF0100004040
BF0155554010
BF0100001010
BF0100000410
BF010BFD0410
BF010BFD0410
BF010BFD0410
BF0106FD0410
BF0005FD0010
BF0005FD0010
BF9555FE5550
BFFFD1FFFF80
BFFF41FFFE00
7FF801FFF400
ENDCHAR
STARTCHAR rcaron
ENCODING 345
SWIDTH 843 0
DWIDTH 24 0
BBX 22 31 1 -3
BITMAP
000950015400
002805540400
00B800010400
03F805540400
03FC00000400
03FF40006000
03FFF91B8000
03FFFFFE4000
024000001400
0B0000000100
2F0155540100
BF0100010040
BF0106904040
BF010BE04040
BF010BE04000
BF010BE04100
BF0100004100
BF0100004040
BF0155554010
BF0100001010
BF0100000410
BF010BFD0410
BF010BFD0410
BF010BFD0410
BF0106FD0410
BF0005FD0010
BF0005FD0010
BF9555FE5550
BFFFD1FFFF80
BFFF41FFFE00
7FF801FFF400
ENDCHAR
STARTCHAR Sacute
ENCODING 346
SWIDTH 750 0
DWIDTH 21 0
BBX 21 31 0 -3
BITMAP
00000016A400
0001AEA54400
001940000400
007815550400
01F800000400
03F800000000
07FC56AF8000
07FE95555500
07F400000100
03D000000100
01C015554100
078040000100
1F8100000100
2F8102FFF800
3F8102BFD000
7F8100015000
7F8050000100
7FC005540100
7FE000004040
3FF900000040
3FFFE9401040
1FFFFFF01040
07EAAA900040
028000004040
0B8155550040
2F8000000100
7F8000000400
7FD55555A000
7FFFFFFF8000
7FFFFFFE0000
3FFFFFE40000
ENDCHAR
STARTCHAR sacute
ENCODING 347
SWIDTH 750 0
DWIDTH 21 0
BBX 21 31 0 -3
BITMAP
00000016A400
0001AEA54400
001940000400
007815550400
01F800000400
03F800000000
07FC56AF8000
07FE95555500
07F400000100
03D000000100
01C015554100
078040000100
1F8100000100
2F8102FFF800
3F8102BFD000
7F8100015000
7F8050000100
7FC005540100
7FE000004040
3FF900000040
3FFFE9401040
1FFFFFF01040
07EAAA900040
028000004040
0B8155550040
2F8000000100
7F8000000400
7FD55555A000
7FFFFFFF8000
7FFFFFFE0000
3FFFFFE40000
ENDCHAR
STARTCHAR Scircumflex
ENCODING 348
SWIDTH 750 0
DWIDTH 21 0
BBX 21 32 0 -3
BITMAP
000001500000
000054054000
000500001000
001405500400
00B410050400
02F400000400
07F41BE90400
07FEFFFFE000
07FE95555500
07F400000100
07D000000100
018015554100
078040000100
1F8100000100
2F8102FFF800
3F8102BFD000
7F8100015000
7F8050000100
7FC005540100
7FE000004040
3FF900000040
3FFFE9401040
1FFFFFF01040
07EAAA900040
028000004040
0B8155550040
2F8000000100
7F8000000400
7FD55555A000
7FFFFFFF8000
7FFFFFFE0000
3FFFFFE40000
ENDCHAR
STARTCHAR scircumflex
ENCODING 349
SWIDTH 750 0
DWIDTH 21 0
BBX 21 32 0 -3
BITMAP
000001500000
000054054000
000500001000
001405500400
00B410050400
02F400000400
07F41BE90400
07FEFFFFE000
07FE95555500
07F400000100
07D000000100
018015554100
078040000100
1F8100000100
2F8102FFF800
3F8102BFD000
7F8100015000
7F8050000100
7FC005540100
7FE000004040
3FF900000040
3FFFE9401040
1FFFFFF01040
07EAAA900040
028000004040
0B8155550040
2F8000000100
7F8000000400
7FD55555A000
7FFFFFFF8000
7FFFFFFE0000
3FFFFFE40000
ENDCHAR
STARTCHAR Scedilla
ENCODING 350
SWIDTH 750 0
DWIDTH 21 0
BBX 21 28 0 -7
BITMAP
000155555500
001400000100
005000000100
02C015554100
0B8040000100
1F8100000100
3F8103FFF800
7F8102BFD000
7F8100015000
7F8050000100
7FC005540000
7FE000004040
3FF900000040
3FFFE9401040
1FFFFFF01040
07EAAA900040
028000004040
0B8155550040
2F8000400100
7F8000400800
7FEA8042A000
7FFFC0078000
7FFF40090000
3FFF40140000
003FFFD00000
007FFF400000
00BFF8000000
001550000000
ENDCHAR
STARTCHAR scedilla
ENCODING 351
SWIDTH 750 0
DWIDTH 21 0
BBX 21 28 0 -7
BITMAP
000155555500
001400000100
005000000100
02C015554100
0B8040000100
1F8100000100
3F8103FFF800
7F8102BFD000
7F8100015000
7F8050000100
7FC005540000
7FE000004040
3FF900000040
3FFFE9401040
1FFFFFF01040
07EAAA900040
028000004040
0B8155550040
2F8000400100
7F8000400800
7FEA8042A000
7FFFC0078000
7FFF40090000
3FFF40140000
003FFFD00000
007FFF400000
00BFF8000000
001550000000
ENDCHAR
STARTCHAR Scaron
ENCODING 352
SWIDTH 750 0
DWIDTH 21 0
BBX 21 31 0 -3
BITMAP
000950015400
002805540400
00F800010400
03F805540400
03FC00000000
07FF40004000
07FFF91A4000
03FE95555500
00B400000100
001000000100
01C015554100
078040000100
1F8100000100
3F8102FFF800
3F8102BFD000
7F8100015000
7F8050000100
7FC005540100
7FE000004040
3FF900000040
3FFFE9401040
1FFFFFF01040
07EAAA900040
028000004040
0B8155550040
2F8000000100
7F8000000400
7FD55555A000
7FFFFFFF8000
7FFFFFFE0000
3FFFFFE40000
ENDCHAR
STARTCHAR scaron
ENCODING 353
SWIDTH 750 0
DWIDTH 21 0
BBX 21 31 0 -3
BITMAP
000950015400
002805540400
00F800010400
03F805540400
03FC00000000
07FF40004000
07FFF91A4000
03FE95555500
00B400000100
001000000100
01C015554100
078040000100
1F8100000100
3F8102FFF800
3F8102BFD000
7F8100015000
7F8050000100
7FC005540100
7FE000004040
3FF900000040
3FFFE9401040
1FFFFFF01040
07EAAA900040
028000004040
0B8155550040
2F8000000100
7F8000000400
7FD55555A000
7FFFFFFF8000
7FFFFFFE0000
3FFFFFE40000
ENDCHAR
STARTCHAR Tcommaaccent
ENCODING 354
SWIDTH 756 0
DWIDTH 21 0
BBX 21 34 0 -13
BITMAP
015555555540
070000000040
1F0000000040
7F0155555040
FF0000400040
FF4000400040
FFFFC041FF00
FFFFC041F800
BFFFC041E000
157FC0414000
002FC0410000
002FC0410000
002FC0410000
002FC0410000
002FC0410000
002FC0410000
002FC0410000
002FC0410000
002FC0010000
002FC0010000
002FD0010000
002FFFFC0000
002FD5550000
001FC0010000
000BC1510000
002FC0110000
002FD0110000
002FFF510000
002FE0110000
002FD1410000
000BE0540000
001FFFD00000
001FFF000000
001FF8000000
ENDCHAR
STARTCHAR tcommaaccent
ENCODING 355
SWIDTH 756 0
DWIDTH 21 0
BBX 21 34 0 -13
BITMAP
015555555540
070000000040
1F0000000040
7F0155555040
FF0000400040
FF4000400040
FFFFC041FF00
FFFFC041F800
BFFFC041E000
157FC0414000
002FC0410000
002FC0410000
002FC0410000
002FC0410000
002FC0410000
002FC0410000
002FC0410000
002FC0410000
002FC0010000
002FC0010000
002FD0010000
002FFFFC0000
002FD5550000
001FC0010000
000BC1510000
002FC0110000
002FD0110000
002FFF510000
002FE0110000
002FD1410000
000BE0540000
001FFFD00000
001FFF000000
001FF8000000
ENDCHAR
STARTCHAR Tcaron
ENCODING 356
SWIDTH 756 0
DWIDTH 21 0
BBX 21 31 0 -3
BITMAP
000950015400
007805540400
01F810000400
07F805540400
07F800000000
07FE40004000
07FFF91A0000
075555555540
070000000040
1F0000000040
7F0155555040
FF0000400040
FF4000400040
FFFFC041FF00
FFFFC041F800
BFFFC041E000
157FC0414000
002FC0410000
002FC0410000
002FC0410000
002FC0410000
002FC0410000
002FC0410000
002FC0410000
002FC0410000
002FC0010000
002FC0010000
002FE5550000
002FFFF80000
002FFFD00000
001FFF400000
ENDCHAR
STARTCHAR tcaron
ENCODING 357
SWIDTH 756 0
DWIDTH 21 0
BBX 21 31 0 -3
BITMAP
000950015400
007805540400
01F810000400
07F805540400
07F800000000
07FE40004000
07FFF91A0000
075555555540
070000000040
1F0000000040
7F0155555040
FF0000400040
FF4000400040
FFFFC041FF00
FFFFC041F800
BFFFC041E000
157FC0414000
002FC0410000
002FC0410000
002FC0410000
002FC0410000
002FC0410000
002FC0410000
002FC0410000
002FC0410000
002FC0010000
002FC0010000
002FE5550000
002FFFF80000
002FFFD00000
001FFF400000
ENDCHAR
STARTCHAR Tbar
ENCODING 358
SWIDTH 756 0
DWIDTH 21 0
BBX 21 24 0 -3
BITMAP
015555555540
070000000040
1F0000000040
7F0155555040
FF0000400040
FF0000400040
FFFFC041FE40
FFFFC041F800
BFFFC041E000
557A80419400
007000400400
01F015550400
0BF000400400
0FF000400400
0FFFC041F800
0FFFC041D000
0FFFC0414000
06BFC0410000
002FC0010000
002FC0010000
002FE5550000
002FFFF80000
002FFFD00000
001FFF400000
ENDCHAR
STARTCHAR tbar
ENCODING 359
SWIDTH 756 0
DWIDTH 21 0
BBX 21 24 0 -3
BITMAP
015555555540
070000000040
1F0000000040
7F0155555040
FF0000400040
FF0000400040
FFFFC041FE40
FFFFC041F800
BFFFC041E000
557A80419400
007000400400
01F015550400
0BF000400400
0FF000400400
0FFFC041F800
0FFFC041D000
0FFFC0414000
06BFC0410000
002FC0010000
002FC0010000
002FE5550000
002FFFF80000
002FFFD00000
001FFF400000
ENDCHAR
STARTCHAR Utilde
ENCODING 360
SWIDTH 846 0
DWIDTH 24 0
BBX 22 31 1 -3
BITMAP
000055501400
000500054400
002800000400
00B815400400
02F800150400
03F800000000
03FD6A500000
03555FFD5550
07000BFC0010
2F0006FC0010
BF0106FC0410
FF0107FC0410
FF0107FC0410
FF0107FC0410
FF0107FC0410
FF0107FC0410
FF0107FC0410
FF0107FC0410
FF0107FC0410
FF0107FC0410
FF0107FC0410
FF0102A40410
FF0100001010
FF4040005010
FF4015550040
BFD000000040
BFF400000500
3FFFA556B400
1FFFFFFFD000
07FFFFFE0000
006BFFA40000
ENDCHAR
STARTCHAR utilde
ENCODING 361
SWIDTH 846 0
DWIDTH 24 0
BBX 22 31 1 -3
BITMAP
000055501400
000500054400
002800000400
00B815400400
02F800150400
03F800000000
03FD6A500000
03555FFD5550
07000BFC0010
2F0006FC0010
BF0106FC0410
FF0107FC0410
FF0107FC0410
FF0107FC0410
FF0107FC0410
FF0107FC0410
FF0107FC0410
FF0107FC0410
FF0107FC0410
FF0107FC0410
FF0107FC0410
FF0102A40410
FF0100001010
FF4040005010
FF4015550040
BFD000000040
BFF400000500
3FFFA556B400
1FFFFFFFD000
07FFFFFE0000
006BFFA40000
ENDCHAR
STARTCHAR Umacron
ENCODING 362
SWIDTH 846 0
DWIDTH 24 0
BBX 22 30 1 -3
BITMAP
000155555400
000800000400
007815550400
01F800000400
03F800000400
03FC00000400
03FFFFFFFFD0
03400BFD0050
0B000BFC0010
2F0005FC0010
BF0106FC0410
FF0107FC0410
FF0107FC0410
FF0107FC0410
FF0107FC0410
FF0107FC0410
FF0107FC0410
FF0107FC0410
FF0107FC0410
FF0107FC0410
FF0106F80410
FF0100001010
FF0040005010
FF4015550000
BFC000000040
BFF400000500
7FFFA556B400
2FFFFFFFD000
07FFFFFE0000
006FFFA40000
ENDCHAR
STARTCHAR umacron
ENCODING 363
SWIDTH 846 0
DWIDTH 24 0
BBX 22 30 1 -3
BITMAP
000155555400
000800000400
007815550400
01F800000400
03F800000400
03FC00000400
03FFFFFFFFD0
03400BFD0050
0B000BFC0010
2F0005FC0010
BF0106FC0410
FF0107FC0410
FF0107FC0410
FF0107FC0410
FF0107FC0410
FF0107FC0410
FF0107FC0410
FF0107FC0410
FF0107FC0410
FF0107FC0410
FF0106F80410
FF0100001010
FF0040005010
FF4015550000
BFC000000040
BFF400000500
7FFFA556B400
2FFFFFFFD000
07FFFFFE0000
006FFFA40000
ENDCHAR
STARTCHAR Ubreve
ENCODING 364
SWIDTH 846 0
DWIDTH 24 0
BBX 22 32 1 -3
BITMAP
000554055400
001801240400
007802B40400
01F840504400
07F810014400
07FC05540000
07FE00000000
07FF94010000
03555FFD5550
07000BFC0010
1F000BFC0010
7F0005FC0010
FF0106FC0410
FF0107FC0410
FF0107FC0410
FF0107FC0410
FF0107FC0410
FF0107FC0410
FF0107FC0410
FF0107FC0410
FF0107FC0410
FF0107FC0410
FF0106F80410
FF0100001010
FF4040005010
FF4015550040
BFD000000040
BFF400000500
7FFFA556B400
2FFFFFFFD000
07FFFFFE0000
006BFFA40000
ENDCHAR
STARTCHAR ubreve
ENCODING 365
SWIDTH 846 0
DWIDTH 24 0
BBX 22 32 1 -3
BITMAP
000554055400
001801240400
007802B40400
01F840504400
07F810014400
07FC05540000
07FE00000000
07FF94010000
03555FFD5550
07000BFC0010
1F000BFC0010
7F0005FC0010
FF0106FC0410
FF0107FC0410
FF0107FC0410
FF0107FC0410
FF0107FC0410
FF0107FC0410
FF0107FC0410
FF0107FC0410
FF0107FC0410
FF0107FC0410
FF0106F80410
FF0100001010
FF4040005010
FF4015550040
BFD000000040
BFF400000500
7FFFA556B400
2FFFFFFFD000
07FFFFFE0000
006BFFA40000
ENDCHAR
STARTCHAR Uring
ENCODING 366
SWIDTH 846 0
DWIDTH 24 0
BBX 22 36 1 -3
BITMAP
000015550000
000140005000
000905540400
002810010400
00B842F04400
02F843F44400
03F842F44400
07F840504400
07F810010400
07FC05540000
07FE00000000
07FF90010000
02555FFD5550
07000BFC0010
2F0006BC0010
BF0105FC0410
FF0106FC0410
FF0107FC0410
FF0107FC0410
FF0107FC0410
FF0107FC0410
FF0107FC0410
FF0107FC0410
FF0107FC0410
FF0107FC0410
FF0107FC0410
FF0107FC0410
FF0107F81010
FF4040005010
FF4015550040
BFD000000040
BFF400000500
3FFFA556B400
1FFFFFFFD000
07FFFFFE0000
006BFFA40000
ENDCHAR
STARTCHAR uring
ENCODING 367
SWIDTH 846 0
DWIDTH 24 0
BBX 22 36 1 -3
BITMAP
000015550000
000140005000
000905540400
002810010400
00B842F04400
02F843F44400
03F842F44400
07F840504400
07F810010400
07FC05540000
07FE00000000
07FF90010000
02555FFD5550
07000BFC0010
2F0006BC0010
BF0105FC0410
FF0106FC0410
FF0107FC0410
FF0107FC0410
FF0107FC0410
FF0107FC0410
FF0107FC0410
FF0107FC0410
FF0107FC0410
FF0107FC0410
FF0107FC0410
FF0107FC0410
FF0107F81010
FF4040005010
FF4015550040
BFD000000040
BFF400000500
3FFFA556B400
1FFFFFFFD000
07FFFFFE0000
006BFFA40000
ENDCHAR
STARTCHAR Uhungarumlaut
ENCODING 368
SWIDTH 846 0
DWIDTH 24 0
BBX 22 34 1 -3
BITMAP
000055415500
000240150040
000B001D0040
002E007C0000
00BE10B81100
00FD10B81100
00FC10F44000
01FC01F40000
02F801F00000
02F802F00400
03FFFFFFFFD0
07400BFD0050
0B000BFC0010
2F0005FC0010
BF0106FC0410
FF0107FC0410
FF0107FC0410
FF0107FC0410
FF0107FC0410
FF0107FC0410
FF0107FC0410
FF0107FC0410
FF0107FC0410
FF0107FC0410
FF0106F80410
FF0100001010
FF0040005010
FF4015550000
BFC000000040
BFF400000500
7FFFA556B400
2FFFFFFFD000
07FFFFFE0000
006FFFA40000
ENDCHAR
STARTCHAR uhungarumlaut
ENCODING 369
SWIDTH 846 0
DWIDTH 24 0
BBX 22 34 1 -3
BITMAP
000055415500
000240150040
000B001D0040
002E007C0000
00BE10B81100
00FD10B81100
00FC10F44000
01FC01F40000
02F801F00000
02F802F00400
03FFFFFFFFD0
07400BFD0050
0B000BFC0010
2F0005FC0010
BF0106FC0410
FF0107FC0410
FF0107FC0410
FF0107FC0410
FF0107FC0410
FF0107FC0410
FF0107FC0410
FF0107FC0410
FF0107FC0410
FF0107FC0410
FF0106F80410
FF0100001010
FF0040005010
FF4015550000
BFC000000040
BFF400000500
7FFFA556B400
2FFFFFFFD000
07FFFFFE0000
006FFFA40000
ENDCHAR
STARTCHAR Uogonek
ENCODING 370
SWIDTH 846 0
DWIDTH 24 0
BBX 22 30 1 -9
BITMAP
015554055550
0700041C0010
2F00047C0010
BF0105FC0410
FF0106FC0410
FF0107FC0410
FF0107FC0410
FF0107FC0410
FF0107FC0410
FF0107FC0410
FF0107FC0410
FF0107FC0410
FF0107FC0410
FF0107FC0410
FF0107FC0410
FF0102A40410
FF0100001010
FF4040005010
BF8015550040
BFE000400100
7FFE40416800
2FFFF047D000
0BFFF0404000
01BFF0504000
000FF0004000
000FF9004000
000FFFFF4000
000FFFFD0000
0007FFE00000
000055400000
ENDCHAR
STARTCHAR uogonek
ENCODING 371
SWIDTH 846 0
DWIDTH 24 0
BBX 22 30 1 -9
BITMAP
015554055550
0700041C0010
2F00047C0010
BF0105FC0410
FF0106FC0410
FF0107FC0410
FF0107FC0410
FF0107FC0410
FF0107FC0410
FF0107FC0410
FF0107FC0410
FF0107FC0410
FF0107FC0410
FF0107FC0410
FF0107FC0410
FF0102A40410
FF0100001010
FF4040005010
BF8015550040
BFE000400100
7FFE40416800
2FFFF047D000
0BFFF0404000
01BFF0504000
000FF0004000
000FF9004000
000FFFFF4000
000FFFFD0000
0007FFE00000
000055400000
ENDCHAR
STARTCHAR Wcircumflex
ENCODING 372
SWIDTH 931 0
DWIDTH 26 0
BBX 24 32 1 -3
BITMAP
000000550000
000015005000
000040000500
000700550100
001F01004100
007F00000100
00FF05BE4100
00FFBFFFF900
02555FFFF555
0B000AFFE001
2F00041BE001
BF01040BE041
FF01041FE041
FF01041FE041
FF01041FE041
FF01045BE041
FF010600E041
FF010900A041
FF0108002041
FF0104141041
FF0100410041
FF0101004041
FF0101104041
FF4104381041
FF81043C1101
BFC0507C0504
BFD000BD0004
7FE000FE0004
3FF956FF9550
2FFFFAFFFF80
0FFFE1FFFD00
0BFF40BFF400
ENDCHAR
STARTCHAR wcircumflex
ENCODING 373
SWIDTH 931 0
DWIDTH 26 0
BBX 24 32 1 -3
BITMAP
000000550000
000015005000
000040000500
000700550100
001F01004100
007F00000100
00FF05BE4100
00FFBFFFF900
02555FFFF555
0B000AFFE001
2F00041BE001
BF01040BE041
FF01041FE041
FF01041FE041
FF01041FE041
FF01045BE041
FF010600E041
FF010900A041
FF0108002041
FF0104141041
FF0100410041
FF0101004041
FF0101104041
FF4104381041
FF81043C1101
BFC0507C0504
BFD000BD0004
7FE000FE0004
3FF956FF9550
2FFFFAFFFF80
0FFFE1FFFD00
0BFF40BFF400
ENDCHAR
STARTCHAR Ycircumflex
ENCODING 374
SWIDTH 805 0
DWIDTH 23 0
BBX 22 32 0 -3
BITMAP
000001540000
000014014000
000140001400
000901540100
002D04010100
00FD00000100
02FD06F90100
02FEBFFFF800
02955BFE5550
034007FE0010
0F40047E0010
3F4105FE0410
7F4105FE0410
7F4105FE0410
7F4102FD0410
7F8102FC0410
7F8040F40410
7FC040501010
7FE010004040
7FF404010140
3FFC04010100
1FFE01540400
0BFF80101000
02FFD0101000
00FFE0104000
007FE0104000
002FE0004000
000FF0004000
000FF5554000
000FFFFD0000
000FFFF40000
000BFF800000
ENDCHAR
STARTCHAR ycircumflex
ENCODING 375
SWIDTH 805 0
DWIDTH 23 0
BBX 22 32 0 -3
BITMAP
000001540000
000014014000
000140001400
000901540100
002D04010100
00FD00000100
02FD06F90100
02FEBFFFF800
02955BFE5550
034007FE0010
0F40047E0010
3F4105FE0410
7F4105FE0410
7F4105FE0410
7F4102FD0410
7F8102FC0410
7F8040F40410
7FC040501010
7FE010004040
7FF404010140
3FFC04010100
1FFE01540400
0BFF80101000
02FFD0101000
00FFE0104000
007FE0104000
002FE0004000
000FF0004000
000FF5554000
000FFFFD0000
000FFFF40000
000BFF800000
ENDCHAR
STARTCHAR Ydieresis
ENCODING 376
SWIDTH 805 0
DWIDTH 23 0
BBX 22 31 0 -3
BITMAP
000555055500
001800600100
00B800A00100
02F810A04100
07F800A00100
07F800A00100
07F800F00100
07FFFFFFFFE0
078007FE0020
1F4007FE0010
7F4005BE0010
7F4105FE0410
7F4105FE0410
7F4105FE0410
7F4102FD0410
7F8101F80410
7F8040B01000
7FD010004000
7FF404004000
3FFC04010100
1FFE01540400
0BFF40101000
02FFD0101000
00FFE0104000
007FE0104000
002FE0004000
000FF0004000
000FF5554000
000FFFFD0000
000FFFF40000
000BFF800000
ENDCHAR
STARTCHAR Zacute
ENCODING 377
SWIDTH 760 0
DWIDTH 21 0
BBX 21 31 0 -3
BITMAP
00000015A400
0001AFA54400
000940000400
007C15550400
01FC00000400
03FC00000000
03FC16AF8000
03D555555500
03C000000040
07C000000040
1FC055554040
3FC000004040
3FD000004040
3FFFFE010100
3FFFF8040100
2FFFF0100400
0556D0101000
000740405000
000D01004000
002804010000
00A010040000
01C040100000
078040155540
1F8100000040
3F8055555040
7F8000000040
7F8000000040
7F9555555540
7FFFFFFFFD00
7FFFFFFFF400
7FFFFFFF8000
ENDCHAR
STARTCHAR zacute
ENCODING 378
SWIDTH 760 0
DWIDTH 21 0
BBX 21 31 0 -3
BITMAP
00000015A400
0001AFA54400
000940000400
007C15550400
01FC00000400
03FC00000000
03FC16AF8000
03D555555500
03C000000040
07C000000040
1FC055554040
3FC000004040
3FD000004040
3FFFFE010100
3FFFF8040100
2FFFF0100400
0556D0101000
000740405000
000D01004000
002804010000
00A010040000
01C040100000
078040155540
1F8100000040
3F8055555040
7F8000000040
7F8000000040
7F9555555540
7FFFFFFFFD00
7FFFFFFFF400
7FFFFFFF8000
ENDCHAR
STARTCHAR Zdotaccent
ENCODING 379
SWIDTH 760 0
DWIDTH 21 0
BBX 21 31 0 -3
BITMAP
000015550000
000090010000
0002D0410000
000FD0410000
002FD0010000
002FD0010000
002FD0010000
005555555500
01C000000040
07C000000040
1FC055554040
3FC000004040
3FD000004040
3FFFFE010100
3FFFF8040100
2FFFF0100400
0556D0101000
000740405000
000D01004000
002804010000
00A010040000
01C040100000
078040155540
1F8100000040
3F8055555040
7F8000000040
7F8000000040
7F9555555540
7FFFFFFFFD00
7FFFFFFFF400
7FFFFFFF8000
ENDCHAR
STARTCHAR zdotaccent
ENCODING 380
SWIDTH 760 0
DWIDTH 21 0
BBX 21 31 0 -3
BITMAP
000015550000
000090010000
0002D0410000
000FD0410000
002FD0010000
002FD0010000
002FD0010000
005555555500
01C000000040
07C000000040
1FC055554040
3FC000004040
3FD000004040
3FFFFE010100
3FFFF8040100
2FFFF0100400
0556D0101000
000740405000
000D01004000
002804010000
00A010040000
01C040100000
078040155540
1F8100000040
3F8055555040
7F8000000040
7F8000000040
7F9555555540
7FFFFFFFFD00
7FFFFFFFF400
7FFFFFFF8000
ENDCHAR
STARTCHAR Zcaron
ENCODING 381
SWIDTH 760 0
DWIDTH 21 0
BBX 21 31 0 -3
BITMAP
000950015400
003805540400
01F810000400
03F805540400
07F800000000
07FE40004000
07FFF91A0000
03D555555500
01C000000040
07C000000040
1FC055554040
3FC000004040
3FD000004040
3FFFFE010100
3FFFF8040100
2FFFF0100400
0556D0101000
000740405000
000D01004000
002804010000
00A010040000
01C040100000
078040155540
1F8100000040
3F8055555040
7F8000000040
7F8000000040
7F9555555540
7FFFFFFFFD00
7FFFFFFFF400
7FFFFFFF8000
ENDCHAR
STARTCHAR zcaron
ENCODING 382
SWIDTH 760 0
DWIDTH 21 0
BBX 21 31 0 -3
BITMAP
000950015400
003805540400
01F810000400
03F805540400
07F800000000
07FE40004000
07FFF91A0000
03D555555500
01C000000040
07C000000040
1FC055554040
3FC000004040
3FD000004040
3FFFFE010100
3FFFF8040100
2FFFF0100400
0556D0101000
000740405000
000D01004000
002804010000
00A010040000
01C040100000
078040155540
1F8100000040
3F8055555040
7F8000000040
7F8000000040
7F9555555540
7FFFFFFFFD00
7FFFFFFFF400
7FFFFFFF8000
ENDCHAR
STARTCHAR Schwa
ENCODING 399
SWIDTH 815 0
DWIDTH 23 0
BBX 22 24 0 -3
BITMAP
000555555400
002C00000140
00BC15554010
02FC00001010
03FC00000410
03FFFFFD0400
03FFFFFE0400
03D555550400
028000000400
078000000400
1F8155555400
3F8100000400
7F8101550400
7F8103FE0400
7F8102FD0400
7F8100000400
7FC040001010
7FD015554010
3FF000000050
3FFD00000140
2FFFE955A800
1FFFFFFFE000
07FFFFFF8000
006BFFE40000
ENDCHAR
STARTCHAR florin
ENCODING 402
SWIDTH 674 0
DWIDTH 19 0
BBX 19 24 0 -3
BITMAP
0000015550
0000100004
0000800004
0002401404
000F414004
003F010150
007F010780
00AA010650
0140010004
0740010004
2F41555404
7F40010004
7F80010000
7FFF010BD0
7FFF010B00
7F94010400
0740040400
1F41500400
7F40001000
7F40004000
7F955A0000
7FFFF40000
7FFFD00000
7FF9000000
ENDCHAR
STARTCHAR Ohorn
ENCODING 416
SWIDTH 847 0
DWIDTH 24 0
BBX 23 27 1 -3
BITMAP
000000000554
000000002004
00000000B000
000155554044
001400000104
004000059414
024000006010
1F0100001010
3F0107F40410
BF010BFC0410
FF010BFC0410
FF010BFC0410
FF0107FC0410
FF0107FC0410
FF0107FC0410
FF0107FC0410
FF0107FC0410
FF0107F80010
FF0100401010
FF0040004010
FF4015550040
FFC000000040
FFF400000500
BFFFA556B400
3FFFFFFFC000
1BFFFFFE0000
01AFFFA00000
ENDCHAR
STARTCHAR ohorn
ENCODING 417
SWIDTH 847 0
DWIDTH 24 0
BBX 23 27 1 -3
BITMAP
000000000554
000000002004
00000000B000
000155554044
001400000104
004000059414
024000006010
1F0100001010
3F0107F40410
BF010BFC0410
FF010BFC0410
FF010BFC0410
FF0107FC0410
FF0107FC0410
FF0107FC0410
FF0107FC0410
FF0107FC0410
FF0107F80010
FF0100401010
FF0040004010
FF4015550040
FFC000000040
FFF400000500
BFFFA556B400
3FFFFFFFC000
1BFFFFFE0000
01AFFFA00000
ENDCHAR
STARTCHAR Uhorn
ENCODING 431
SWIDTH 856 0
DWIDTH 24 0
BBX 24 27 1 -3
BITMAP
000000000554
000000002401
00000000F001
015554055041
0700042C0041
2F0004BC0504
BF0106FC0410
FF0107FC0410
FF0107FC0410
FF0107FC0410
FF0107FC0410
FF0107FC0410
FF0107FC0410
FF0107FC0410
FF0107FC0410
FF0107FC0410
FF0107FC0410
FF0102A40410
FF0100001010
FF4040005010
FF4015550040
FFD000000040
BFF400000500
7FFFA556B400
2FFFFFFFD000
0BFFFFFE0000
006FFFA40000
ENDCHAR
STARTCHAR uhorn
ENCODING 432
SWIDTH 856 0
DWIDTH 24 0
BBX 24 27 1 -3
BITMAP
000000000554
000000002401
00000000F001
015554055041
0700042C0041
2F0004BC0504
BF0106FC0410
FF0107FC0410
FF0107FC0410
FF0107FC0410
FF0107FC0410
FF0107FC0410
FF0107FC0410
FF0107FC0410
FF0107FC0410
FF0107FC0410
FF0107FC0410
FF0102A40410
FF0100001010
FF4040005010
FF4015550040
FFD000000040
BFF400000500
7FFFA556B400
2FFFFFFFD000
0BFFFFFE0000
006FFFA40000
ENDCHAR
STARTCHAR Acaron
ENCODING 461
SWIDTH 830 0
DWIDTH 23 0
BBX 22 31 1 -3
BITMAP
000950015400
003805540400
01F810000400
03F805540400
07F800000000
07FE40004000
07FFF91A0000
07FE55555000
01BC00001000
002800000400
00B405540400
02F010010000
03E000010100
07D041D04100
0BC043E04040
0F8107F01040
1F4107F01040
3F010AA41010
7E0400001010
BE0400000410
FE0555555410
FE0400000410
FE0405540410
FE040FF80410
FE040FF80410
FE000FF80010
FE0007F80010
FF5553FD5540
FFFF83FFFF40
FFFE03FFF800
FFF402FFE000
ENDCHAR
STARTCHAR acaron
ENCODING 462
SWIDTH 830 0
DWIDTH 23 0
BBX 22 31 1 -3
BITMAP
000950015400
003805540400
01F810000400
03F805540400
07F800000000
07FE40004000
07FFF91A0000
07FE55555000
01BC00001000
002800000400
00B405540400
02F010010000
03E000010100
07D041D04100
0BC043E04040
0F8107F01040
1F4107F01040
3F010AA41010
7E0400001010
BE0400000410
FE0555555410
FE0400000410
FE0405540410
FE040FF80410
FE040FF80410
FE000FF80010
FE0007F80010
FF5553FD5540
FFFF83FFFF40
FFFE03FFF800
FFF402FFE000
ENDCHAR
STARTCHAR Icaron
ENCODING 463
SWIDTH 705 0
DWIDTH 20 0
BBX 19 31 0 -3
BITMAP
0025400550
00A0055010
02E0000410
0FE0155010
0FF0000000
0FFD000140
0FFFE46D00
0FD5555554
0280000004
0B80000004
2F81555504
3F80010004
7F80010004
7FFA4102A0
7FFF410380
3FFF410200
1ABF410100
007F410100
007F410100
007F410100
007F410100
007F410100
006A410154
0180010004
0B81555504
2F80000004
3F80000004
7FD5555554
7FFFFFFFE0
7FFFFFFF40
3FFFFFFD00
ENDCHAR
STARTCHAR icaron
ENCODING 464
SWIDTH 705 0
DWIDTH 20 0
BBX 19 31 0 -3
BITMAP
0025400550
00A0055010
02E0000410
0FE0155010
0FF0000000
0FFD000140
0FFFE46D00
0FD5555554
0280000004
0B80000004
2F81555504
3F80010004
7F80010004
7FFA4102A0
7FFF410380
3FFF410200
1ABF410100
007F410100
007F410100
007F410100
007F410100
007F410100
006A410154
0180010004
0B81555504
2F80000004
3F80000004
7FD5555554
7FFFFFFFE0
7FFFFFFF40
3FFFFFFD00
ENDCHAR
STARTCHAR Ocaron
ENCODING 465
SWIDTH 837 0
DWIDTH 23 0
BBX 22 32 1 -3
BITMAP
000100015400
001801540400
007800000400
02F814050400
07F801500400
07FD00000400
07FF90019000
07FFF91B4000
03FFA5565000
007400000500
008015550040
074040004040
1F0100001010
7F0107F40010
BF000BFC0410
FF000BFC0410
FF000BFC0410
FF0007FC0410
FF0007FC0410
FF0007FC0410
FF0007FC0410
FF0007FC0410
FF0107F80010
FF0100401010
FF0040004010
FF4015550040
FFC000000040
BFF400000500
7FFFA556B400
2FFFFFFFD000
0BFFFFFE0000
006FFFA40000
ENDCHAR
STARTCHAR ocaron
ENCODING 466
SWIDTH 837 0
DWIDTH 23 0
BBX 22 32 1 -3
BITMAP
000100015400
001801540400
007800000400
02F814050400
07F801500400
07FD00000400
07FF90019000
07FFF91B4000
03FFA5565000
007400000500
008015550040
074040004040
1F0100001010
7F0107F40010
BF000BFC0410
FF000BFC0410
FF000BFC0410
FF0007FC0410
FF0007FC0410
FF0007FC0410
FF0007FC0410
FF0007FC0410
FF0107F80010
FF0100401010
FF0040004010
FF4015550040
FFC000000040
BFF400000500
7FFFA556B400
2FFFFFFFD000
0BFFFFFE0000
006FFFA40000
ENDCHAR
STARTCHAR Ucaron
ENCODING 467
SWIDTH 846 0
DWIDTH 24 0
BBX 22 32 1 -3
BITMAP
000140015400
000801540400
007800000400
01F814050400
03F801500400
03FD00000000
03FF90004000
03FFF91B0000
02555FFD5550
07000BAC0010
2F0004BC0010
BF0106FC0410
FF0107FC0410
FF0107FC0410
FF0107FC0410
FF0107FC0410
FF0107FC0410
FF0107FC0410
FF0107FC0410
FF0107FC0410
FF0107FC0410
FF0107FC0410
FF0102A40410
FF0100001010
FF4040005010
FF4015550040
BFD000000040
BFF400000500
3FFFA556B400
1FFFFFFFD000
07FFFFFE0000
006BFFA40000
ENDCHAR
STARTCHAR ucaron
ENCODING 468
SWIDTH 846 0
DWIDTH 24 0
BBX 22 32 1 -3
BITMAP
000140015400
000801540400
007800000400
01F814050400
03F801500400
03FD00000000
03FF90004000
03FFF91B0000
02555FFD5550
07000BAC0010
2F0004BC0010
BF0106FC0410
FF0107FC0410
FF0107FC0410
FF0107FC0410
FF0107FC0410
FF0107FC0410
FF0107FC0410
FF0107FC0410
FF0107FC0410
FF0107FC0410
FF0107FC0410
FF0102A40410
FF0100001010
FF4040005010
FF4015550040
BFD000000040
BFF400000500
3FFFA556B400
1FFFFFFFD000
07FFFFFE0000
006BFFA40000
ENDCHAR
STARTCHAR Udieresismacron
ENCODING 469
SWIDTH 846 0
DWIDTH 24 0
BBX 22 37 1 -3
BITMAP
000155555000
001800000400
007800000400
01F815550400
03F800000400
07FC00000400
07FFFFFFF400
07F401E00100
03F000D00100
03F000D04100
0BF000D00100
0BF000D00100
0BF401E00400
0BFFFFFFFFD0
0B400BFD0050
2F000BFC0010
BF0005FC0010
FF0106FC0410
FF0107FC0410
FF0107FC0410
FF0107FC0410
FF0107FC0410
FF0107FC0410
FF0107FC0410
FF0107FC0410
FF0107FC0410
FF0107FC0410
FF0106F80410
FF0100001010
FF0040005010
FF4015550000
BFC000000040
BFF400000500
3FFFA556B400
1FFFFFFFD000
07FFFFFE0000
006BFFA40000
ENDCHAR
STARTCHAR udieresismacron
ENCODING 470
SWIDTH 846 0
DWIDTH 24 0
BBX 22 37 1 -3
BITMAP
000155555000
001800000400
007800000400
01F815550400
03F800000400
07FC00000400
07FFFFFFF400
07F401E00100
03F000D00100
03F000D04100
0BF000D00100
0BF000D00100
0BF401E00400
0BFFFFFFFFD0
0B400BFD0050
2F000BFC0010
BF0005FC0010
FF0106FC0410
FF0107FC0410
FF0107FC0410
FF0107FC0410
FF0107FC0410
FF0107FC0410
FF0107FC0410
FF0107FC0410
FF0107FC0410
FF0107FC0410
FF0106F80410
FF0100001010
FF0040005010
FF4015550000
BFC000000040
BFF400000500
3FFFA556B400
1FFFFFFFD000
07FFFFFE0000
006BFFA40000
ENDCHAR
STARTCHAR Udieresisacute
ENCODING 471
SWIDTH 846 0
DWIDTH 24 0
BBX 22 38 1 -3
BITMAP
000000010000
000001BE8000
00001E504000
000078144000
0001F8004000
0007F8000000
0007F8010000
0006A9A55400
002001D00100
00F000D00100
07F000D04100
0BF000D00100
0BF000D00100
0BF401E00400
0BFFFFFFFFD0
0F400BFD0050
2F000BFC0010
BF0005FC0010
FF0106FC0410
FF0107FC0410
FF0107FC0410
FF0107FC0410
FF0107FC0410
FF0107FC0410
FF0107FC0410
FF0107FC0410
FF0107FC0410
FF0107FC0410
FF0106F80410
FF0100001010
FF0040005010
FF4015550000
BFC000000040
BFF400000500
3FFFA556B400
1FFFFFFFD000
07FFFFFE0000
006BFFA40000
ENDCHAR
STARTCHAR udieresisacute
ENCODING 472
SWIDTH 846 0
DWIDTH 24 0
BBX 22 38 1 -3
BITMAP
000000010000
000001BE8000
00001E504000
000078144000
0001F8004000
0007F8000000
0007F8010000
0006A9A55400
002001D00100
00F000D00100
07F000D04100
0BF000D00100
0BF000D00100
0BF401E00400
0BFFFFFFFFD0
0F400BFD0050
2F000BFC0010
BF0005FC0010
FF0106FC0410
FF0107FC0410
FF0107FC0410
FF0107FC0410
FF0107FC0410
FF0107FC0410
FF0107FC0410
FF0107FC0410
FF0107FC0410
FF0107FC0410
FF0106F80410
FF0100001010
FF0040005010
FF4015550000
BFC000000040
BFF400000500
3FFFA556B400
1FFFFFFFD000
07FFFFFE0000
006BFFA40000
ENDCHAR
STARTCHAR Udieresiscaron
ENCODING 473
SWIDTH 846 0
DWIDTH 24 0
BBX 22 38 1 -3
BITMAP
000400015400
001801540400
00B800000400
02F814050400
03FC01500400
03FF40006000
03FFF91B8000
03FAABFA5400
02F001D00100
00B000D00100
03F000D04100
0BF000D00100
0BF000D00100
0BF401E00400
0BFFFFFFFFD0
0B400BFD0050
2F000BFC0010
BF0005FC0010
FF0106FC0410
FF0107FC0410
FF0107FC0410
FF0107FC0410
FF0107FC0410
FF0107FC0410
FF0107FC0410
FF0107FC0410
FF0107FC0410
FF0107FC0410
FF0106F80410
FF0100001010
FF0040005010
FF4015550000
BFC000000040
BFF400000500
3FFFA556B400
1FFFFFFFD000
07FFFFFE0000
006BFFA40000
ENDCHAR
STARTCHAR udieresiscaron
ENCODING 474
SWIDTH 846 0
DWIDTH 24 0
BBX 22 38 1 -3
BITMAP
000400015400
001801540400
00B800000400
02F814050400
03FC01500400
03FF40006000
03FFF91B8000
03FAABFA5400
02F001D00100
00B000D00100
03F000D04100
0BF000D00100
0BF000D00100
0BF401E00400
0BFFFFFFFFD0
0B400BFD0050
2F000BFC0010
BF0005FC0010
FF0106FC0410
FF0107FC0410
FF0107FC0410
FF0107FC0410
FF0107FC0410
FF0107FC0410
FF0107FC0410
FF0107FC0410
FF0107FC0410
FF0107FC0410
FF0106F80410
FF0100001010
FF0040005010
FF4015550000
BFC000000040
BFF400000500
3FFFA556B400
1FFFFFFFD000
07FFFFFE0000
006BFFA40000
ENDCHAR
STARTCHAR Udieresisgrave
ENCODING 475
SWIDTH 846 0
DWIDTH 24 0
BBX 22 38 1 -3
BITMAP
000004000000
00007BE40000
0001D0690000
000BD1410000
001FD0010000
002FD0010000
002FE4000000
002AABD15400
002001D00100
00F000D00100
07F000D04100
0BF000D00100
0BF000D00100
0BF401E00400
0BFFFFFFFFD0
0F400BFD0050
2F000BFC0010
BF0005FC0010
FF0106FC0410
FF0107FC0410
FF0107FC0410
FF0107FC0410
FF0107FC0410
FF0107FC0410
FF0107FC0410
FF0107FC0410
FF0107FC0410
FF0107FC0410
FF0106F80410
FF0100001010
FF0040005010
FF4015550000
BFC000000040
BFF400000500
3FFFA556B400
1FFFFFFFD000
07FFFFFE0000
006BFFA40000
ENDCHAR
STARTCHAR udieresisgrave
ENCODING 476
SWIDTH 846 0
DWIDTH 24 0
BBX 22 38 1 -3
BITMAP
000004000000
00007BE40000
0001D0690000
000BD1410000
001FD0010000
002FD0010000
002FE4000000
002AABD15400
002001D00100
00F000D00100
07F000D04100
0BF000D00100
0BF000D00100
0BF401E00400
0BFFFFFFFFD0
0F400BFD0050
2F000BFC0010
BF0005FC0010
FF0106FC0410
FF0107FC0410
FF0107FC0410
FF0107FC0410
FF0107FC0410
FF0107FC0410
FF0107FC0410
FF0107FC0410
FF0107FC0410
FF0107FC0410
FF0106F80410
FF0100001010
FF0040005010
FF4015550000
BFC000000040
BFF400000500
3FFFA556B400
1FFFFFFFD000
07FFFFFE0000
006BFFA40000
ENDCHAR
STARTCHAR Gcaron
ENCODING 486
SWIDTH 808 0
DWIDTH 23 0
BBX 21 31 1 -3
BITMAP
001550055400
007405500400
01F400000400
07F405500400
0BF400000000
0BFE40004000
0BFFF41A0000
07FE55555400
01A000000400
004000000400
024055550400
0B0100000400
3F0100000400
7F0107FFE000
BF010BFF8000
FF010BFE0000
FF0105595540
FF0104240040
FF0104B40040
FF0107F41040
FF010BF41040
FF0107F41040
FF0100001040
FF0140001040
FF4015555040
FF8000000040
BFE000000040
7FFE95555540
2FFFFFFFFD00
0BFFFFFFF400
01BFFFFFD000
ENDCHAR
STARTCHAR gcaron
ENCODING 487
SWIDTH 808 0
DWIDTH 23 0
BBX 21 31 1 -3
BITMAP
001550055400
007405500400
01F400000400
07F405500400
0BF400000000
0BFE40004000
0BFFF41A0000
07FE55555400
01A000000400
004000000400
024055550400
0B0100000400
3F0100000400
7F0107FFE000
BF010BFF8000
FF010BFE0000
FF0105595540
FF0104240040
FF0104B40040
FF0107F41040
FF010BF41040
FF0107F41040
FF0100001040
FF0140001040
FF4015555040
FF8000000040
BFE000000040
7FFE95555540
2FFFFFFFFD00
0BFFFFFFF400
01BFFFFFD000
ENDCHAR
STARTCHAR Scommaaccent
ENCODING 536
SWIDTH 750 0
DWIDTH 21 0
BBX 21 34 0 -13
BITMAP
000155555500
001400000100
005000000100
02C015554100
0B8040000100
1F8100000100
3F8102FFF800
7F8102FFD000
7F8100015000
7F8050000500
7FC005540100
7FE000004040
3FF900000040
3FFFE9401040
1FFFFFF01040
07EAAA900040
028000004040
0B8155550040
2F8000000000
7F8000000000
7F8000005000
7FFFFFFF8000
7FFFE5550000
3FFFD0000000
000BD1500000
001FD0040000
002FD0040000
002FFF850000
002FE0110000
001FE1410000
000BF4540000
000FFFD00000
001FFF400000
000FF8000000
ENDCHAR
STARTCHAR scommaaccent
ENCODING 537
SWIDTH 750 0
DWIDTH 21 0
BBX 21 34 0 -13
BITMAP
000155555500
001400000100
005000000100
02C015554100
0B8040000100
1F8100000100
3F8102FFF800
7F8102FFD000
7F8100015000
7F8050000500
7FC005540100
7FE000004040
3FF900000040
3FFFE9401040
1FFFFFF01040
07EAAA900040
028000004040
0B8155550040
2F8000000000
7F8000000000
7F8000005000
7FFFFFFF8000
7FFFE5550000
3FFFD0000000
000BD1500000
001FD0040000
002FD0040000
002FFF850000
002FE0110000
001FE1410000
000BF4540000
000FFFD00000
001FFF400000
000FF8000000
ENDCHAR
STARTCHAR uni021A
ENCODING 538
SWIDTH 756 0
DWIDTH 21 0
BBX 21 34 0 -13
BITMAP
015555555540
070000000040
1F0000000040
7F0155555040
FF0000400040
FF4000400040
FFFFC041FF00
FFFFC041F800
BFFFC041E000
157FC0414000
002FC0410000
002FC0410000
002FC0410000
002FC0410000
002FC0410000
002FC0410000
002FC0410000
002FC0410000
002FC0010000
002FC0010000
002FD0010000
002FFFFC0000
002FD5550000
001FC0010000
000BC1510000
002FC0110000
002FD0110000
002FFF510000
002FE0110000
002FD1410000
000BE0540000
001FFFD00000
001FFF000000
001FF8000000
ENDCHAR
STARTCHAR uni021B
ENCODING 539
SWIDTH 756 0
DWIDTH 21 0
BBX 21 34 0 -13
BITMAP
015555555540
070000000040
1F0000000040
7F0155555040
FF0000400040
FF4000400040
FFFFC041FF00
FFFFC041F800
BFFFC041E000
157FC0414000
002FC0410000
002FC0410000
002FC0410000
002FC0410000
002FC0410000
002FC0410000
002FC0410000
002FC0410000
002FC0010000
002FC0010000
002FD0010000
002FFFFC0000
002FD5550000
001FC0010000
000BC1510000
002FC0110000
002FD0110000
002FFF510000
002FE0110000
002FD1410000
000BE0540000
001FFFD00000
001FFF000000
001FF8000000
ENDCHAR
STARTCHAR dotlessj
ENCODING 567
SWIDTH 788 0
DWIDTH 22 0
BBX 21 24 0 -3
BITMAP
000000055540
000000740040
000001F40040
000007F41040
00000BF41040
00000BF41040
00000BF41040
00000BF41040
00000BF41040
00555BF41040
02400BF41040
0B400BF41040
3F410BF41040
BF410BF41040
BF4106E01040
BF4100001040
BF8040004040
BF8015550040
7FD000000100
7FF800000400
3FFFA556A000
1FFFFFFF8000
07FFFFFD0000
006BFF900000
ENDCHAR
STARTCHAR ascript
ENCODING 593
SWIDTH 846 0
DWIDTH 24 0
BBX 22 24 1 -3
BITMAP
000155555000
001400000500
004015550040
024040004040
1F0100001010
3F0106E41010
BF000BF80010
FF000BF80010
FF000BF80010
FF0007F80010
FF0007F80010
FF0007F80010
FF0007F80010
FF0007F80010
FF0107F80010
FF0100000010
FF0140000010
FF4015555010
FF8000000010
FFE000000010
BFFE95555550
7FFFFFFFFF40
1FFFFFFFF800
01BFFFFFE000
ENDCHAR
STARTCHAR schwa
ENCODING 601
SWIDTH 815 0
DWIDTH 23 0
BBX 22 24 0 -3
BITMAP
000555555400
002C00000140
00BC15554010
02FC00001010
03FC00000410
03FFFFFD0400
03FFFFFE0400
03D555550400
028000000400
078000000400
1F8155555400
3F8100000400
7F8101550400
7F8103FE0400
7F8102FD0400
7F8100000400
7FC040001010
7FD015554010
3FF000000050
3FFD00000140
2FFFE955A800
1FFFFFFFE000
07FFFFFF8000
006BFFE40000
ENDCHAR
STARTCHAR gscript
ENCODING 609
SWIDTH 815 0
DWIDTH 23 0
BBX 23 26 0 -5
BITMAP
000055555400
000500000140
001000000050
00C005554010
078050001010
1F8000000400
2F8102FD0404
3F8103FE0404
7F8103FE0404
7F8102FE0404
7F8100000404
7FC040000404
7FD015555404
7FF400000404
3FFE40000404
2FFFFFFE0404
0FFFFFFD0404
02FD55540400
002C00000410
007C00001410
02FC15554050
03FC00000140
03FD55556900
03FFFFFFF000
03FFFFFF8000
02FFFFF90000
ENDCHAR
STARTCHAR commaturnedmod
ENCODING 699
SWIDTH 600 0
DWIDTH 17 0
BBX 11 13 3 8
BITMAP
001554
008544
074404
1F12E0
7F1004
BF1004
FF1544
FF0004
FF0004
FFFFE0
FFFF80
FFFD00
155400
ENDCHAR
STARTCHAR apostrophemod
ENCODING 700
SWIDTH 600 0
DWIDTH 17 0
BBX 11 13 3 8
BITMAP
005554
020004
1F0004
7F0544
FF0044
FF0044
FFFD44
FF8044
FF4500
7F8150
7FFF00
BFF800
7FE000
ENDCHAR
STARTCHAR ringhalfright
ENCODING 702
SWIDTH 412 0
DWIDTH 12 0
BBX 12 13 0 8
BITMAP
015550
070544
1F0041
7F4041
BFF841
BFFC41
BFA841
1B0041
1F0544
7F9564
BFFF80
BFFE00
BFF400
ENDCHAR
STARTCHAR ringhalfleft
ENCODING 703
SWIDTH 412 0
DWIDTH 12 0
BBX 12 13 0 8
BITMAP
001554
014141
074401
2F0469
7F04B4
BF0490
BF0454
BF4401
BF8141
BFE555
BFFFF4
7FFFD0
1FFE00
ENDCHAR
STARTCHAR circumflex
ENCODING 710
SWIDTH 600 0
DWIDTH 17 0
BBX 17 11 0 18
BITMAP
0000150000
0005005400
0050000100
0240550040
0B41004040
3F40000040
7F41BE9040
BFFFFFFE00
BFFFFFF800
BF95BFE000
6400064000
ENDCHAR
STARTCHAR caron
ENCODING 711
SWIDTH 600 0
DWIDTH 17 0
BBX 17 11 0 17
BITMAP
0010005540
0240150040
0B40000040
3F41005040
BF80550040
BFE4000900
BFFF41B400
BFFFFFD000
2FFFFE4000
02FFE40000
0015000000
ENDCHAR
STARTCHAR verticallinemod
ENCODING 712
SWIDTH 456 0
DWIDTH 13 0
BBX 11 15 1 6
BITMAP
015554
070004
2F0004
BF0104
FF0104
FF0104
FF0104
FF0104
FF0004
FF0004
FF0004
FFFFE0
FFFF80
FFFD00
555400
ENDCHAR
STARTCHAR firsttonechinese
ENCODING 713
SWIDTH 600 0
DWIDTH 17 0
BBX 17 9 0 17
BITMAP
0055555500
0240000040
0B41554040
3F40000040
BF40000040
BFFFFFFE00
BFFFFFF400
7FFFFFD000
1555550000
ENDCHAR
STARTCHAR secondtonechinese
ENCODING 714
SWIDTH 600 0
DWIDTH 17 0
BBX 17 10 0 17
BITMAP
0001555540
0050000040
0240054040
1F41500040
7F40000500
BF856BFC00
BFFFFFE000
BFFFFF8000
7FEA540000
1000000000
ENDCHAR
STARTCHAR fourthtonechinese
ENCODING 715
SWIDTH 600 0
DWIDTH 17 0
BBX 17 10 0 17
BITMAP
0145555000
0740000500
1F41500040
7F40054040
BF90000040
BFFFEA5140
BFFFFFFD00
7FFFFFF400
016AFFC000
0000010000
ENDCHAR
STARTCHAR verticallinelowmod
ENCODING 716
SWIDTH 456 0
DWIDTH 13 0
BBX 11 15 1 -8
BITMAP
015554
070004
2F0004
BF0104
FF0104
FF0104
FF0104
FF0104
FF0004
FF0004
FF0004
FFFFE0
FFFF80
FFFD00
555400
ENDCHAR
STARTCHAR breve
ENCODING 728
SWIDTH 600 0
DWIDTH 17 0
BBX 17 11 0 17
BITMAP
0055405500
0240470040
0B006F0040
3F44140440
BF45001040
BFC0554100
BFF9005800
BFFFFFE000
7FFFFF8000
1BFFFD0000
0055500000
ENDCHAR
STARTCHAR dotaccent
ENCODING 729
SWIDTH 600 0
DWIDTH 17 0
BBX 11 10 3 17
BITMAP
005554
020004
1F0104
7F0104
BF0004
FF4004
FFFFE0
FFFF80
BFFD00
155400
ENDCHAR
STARTCHAR ring
ENCODING 730
SWIDTH 600 0
DWIDTH 17 0
BBX 17 15 0 17
BITMAP
0001555000
0010000500
0080554100
0745001040
1F043E1040
7F047F0440
BF047E0440
BF44141040
BF45001040
BFC1554100
BFF9001900
BFFFFFE000
7FFFFF8000
1FFFFD0000
0155500000
ENDCHAR
STARTCHAR ogonek
ENCODING 731
SWIDTH 600 0
DWIDTH 17 0
BBX 12 12 3 -9
BITMAP
005550
028410
0B4410
2F4414
7F0401
7F0501
BF4001
BFD000
BFFFF4
BFFFD0
7FFF00
055400
ENDCHAR
STARTCHAR tilde
ENCODING 732
SWIDTH 600 0
DWIDTH 17 0
BBX 17 10 0 17
BITMAP
0015540500
0040005040
0340000040
1F41554040
7F40000040
BF96940500
BFFFFFF800
BFFFFFE000
BFFFFF4000
1001540000
ENDCHAR
STARTCHAR hungarumlaut
ENCODING 733
SWIDTH 600 0
DWIDTH 17 0
BBX 18 12 -1 17
BITMAP
0005541550
0060048010
01D00B8010
0BC10F4410
1FC11F0410
2F802F0440
2F402E0040
3F407E0040
7FFFFFFE00
BFFEFFF800
BFF1FFD000
1540550000
ENDCHAR
STARTCHAR gravecmb
ENCODING 768
SWIDTH 100 0
DWIDTH 3 0
BBX 17 10 -7 17
BITMAP
0145555000
0740000500
1F41500040
7F40054040
BF90000040
BFFFEA5140
BFFFFFFD00
7FFFFFF400
016AFFC000
0000010000
ENDCHAR
STARTCHAR acutecmb
ENCODING 769
SWIDTH 100 0
DWIDTH 3 0
BBX 17 10 -7 17
BITMAP
0001555540
0050000040
0240054040
1F41500040
7F40000500
BF856BFC00
BFFFFFE000
BFFFFF8000
7FEA540000
1000000000
ENDCHAR
STARTCHAR circumflexcmb
ENCODING 770
SWIDTH 100 0
DWIDTH 3 0
BBX 17 11 -7 18
BITMAP
0000150000
0005005400
0050000100
0240550040
0B41004040
3F40000040
7F41BE9040
BFFFFFFE00
BFFFFFF800
BF95BFE000
6400064000
ENDCHAR
STARTCHAR tildecmb
ENCODING 771
SWIDTH 100 0
DWIDTH 3 0
BBX 17 10 -7 17
BITMAP
0015540500
0040005040
0340000040
1F41554040
7F40000040
BF96940500
BFFFFFF800
BFFFFFE000
7FFFFF4000
1001540000
ENDCHAR
STARTCHAR uni0304
ENCODING 772
SWIDTH 600 0
DWIDTH 17 0
BBX 17 9 0 17
BITMAP
0055555500
0240000040
0B41554040
3F40000040
BF40000040
BFFFFFFE00
BFFFFFF400
7FFFFFD000
1555550000
ENDCHAR
STARTCHAR brevecmb
ENCODING 774
SWIDTH 100 0
DWIDTH 3 0
BBX 17 11 -7 17
BITMAP
0055405500
0240470040
0B006F0040
3F44140440
BF45001040
BFC0554100
BFF9005800
BFFFFFE000
7FFFFF8000
1BFFFD0000
0055500000
ENDCHAR
STARTCHAR dotaccentcmb
ENCODING 775
SWIDTH 100 0
DWIDTH 3 0
BBX 11 10 -4 17
BITMAP
005554
030004
1F0104
7F0104
FF0004
FF0004
FFFFE0
FFFF80
BFFD00
155400
ENDCHAR
STARTCHAR dieresiscmb
ENCODING 776
SWIDTH 100 0
DWIDTH 3 0
BBX 17 10 -7 17
BITMAP
0055515540
0600180040
1E002C0040
BE042C1040
FE002C0040
FF002D0040
FFFFFFFF00
FFFFFFF800
FFF6FFE000
5550554000
ENDCHAR
STARTCHAR hookcmb
ENCODING 777
SWIDTH 100 0
DWIDTH 3 0
BBX 13 12 -4 18
BITMAP
00555400
07000100
1F055040
7F000440
FFFF4440
FFE40440
FFD15040
6FD00100
1FE6A800
2FFFE000
2FFF8000
1FE90000
ENDCHAR
STARTCHAR ringcmb
ENCODING 778
SWIDTH 100 0
DWIDTH 3 0
BBX 17 15 -7 17
BITMAP
0001555000
0010000500
0080554100
0745001040
1F043E1040
7F047F0440
BF047E0440
BF44141040
BF45001040
BFC1554100
BFF9001900
BFFFFFE000
7FFFFF8000
1FFFFD0000
0155500000
ENDCHAR
STARTCHAR hungarumlautcmb
ENCODING 779
SWIDTH 100 0
DWIDTH 3 0
BBX 19 12 -7 17
BITMAP
0005541550
0060048004
01E0078010
0BD10F8410
0FC10F4410
1F811F0410
2F402E0040
3F403E0040
7FFFFFFE00
7FFDFFF800
BFF5FFD000
1540554000
ENDCHAR
STARTCHAR caroncmb
ENCODING 780
SWIDTH 100 0
DWIDTH 3 0
BBX 17 11 -7 17
BITMAP
0010005540
0240150040
0B40000040
3F41005040
BF80550040
BFE4000900
BFFF41B400
BFFFFFD000
2FFFFE4000
02FFE40000
0015000000
ENDCHAR
STARTCHAR horncmb
ENCODING 795
SWIDTH 100 0
DWIDTH 3 0
BBX 10 11 -4 13
BITMAP
001550
018010
078010
1E0110
3E0410
7E1010
FE0140
FFFD00
FFF400
FF8000
540000
ENDCHAR
STARTCHAR dotbelowcmb
ENCODING 803
SWIDTH 100 0
DWIDTH 3 0
BBX 11 10 -4 -11
BITMAP
005554
030004
1F0104
7F0104
FF0004
FF0004
FFFFE0
FFFF80
BFFD00
155400
ENDCHAR
STARTCHAR dieresisbelowcmb
ENCODING 804
SWIDTH 100 0
DWIDTH 3 0
BBX 17 10 -7 -11
BITMAP
0055515540
0600180040
1E002C0040
BE042C1040
FE002C0040
FF002D0040
FFFFFFFF00
FFFFFFF800
FFF6FFE000
5550554000
ENDCHAR
STARTCHAR commaaccent
ENCODING 806
SWIDTH 600 0
DWIDTH 17 0
BBX 11 13 3 -13
BITMAP
005554
020004
1F0004
7F0544
FF0044
FF0044
FFFD44
FF8044
FF4500
7F8150
7FFF00
BFF800
7FE000
ENDCHAR
STARTCHAR cedillacmb
ENCODING 807
SWIDTH 100 0
DWIDTH 3 0
BBX 12 12 -5 -7
BITMAP
000540
001805
00B401
02E041
07D041
0BC104
0F8004
1F4004
2F9550
3FFF80
BFFE00
7FF400
ENDCHAR
STARTCHAR ogonekcmb
ENCODING 808
SWIDTH 100 0
DWIDTH 3 0
BBX 12 12 -4 -9
BITMAP
001550
01C110
07C110
1F8115
2F8101
3F8141
3FC001
7FE001
7FFFF8
3FFFE0
2FFF80
015500
ENDCHAR
STARTCHAR brevebelowcmb
ENCODING 814
SWIDTH 100 0
DWIDTH 3 0
BBX 17 11 -7 -12
BITMAP
0055405500
0240470040
0B006F0040
3F44140440
BF45001040
BFC0554100
BFF9005800
BFFFFFE000
7FFFFF8000
1BFFFD0000
0055500000
ENDCHAR
STARTCHAR macronbelowcmb
ENCODING 817
SWIDTH 100 0
DWIDTH 3 0
BBX 17 9 -7 -10
BITMAP
0055555500
0240000040
0B41554040
3F40000040
7F80000040
BFFFFFFE00
BFFFFFF400
7FFFFFD000
1555550000
ENDCHAR
STARTCHAR uni0394
ENCODING 916
SWIDTH 830 0
DWIDTH 23 0
BBX 22 25 1 -4
BITMAP
000055554000
000500001000
001C00000400
00B805540400
02F410010400
03F000010400
07E041810100
0BE042D04100
0BD042D04100
0FC043E04000
1F8107F04040
2F8107F01040
3F410BF41040
3F010FF81040
7F040FF81010
BE040AA81010
BE0400001010
FE0400001010
FE0155555010
FE0000000010
FF0000000010
FFFFFFFFFF40
FFFFFFFFFD00
FFFFFFFFF400
555555554000
ENDCHAR
STARTCHAR uni03A9
ENCODING 937
SWIDTH 877 0
DWIDTH 25 0
BBX 25 25 0 -4
BITMAP
00001555540000
00014000014000
00040000001000
00600555500400
01E01000040400
07D04000010400
0FD040FF410400
1FD041FF410400
1FD041FF410400
1FD041BF410400
1FD0417F410400
1FD0417F410400
1FD0417F410400
1FE0417F410400
1FE0417F410400
1FE040BF410500
1F40102C040040
1F40042C100040
3F41542C154040
BF40002C000040
BF40002C000100
BFFFFFFFFFFD00
BFFFFFFFFFF400
BFFFF7FFFF8000
15554055550000
ENDCHAR
STARTCHAR uni03BC
ENCODING 956
SWIDTH 813 0
DWIDTH 23 0
BBX 21 22 1 -5
BITMAP
005550055540
060004240040
1F0005F40040
7F010BF41040
FF010BF41040
FF010BF41040
FF010BF41040
FF010BF41040
FF010BF41040
FF010BF41040
FF0107F01040
FF0200001040
FF0140014040
FF0115540040
FF0100000100
FF0100001900
FF000AAAE000
FF000BFF8000
FF555FFD0000
FFFFFF900000
FFFF40000000
BFF800000000
ENDCHAR
STARTCHAR pi
ENCODING 960
SWIDTH 821 0
DWIDTH 23 0
BBX 21 21 1 -4
BITMAP
001555555500
020000000040
0B0000000040
2F0155555040
BF0100001040
FF0100001040
FF0106A41040
FF010BF41040
FF010BF41040
FF010BF41040
FF010BF41040
FF010BF41040
FF010BF41040
FF010BF41040
FF000BF40040
FF000BF40040
FF000BF80040
FFFFEBFFFF00
FFFF4BFFF800
FFFD07FFE000
155001554000
ENDCHAR
STARTCHAR Ddotbelow
ENCODING 7692
SWIDTH 846 0
DWIDTH 24 0
BBX 22 31 1 -10
BITMAP
005555555400
070000000100
1F0000000040
7F0155554010
BF0100001010
BF0100000410
BF0106A80410
BF0107FC0410
BF0107FC0410
BF0107FC0410
BF0106FC0410
BF0106FC0410
BF0106FC0410
BF0106FC0410
BF0106FC0410
BF0106A40410
BF0100001010
BF0155554010
BF0000000040
BF0000000140
BF4000001900
BFFFFFFFE000
BFFFE4018000
7FFFD0004000
000BD0404000
001FD0404000
001FD0000000
001FE5550000
001FFFF80000
001FFFE00000
001FFF400000
ENDCHAR
STARTCHAR ddotbelow
ENCODING 7693
SWIDTH 846 0
DWIDTH 24 0
BBX 22 31 1 -10
BITMAP
005555555400
070000000100
1F0000000040
7F0155554010
BF0100001010
BF0100000410
BF0106A80410
BF0107FC0410
BF0107FC0410
BF0107FC0410
BF0106FC0410
BF0106FC0410
BF0106FC0410
BF0106FC0410
BF0106FC0410
BF0106A40410
BF0100001010
BF0155554010
BF0000000040
BF0000000140
BF4000001900
BFFFFFFFE000
BFFFE4018000
7FFFD0004000
000BD0404000
001FD0404000
001FD0000000
001FE5550000
001FFFF80000
001FFFE00000
001FFF400000
ENDCHAR
STARTCHAR Dlinebelow
ENCODING 7694
SWIDTH 846 0
DWIDTH 24 0
BBX 22 31 1 -10
BITMAP
005555555400
070000000100
1F0000000040
7F0155554010
BF0100001010
BF0100000410
BF0106A80410
BF0107FC0410
BF0107FC0410
BF0107FC0410
BF0106FC0410
BF0106FC0410
BF0106FC0410
BF0106FC0410
BF0106FC0410
BF0106A40410
BF0100001010
BF0155554010
BF0000000040
BF4000000500
BFAAAAAAB400
BFFFFFFFE000
BFF800000400
7FF800000400
00B815550400
03F800000400
07F800000400
07FFFFFFE000
07FFFFFF4000
03FFFFFD0000
015555500000
ENDCHAR
STARTCHAR dlinebelow
ENCODING 7695
SWIDTH 846 0
DWIDTH 24 0
BBX 22 31 1 -10
BITMAP
005555555400
070000000100
1F0000000040
7F0155554010
BF0100001010
BF0100000410
BF0106A80410
BF0107FC0410
BF0107FC0410
BF0107FC0410
BF0106FC0410
BF0106FC0410
BF0106FC0410
BF0106FC0410
BF0106FC0410
BF0106A40410
BF0100001010
BF0155554010
BF0000000040
BF4000000500
BFAAAAAAB400
BFFFFFFFE000
BFF800000400
7FF800000400
00B815550400
03F800000400
07F800000400
07FFFFFFE000
07FFFFFF4000
03FFFFFD0000
015555500000
ENDCHAR
STARTCHAR Gmacron
ENCODING 7712
SWIDTH 808 0
DWIDTH 23 0
BBX 21 30 1 -3
BITMAP
000155555400
000800000400
003C05550400
01FC00000400
02FC00000400
03FD00000400
03FFFFFFF800
03FE50000800
02E000000400
018055550400
0B4100000400
2F0100000400
7F0107FFE000
BF010BFF8000
FF010BFE0000
FF0105595540
FF0104240040
FF0104B40040
FF0107F41040
FF010BF41040
FF0107F41040
FF0100001040
FF0140001040
FF4015555040
FF8000000040
BFE000000040
7FFE95555540
2FFFFFFFFD00
0BFFFFFFF400
01BFFFFFD000
ENDCHAR
STARTCHAR gmacron
ENCODING 7713
SWIDTH 808 0
DWIDTH 23 0
BBX 21 30 1 -3
BITMAP
000155555400
000800000400
003C05550400
01FC00000400
02FC00000400
03FD00000400
03FFFFFFF800
03FE50000800
02E000000400
018055550400
0B4100000400
2F0100000400
7F0107FFE000
BF010BFF8000
FF010BFE0000
FF0105595540
FF0104240040
FF0104B40040
FF0107F41040
FF010BF41040
FF0107F41040
FF0100001040
FF0140001040
FF4015555040
FF8000000040
BFE000000040
7FFE95555540
2FFFFFFFFD00
0BFFFFFFF400
01BFFFFFD000
ENDCHAR
STARTCHAR Hdotbelow
ENCODING 7716
SWIDTH 859 0
DWIDTH 24 0
BBX 22 31 1 -10
BITMAP
005554015550
0700041D0010
1F00047D0010
7F0105FD0410
BF0106FD0410
BF0106FD0410
BF0106FD0410
BF0106A80410
BF0100000410
BF0100000410
BF0155555410
BF0100000410
BF0100000410
BF0105540410
BF0107FD0410
BF0107FD0410
BF0107FD0410
BF0106FD0410
BF0006FD0010
BF0006FD0010
BF9556FE5550
BFFFE6AAFF40
BFFFA000FD00
7FFAE000F400
0007E0404000
001FE0404000
001FE0004000
001FF5550000
001FFFF80000
001FFFE00000
000FFF800000
ENDCHAR
STARTCHAR hdotbelow
ENCODING 7717
SWIDTH 859 0
DWIDTH 24 0
BBX 22 31 1 -10
BITMAP
005554015550
0700041D0010
1F00047D0010
7F0105FD0410
BF0106FD0410
BF0106FD0410
BF0106FD0410
BF0106A80410
BF0100000410
BF0100000410
BF0155555410
BF0100000410
BF0100000410
BF0105540410
BF0107FD0410
BF0107FD0410
BF0107FD0410
BF0106FD0410
BF0006FD0010
BF0006FD0010
BF9556FE5550
BFFFE6AAFF40
BFFFA000FD00
7FFAE000F400
0007E0404000
001FE0404000
001FE0004000
001FF5550000
001FFFF80000
001FFFE00000
000FFF800000
ENDCHAR
STARTCHAR Hbrevebelow
ENCODING 7722
SWIDTH 859 0
DWIDTH 24 0
BBX 22 31 1 -10
BITMAP
005554015550
0700041D0010
1F00047D0010
7F0105FD0410
BF0106FD0410
BF0106FD0410
BF0106FD0410
BF0106A80410
BF0100000410
BF0100000410
BF0155555410
BF0100000410
BF0100000410
BF0107FD0410
BF0107FD0410
BF0107FD0410
BF0106FD0410
BF0106FD0410
BF0006FD0010
BF4006FD0010
BFAAA6FEAA40
BFFE96FEAB00
BFF802F80100
7FF801F40100
01FC10004000
03FD05550400
03FF40001400
03FFFA5A9000
03FFFFFE0000
01FFFFF80000
002BFE900000
ENDCHAR
STARTCHAR hbrevebelow
ENCODING 7723
SWIDTH 859 0
DWIDTH 24 0
BBX 22 31 1 -10
BITMAP
005554015550
0700041D0010
1F00047D0010
7F0105FD0410
BF0106FD0410
BF0106FD0410
BF0106FD0410
BF0106A80410
BF0100000410
BF0100000410
BF0155555410
BF0100000410
BF0100000410
BF0107FD0410
BF0107FD0410
BF0107FD0410
BF0106FD0410
BF0106FD0410
BF0006FD0010
BF4006FD0010
BFAAA6FEAA40
BFFE96FEAB00
BFF802F80100
7FF801F40100
01FC10004000
03FD05550400
03FF40001400
03FFFA5A9000
03FFFFFE0000
01FFFFF80000
002BFE900000
ENDCHAR
STARTCHAR Ldotbelow
ENCODING 7734
SWIDTH 795 0
DWIDTH 22 0
BBX 21 31 1 -10
BITMAP
005554000000
070004000000
1F0004000000
7F0104000000
BF0104000000
BF0104000000
BF0104000000
BF0104000000
BF0104000000
BF0104055540
BF0104240040
BF0104B40040
BF0107F41040
BF0107F41040
BF0107F41040
BF0100001040
BF0100001040
BF0155555040
BF0000000040
BF0000000040
BF4000000000
BFFFFFFFFD00
BFFFD002F400
7FFFC0018000
000BC0410000
002FC0410000
002FC0010000
002FE5550000
002FFFF40000
002FFFD00000
001FFF400000
ENDCHAR
STARTCHAR ldotbelow
ENCODING 7735
SWIDTH 795 0
DWIDTH 22 0
BBX 21 31 1 -10
BITMAP
005554000000
070004000000
1F0004000000
7F0104000000
BF0104000000
BF0104000000
BF0104000000
BF0104000000
BF0104000000
BF0104055540
BF0104240040
BF0104B40040
BF0107F41040
BF0107F41040
BF0107F41040
BF0100001040
BF0100001040
BF0155555040
BF0000000040
BF0000000040
BF4000000000
BFFFFFFFFD00
BFFFD002F400
7FFFC0018000
000BC0410000
002FC0410000
002FC0010000
002FE5550000
002FFFF40000
002FFFD00000
001FFF400000
ENDCHAR
STARTCHAR Ldotbelowmacron
ENCODING 7736
SWIDTH 795 0
DWIDTH 22 0
BBX 21 37 1 -10
BITMAP
000555555000
002400001000
00F015540000
07F000000000
0BF000000000
0BF400000000
0BFFFFFF8000
0B400BFE0000
1F0007F40000
7F0004000000
BF0104000000
BF0104000000
BF0104000000
BF0104000000
BF0104000000
BF0104055540
BF0104240040
BF0104B40040
BF0107F41040
BF0107F41040
BF0107F41040
BF0100001040
BF0100001040
BF0155555040
BF0000000040
BF0000000040
BF4000000000
BFFFFFFFFD00
BFFFD002F400
7FFFC0018000
000BC0410000
002FC0410000
002FC0010000
002FE5550000
002FFFF40000
002FFFD00000
001FFF400000
ENDCHAR
STARTCHAR ldotbelowmacron
ENCODING 7737
SWIDTH 795 0
DWIDTH 22 0
BBX 21 37 1 -10
BITMAP
000555555000
002400001000
00F015540000
07F000000000
0BF000000000
0BF400000000
0BFFFFFF8000
0B400BFE0000
1F0007F40000
7F0004000000
BF0104000000
BF0104000000
BF0104000000
BF0104000000
BF0104000000
BF0104055540
BF0104240040
BF0104B40040
BF0107F41040
BF0107F41040
BF0107F41040
BF0100001040
BF0100001040
BF0155555040
BF0000000040
BF0000000040
BF4000000000
BFFFFFFFFD00
BFFFD002F400
7FFFC0018000
000BC0410000
002FC0410000
002FC0010000
002FE5550000
002FFFF40000
002FFFD00000
001FFF400000
ENDCHAR
STARTCHAR Llinebelow
ENCODING 7738
SWIDTH 795 0
DWIDTH 22 0
BBX 21 30 1 -9
BITMAP
005554000000
070004000000
1F0004000000
7F0104000000
BF0104000000
BF0104000000
BF0104000000
BF0104000000
BF0104000000
BF0104055540
BF0104240040
BF0104B40040
BF0107F41040
BF0107F41040
BF0107F41040
BF0100001040
BF0100001040
BF0155555040
BF0000000040
BF4000000040
BFFFFFFFFE00
BFF400001800
BFF000001000
7FF015541000
07F000001000
0BF400001000
0BFFFFFFD000
0BFFFFFE0000
0BFFFFF80000
015555500000
ENDCHAR
STARTCHAR llinebelow
ENCODING 7739
SWIDTH 795 0
DWIDTH 22 0
BBX 21 30 1 -9
BITMAP
005554000000
070004000000
1F0004000000
7F0104000000
BF0104000000
BF0104000000
BF0104000000
BF0104000000
BF0104000000
BF0104055540
BF0104240040
BF0104B40040
BF0107F41040
BF0107F41040
BF0107F41040
BF0100001040
BF0100001040
BF0155555040
BF0000000040
BF4000000040
BFFFFFFFFE00
BFF400001800
BFF000001000
7FF015541000
07F000001000
0BF400001000
0BFFFFFFD000
0BFFFFFE0000
0BFFFFF80000
015555500000
ENDCHAR
STARTCHAR Mdotbelow
ENCODING 7746
SWIDTH 949 0
DWIDTH 27 0
BBX 25 31 1 -10
BITMAP
00555400155500
07000100800040
1F000102800040
7F01404B014040
BF01102D044040
BF01042C104040
BF010100504040
BF010100404040
BF010041004040
BF010014004040
BF010800204040
BF010900604040
BF010B00E04040
BF010BEBE04040
BF010BFFE04040
BF010BEFE04040
BF010A4FE04040
BF01040FE04040
BF00040FE00040
BF00040FE00040
BF95540FF55500
BFFFD15ABFF800
BFFF08002FE000
7FF87C002F8000
0001FC04100000
0003FC00100000
0003FC00100000
0003FD55400000
0003FFFF400000
0003FFFC000000
0002FFE0000000
ENDCHAR
STARTCHAR mdotbelow
ENCODING 7747
SWIDTH 949 0
DWIDTH 27 0
BBX 25 31 1 -10
BITMAP
00555400155500
07000100800040
1F000102800040
7F01404B014040
BF01102D044040
BF01042C104040
BF010100504040
BF010100404040
BF010041004040
BF010014004040
BF010800204040
BF010900604040
BF010B00E04040
BF010BEBE04040
BF010BFFE04040
BF010BEFE04040
BF010A4FE04040
BF01040FE04040
BF00040FE00040
BF00040FE00040
BF95540FF55500
BFFFD15ABFF800
BFFF08002FE000
7FF87C002F8000
0001FC04100000
0003FC00100000
0003FC00100000
0003FD55400000
0003FFFF400000
0003FFFC000000
0002FFE0000000
ENDCHAR
STARTCHAR Ndotaccent
ENCODING 7748
SWIDTH 853 0
DWIDTH 24 0
BBX 22 31 1 -3
BITMAP
000015550000
000060004000
0002E0404000
000BE0404000
001FE0004000
001FE0004000
001FE0000000
00556FFE5550
07000FFC0010
1F0003FC0010
7F0101FC0410
BF01407C0410
BF01102C0410
BF0104080410
BF0101000410
BF0100400410
BF0100100410
BF0100040410
BF0109050410
BF010B010410
BF010B804410
BF010BE01410
BF010BF80410
BF010BFC0410
BF010BFC0410
BF000BFC0010
BF0006FC0010
BF9556FE5550
BFFFD2FFFF40
BFFF42FFFD00
7FF801FFE000
ENDCHAR
STARTCHAR ndotaccent
ENCODING 7749
SWIDTH 853 0
DWIDTH 24 0
BBX 22 31 1 -3
BITMAP
000015550000
000060004000
0002E0404000
000BE0404000
001FE0004000
001FE0004000
001FE0000000
00556FFE5550
07000FFC0010
1F0003FC0010
7F0101FC0410
BF01407C0410
BF01102C0410
BF0104080410
BF0101000410
BF0100400410
BF0100100410
BF0100040410
BF0109050410
BF010B010410
BF010B804410
BF010BE01410
BF010BF80410
BF010BFC0410
BF010BFC0410
BF000BFC0010
BF0006FC0010
BF9556FE5550
BFFFD2FFFF40
BFFF42FFFD00
7FF801FFE000
ENDCHAR
STARTCHAR Ndotbelow
ENCODING 7750
SWIDTH 853 0
DWIDTH 24 0
BBX 22 31 1 -10
BITMAP
005550015550
0700041C0010
1F00017C0010
7F0101FC0410
BF01407C0410
BF01102C0410
BF0104080410
BF0101000410
BF0100400410
BF0100100410
BF0100040410
BF0109050410
BF010B010410
BF010B804410
BF010BE01410
BF010BF80410
BF010BFC0410
BF010BFC0410
BF000BFC0010
BF0006FC0010
BF9556FE5550
BFFFE6AAFF40
BFFFA000FD00
7FFAE000E000
000BE0404000
001FE0404000
001FE0004000
001FF5550000
001FFFF80000
001FFFE00000
000FFF400000
ENDCHAR
STARTCHAR ndotbelow
ENCODING 7751
SWIDTH 853 0
DWIDTH 24 0
BBX 22 31 1 -10
BITMAP
005550015550
0700041C0010
1F00017C0010
7F0101FC0410
BF01407C0410
BF01102C0410
BF0104080410
BF0101000410
BF0100400410
BF0100100410
BF0100040410
BF0109050410
BF010B010410
BF010B804410
BF010BE01410
BF010BF80410
BF010BFC0410
BF010BFC0410
BF000BFC0010
BF0006FC0010
BF9556FE5550
BFFFE6AAFF40
BFFFA000FD00
7FFAE000E000
000BE0404000
001FE0404000
001FE0004000
001FF5550000
001FFFF80000
001FFFE00000
000FFF400000
ENDCHAR
STARTCHAR Nlinebelow
ENCODING 7752
SWIDTH 853 0
DWIDTH 24 0
BBX 22 30 1 -9
BITMAP
005550055550
0700041C0010
1F00017C0010
7F0141FC0410
BF01507C0410
BF01101C0410
BF0104080410
BF0101000410
BF0100400410
BF0100100410
BF0104040410
BF0109010410
BF010B414410
BF010BC04410
BF010BE01410
BF010BF80410
BF010BFC0410
BF010BFC0410
BF000BFC0010
BF4006FD0010
BF9556FE5550
BFFE96AAAF40
BFFC00000400
7FFC05550400
01FC00000400
03FC00000400
03FFFFFFF400
03FFFFFF8000
03FFFFFE0000
005555540000
ENDCHAR
STARTCHAR nlinebelow
ENCODING 7753
SWIDTH 853 0
DWIDTH 24 0
BBX 22 30 1 -9
BITMAP
005550055550
0700041C0010
1F00017C0010
7F0141FC0410
BF01507C0410
BF01101C0410
BF0104080410
BF0101000410
BF0100400410
BF0100100410
BF0104040410
BF0109010410
BF010B414410
BF010BC04410
BF010BE01410
BF010BF80410
BF010BFC0410
BF010BFC0410
BF000BFC0010
BF4006FD0010
BF9556FE5550
BFFE96AAAF40
BFFC00000400
7FFC05550400
01FC00000400
03FC00000400
03FFFFFFF400
03FFFFFF8000
03FFFFFE0000
005555540000
ENDCHAR
STARTCHAR Rdotbelow
ENCODING 7770
SWIDTH 843 0
DWIDTH 24 0
BBX 22 31 1 -10
BITMAP
005555555000
070000000400
1F0000000100
7F0155540100
BF0100010040
BF0106904040
BF010BE04040
BF010BE04000
BF010BE04100
BF0100004100
BF0100004040
BF0155554010
BF0100001010
BF0100000410
BF010BFD0410
BF010BFD0410
BF010BFD0410
BF0106FD0410
BF0005FD0010
BF0005FD0010
BF9555FE5550
BFFFD5AAFF80
BFFF6000BE00
7FF9F000B400
0007F0104000
000FF0004000
000FF0004000
000FF5550000
000FFFFD0000
000FFFE00000
000BFF800000
ENDCHAR
STARTCHAR rdotbelow
ENCODING 7771
SWIDTH 843 0
DWIDTH 24 0
BBX 22 31 1 -10
BITMAP
005555555000
070000000400
1F0000000100
7F0155540100
BF0100010040
BF0106904040
BF010BE04040
BF010BE04000
BF010BE04100
BF0100004100
BF0100004040
BF0155554010
BF0100001010
BF0100000410
BF010BFD0410
BF010BFD0410
BF010BFD0410
BF0106FD0410
BF0005FD0010
BF0005FD0010
BF9555FE5550
BFFFD5AAFF80
BFFF6000BE00
7FF9F000B400
0007F0104000
000FF0004000
000FF0004000
000FF5550000
000FFFFD0000
000FFFE00000
000BFF800000
ENDCHAR
STARTCHAR Rdotbelowmacron
ENCODING 7772
SWIDTH 843 0
DWIDTH 24 0
BBX 22 37 1 -10
BITMAP
001555554000
006000001000
01E055541000
07E000001000
1FE000001000
1FE000001000
1FFFFFFF8000
1F4000015400
1F0000000100
2F0155540100
BF0100010000
BF0106904040
BF010BE04040
BF010BE04000
BF010BE04100
BF0100004100
BF0100004040
BF0155554010
BF0100001010
BF0100000410
BF010BFD0410
BF010BFD0410
BF010BFD0410
BF0106FD0410
BF0005FD0010
BF0005FD0010
BF9555FE5550
BFFFD5AAFF80
BFFF6000BE00
7FF9F000B400
0007F0104000
000FF0004000
000FF0004000
000FF5550000
000FFFFD0000
000FFFE00000
000BFF800000
ENDCHAR
STARTCHAR rdotbelowmacron
ENCODING 7773
SWIDTH 843 0
DWIDTH 24 0
BBX 22 37 1 -10
BITMAP
001555554000
006000001000
01E055541000
07E000001000
1FE000001000
1FE000001000
1FFFFFFF8000
1F4000015400
1F0000000100
2F0155540100
BF0100010000
BF0106904040
BF010BE04040
BF010BE04000
BF010BE04100
BF0100004100
BF0100004040
BF0155554010
BF0100001010
BF0100000410
BF010BFD0410
BF010BFD0410
BF010BFD0410
BF0106FD0410
BF0005FD0010
BF0005FD0010
BF9555FE5550
BFFFD5AAFF80
BFFF6000BE00
7FF9F000B400
0007F0104000
000FF0004000
000FF0004000
000FF5550000
000FFFFD0000
000FFFE00000
000BFF800000
ENDCHAR
STARTCHAR Rlinebelow
ENCODING 7774
SWIDTH 843 0
DWIDTH 24 0
BBX 22 30 1 -9
BITMAP
005555555000
070000000400
1F0155540100
7F0100010100
BF0100004040
BF0106904040
BF010BE04040
BF010BE04000
BF010BE04100
BF0100004100
BF0100014040
BF0155554010
BF0100001010
BF0100000410
BF0107FD0410
BF010BFD0410
BF010BFD0410
BF0106FD0410
BF0005FD0010
BF4005FD0010
BF9555FF5550
BFFE95AAAF80
BFF800000900
7FF815550400
01F800000400
03FC00000400
03FFFFFFE000
03FFFFFF8000
03FFFFFD0000
015555540000
ENDCHAR
STARTCHAR rlinebelow
ENCODING 7775
SWIDTH 843 0
DWIDTH 24 0
BBX 22 30 1 -9
BITMAP
005555555000
070000000400
1F0155540100
7F0100010100
BF0100004040
BF0106904040
BF010BE04040
BF010BE04000
BF010BE04100
BF0100004100
BF0100014040
BF0155554010
BF0100001010
BF0100000410
BF0107FD0410
BF010BFD0410
BF010BFD0410
BF0106FD0410
BF0005FD0010
BF4005FD0010
BF9555FF5550
BFFE95AAAF80
BFF800000900
7FF815550400
01F800000400
03FC00000400
03FFFFFFE000
03FFFFFF8000
03FFFFFD0000
015555540000
ENDCHAR
STARTCHAR Sdotaccent
ENCODING 7776
SWIDTH 750 0
DWIDTH 21 0
BBX 21 31 0 -3
BITMAP
000015550000
000090010000
0002D0410000
000FD0410000
002FD0010000
002FD0010000
002FD0010000
002E95555500
002400000100
005000000100
01C015554100
0B8040000100
1F8100000100
3F8102FFF800
3F8102BFD000
7F8100015000
7F8050000100
7FC005540100
7FE000004040
3FF900000040
3FFFE9401040
1FFFFFF01040
07EAAA900040
028000004040
0B8155550040
2F8000000100
7F8000000400
7FD55555A000
7FFFFFFF8000
7FFFFFFE0000
3FFFFFE40000
ENDCHAR
STARTCHAR sdotaccent
ENCODING 7777
SWIDTH 750 0
DWIDTH 21 0
BBX 21 31 0 -3
BITMAP
000015550000
000090010000
0002D0410000
000FD0410000
002FD0010000
002FD0010000
002FD0010000
002E95555500
002400000100
005000000100
01C015554100
0B8040000100
1F8100000100
3F8102FFF800
3F8102BFD000
7F8100015000
7F8050000100
7FC005540100
7FE000004040
3FF900000040
3FFFE9401040
1FFFFFF01040
07EAAA900040
028000004040
0B8155550040
2F8000000100
7F8000000400
7FD55555A000
7FFFFFFF8000
7FFFFFFE0000
3FFFFFE40000
ENDCHAR
STARTCHAR Sdotbelow
ENCODING 7778
SWIDTH 750 0
DWIDTH 21 0
BBX 21 31 0 -10
BITMAP
000155555500
001400000100
005000000100
02C015554100
0B8040000100
1F8100000100
3F8102FFF800
7F8102FFD000
7F8100015000
7F8050000500
7FC005540100
7FE000004040
3FF900000040
3FFFE9401040
1FFFFFF01040
07EAAA900040
028000004040
0B8155550040
2F8000000100
7F8000000100
7F8000005400
7FFFFFFFC000
7FFFE0010000
3FFFD0010000
000BD0410000
001FD0410000
002FD0010000
002FE5550000
002FFFF80000
002FFFE00000
001FFF400000
ENDCHAR
STARTCHAR sdotbelow
ENCODING 7779
SWIDTH 750 0
DWIDTH 21 0
BBX 21 31 0 -10
BITMAP
000155555500
001400000100
005000000100
02C015554100
0B8040000100
1F8100000100
3F8102FFF800
7F8102FFD000
7F8100015000
7F8050000500
7FC005540100
7FE000004040
3FF900000040
3FFFE9401040
1FFFFFF01040
07EAAA900040
028000004040
0B8155550040
2F8000000100
7F8000000100
7F8000005400
7FFFFFFFC000
7FFFE0010000
3FFFD0010000
000BD0410000
001FD0410000
002FD0010000
002FE5550000
002FFFF80000
002FFFE00000
001FFF400000
ENDCHAR
STARTCHAR Tdotbelow
ENCODING 7788
SWIDTH 756 0
DWIDTH 21 0
BBX 21 31 0 -10
BITMAP
015555555540
070000000040
1F0000000040
7F0155555040
FF0000400040
FF4000400040
FFFFC041FF00
FFFFC041F800
BFFFC041E000
157FC0414000
002FC0410000
002FC0410000
002FC0410000
002FC0410000
002FC0410000
002FC0410000
002FC0410000
002FC0410000
002FC0010000
002FC0010000
002FD0010000
002FFFFC0000
002FD0010000
001FD0010000
000BD0410000
002FD0410000
002FD0010000
002FE5550000
002FFFF80000
002FFFD00000
001FFF400000
ENDCHAR
STARTCHAR tdotbelow
ENCODING 7789
SWIDTH 756 0
DWIDTH 21 0
BBX 21 31 0 -10
BITMAP
015555555540
070000000040
1F0000000040
7F0155555040
FF0000400040
FF4000400040
FFFFC041FF00
FFFFC041F800
BFFFC041E000
157FC0414000
002FC0410000
002FC0410000
002FC0410000
002FC0410000
002FC0410000
002FC0410000
002FC0410000
002FC0410000
002FC0010000
002FC0010000
002FD0010000
002FFFFC0000
002FD0010000
001FD0010000
000BD0410000
002FD0410000
002FD0010000
002FE5550000
002FFFF80000
002FFFD00000
001FFF400000
ENDCHAR
STARTCHAR Tlinebelow
ENCODING 7790
SWIDTH 756 0
DWIDTH 21 0
BBX 21 30 0 -9
BITMAP
015555555540
070000000040
2F0155555040
BF0000400040
FF0000400040
FF9540405540
FFFFC041FE00
FFFFC041F800
BFFFC041D000
002FC0410000
002FC0410000
002FC0410000
002FC0410000
002FC0410000
002FC0410000
002FC0410000
002FC0410000
002FC0410000
002FC0010000
002FC0010000
002FE5550000
002EAAA95000
002800000400
00B815550400
02F800000400
07F800000400
07FFFFFFE000
07FFFFFF8000
07FFFFFD0000
015555500000
ENDCHAR
STARTCHAR tlinebelow
ENCODING 7791
SWIDTH 756 0
DWIDTH 21 0
BBX 21 30 0 -9
BITMAP
015555555540
070000000040
2F0155555040
BF0000400040
FF0000400040
FF9540405540
FFFFC041FE00
FFFFC041F800
BFFFC041D000
002FC0410000
002FC0410000
002FC0410000
002FC0410000
002FC0410000
002FC0410000
002FC0410000
002FC0410000
002FC0410000
002FC0010000
002FC0010000
002FE5550000
002EAAA95000
002800000400
00B815550400
02F800000400
07F800000400
07FFFFFFE000
07FFFFFF8000
07FFFFFD0000
015555500000
ENDCHAR
STARTCHAR Wgrave
ENCODING 7808
SWIDTH 931 0
DWIDTH 26 0
BBX 24 31 1 -3
BITMAP
0001A9400000
000715ABA800
002E00001600
00BE01554100
01FE00000100
01FF50000100
01FFFFA95000
01555FFFF555
07000BFFE001
2F0005AFE001
BF01040BE041
FF01041FE041
FF01041FE041
FF01041FE041
FF01045BE041
FF010600E041
FF010900A041
FF0108002041
FF0104141041
FF0100410041
FF0101004041
FF0101104041
FF4104381041
FF81043C1101
FFC0507C0504
BFD000BD0004
7FE000FE0004
3FF956FF9550
2FFFFAFFFF80
0FFFE1FFFD00
0BFF40BFF400
ENDCHAR
STARTCHAR wgrave
ENCODING 7809
SWIDTH 931 0
DWIDTH 26 0
BBX 24 31 1 -3
BITMAP
0001A9400000
000715ABA800
002E00001600
00BE01554100
01FE00000100
01FF50000100
01FFFFA95000
01555FFFF555
07000BFFE001
2F0005AFE001
BF01040BE041
FF01041FE041
FF01041FE041
FF01041FE041
FF01045BE041
FF010600E041
FF010900A041
FF0108002041
FF0104141041
FF0100410041
FF0101004041
FF0101104041
FF4104381041
FF81043C1101
FFC0507C0504
BFD000BD0004
7FE000FE0004
3FF956FF9550
2FFFFAFFFF80
0FFFE1FFFD00
0BFF40BFF400
ENDCHAR
STARTCHAR Wacute
ENCODING 7810
SWIDTH 931 0
DWIDTH 26 0
BBX 24 31 1 -3
BITMAP
000000056A00
00006AEA5140
000290000040
000B41554040
002F40000040
00BF40000400
00BF456BF400
01555FFFE555
07000BEAA001
2F000402E001
BF01040BE041
FF01041FE041
FF01041FE041
FF01041FE041
FF01045BE041
FF010600E041
FF010900A041
FF0108002041
FF0104141041
FF0100410041
FF0101004041
FF0101104041
FF4104381041
FF81043C1101
FFC0507C0504
BFD000BD0004
7FE000FE0004
3FF956FF9550
2FFFFAFFFF80
0FFFE1FFFD00
0BFF40BFF400
ENDCHAR
STARTCHAR wacute
ENCODING 7811
SWIDTH 931 0
DWIDTH 26 0
BBX 24 31 1 -3
BITMAP
000000056A00
00006AEA5140
000290000040
000B41554040
002F40000040
00BF40000400
00BF456BF400
01555FFFE555
07000BEAA001
2F000402E001
BF01040BE041
FF01041FE041
FF01041FE041
FF01041FE041
FF01045BE041
FF010600E041
FF010900A041
FF0108002041
FF0104141041
FF0100410041
FF0101004041
FF0101104041
FF4104381041
FF81043C1101
FFC0507C0504
BFD000BD0004
7FE000FE0004
3FF956FF9550
2FFFFAFFFF80
0FFFE1FFFD00
0BFF40BFF400
ENDCHAR
STARTCHAR Wdieresis
ENCODING 7812
SWIDTH 931 0
DWIDTH 26 0
BBX 24 31 1 -3
BITMAP
000155455500
000500280040
002D00380040
00BD04381040
01FD00380040
02FD00380040
02FD00380100
02FFFFFFFFFE
02401FFFE401
0B000BFFE001
2F00045BE001
BF01040FE041
FF01041FE041
FF01041FE041
FF01045BE041
FF010600E041
FF010900A041
FF0108002041
FF0104141041
FF0100410041
FF0101004041
FF0101104041
FF4104381041
FF81043C1101
FFC0507C0504
BFD000BD0004
7FE000FE0004
3FF956FF9550
2FFFFAFFFF80
1FFFE1FFFD00
0BFF40BFF400
ENDCHAR
STARTCHAR wdieresis
ENCODING 7813
SWIDTH 931 0
DWIDTH 26 0
BBX 24 31 1 -3
BITMAP
000155455500
000500280040
002D00380040
00BD04381040
01FD00380040
02FD00380040
02FD00380100
02FFFFFFFFFE
02401FFFE401
0B000BFFE001
2F00045BE001
BF01040FE041
FF01041FE041
FF01041FE041
FF01045BE041
FF010600E041
FF010900A041
FF0108002041
FF0104141041
FF0100410041
FF0101004041
FF0101104041
FF4104381041
FF81043C1101
FFC0507C0504
BFD000BD0004
7FE000FE0004
3FF956FF9550
2FFFFAFFFF80
1FFFE1FFFD00
0BFF40BFF400
ENDCHAR
STARTCHAR Ydotaccent
ENCODING 7822
SWIDTH 805 0
DWIDTH 23 0
BBX 22 31 0 -3
BITMAP
000005550000
000060004000
0001F0004000
0007F0104000
000FF0004000
000FF0004000
000FF0004000
00555BFE5550
024007FE0010
0F4007FE0010
3F4005FE0010
7F4105FE0410
7F4105FE0410
7F4105FE0410
7F8102FD0410
7F8101F80410
7FC040B01010
7FE010004040
7FF404004140
3FFC04010100
1FFE01540400
0BFF80101000
02FFD0101000
00FFE0104000
007FE0104000
002FE0004000
000FF0004000
000FF5554000
000FFFFD0000
000FFFF40000
000BFF800000
ENDCHAR
STARTCHAR ydotaccent
ENCODING 7823
SWIDTH 805 0
DWIDTH 23 0
BBX 22 31 0 -3
BITMAP
000005550000
000060004000
0001F0004000
0007F0104000
000FF0004000
000FF0004000
000FF0004000
00555BFE5550
024007FE0010
0F4007FE0010
3F4005FE0010
7F4105FE0410
7F4105FE0410
7F4105FE0410
7F8102FD0410
7F8101F80410
7FC040B01010
7FE010004040
7FF404004140
3FFC04010100
1FFE01540400
0BFF80101000
02FFD0101000
00FFE0104000
007FE0104000
002FE0004000
000FF0004000
000FF5554000
000FFFFD0000
000FFFF40000
000BFF800000
ENDCHAR
STARTCHAR Zdotbelow
ENCODING 7826
SWIDTH 760 0
DWIDTH 21 0
BBX 21 31 0 -10
BITMAP
005555555500
01C000000040
07C000000040
1FC055554040
3FC000004040
3FD000004040
3FFFFE010100
3FFFF8040100
2FFFF0100400
0556D0101000
000740405000
000E01004000
002804010000
00B010040000
01D040100000
078040155540
1F8100000040
3F8055555040
7F8000000040
7F8000000040
7F8000000040
7FFFFFFFFD00
7FFFE401F400
7FFFE000C000
000BE0404000
001FE0404000
001FE0004000
001FF5550000
001FFFF80000
001FFFE00000
000FFF400000
ENDCHAR
STARTCHAR zdotbelow
ENCODING 7827
SWIDTH 760 0
DWIDTH 21 0
BBX 21 31 0 -10
BITMAP
005555555500
01C000000040
07C000000040
1FC055554040
3FC000004040
3FD000004040
3FFFFE010100
3FFFF8040100
2FFFF0100400
0556D0101000
000740405000
000E01004000
002804010000
00B010040000
01D040100000
078040155540
1F8100000040
3F8055555040
7F8000000040
7F8000000040
7F8000000040
7FFFFFFFFD00
7FFFE401F400
7FFFE000C000
000BE0404000
001FE0404000
001FE0004000
001FF5550000
001FFFF80000
001FFFE00000
000FFF400000
ENDCHAR
STARTCHAR tdieresis
ENCODING 7831
SWIDTH 756 0
DWIDTH 21 0
BBX 21 31 0 -3
BITMAP
000555155400
002001900000
01F001D00100
07F041D04100
0FF001D00100
0FF001D00000
0FF002D00400
0F5555555540
0F0000000040
1F0000000040
BF0155555040
FF0000400040
FF4000400040
FFFFC041FF00
FFFFC041F800
BFFFC041E000
157FC0414000
002FC0410000
002FC0410000
002FC0410000
002FC0410000
002FC0410000
002FC0410000
002FC0410000
002FC0410000
002FC0010000
002FC0010000
002FE5550000
002FFFF80000
002FFFD00000
001FFF400000
ENDCHAR
STARTCHAR Germandbls
ENCODING 7838
SWIDTH 859 0
DWIDTH 24 0
BBX 23 24 1 -3
BITMAP
005555555000
074000000500
1F0000000100
7F0155550100
BF0100004100
BF0100004100
BF0107C04100
BF0107C10100
BF0107C10140
BF0107810010
BF0107815004
BF0107400404
BF0107400104
BF0107FF0104
BF0107FF0104
BF0107EA0104
BF0107400404
BF0107415404
BF0007400014
BF0007400050
BF955B955640
BFFFFFFFFD00
BFFFFFFFE000
7FF87FFE4000
ENDCHAR
STARTCHAR Adotbelow
ENCODING 7840
SWIDTH 830 0
DWIDTH 23 0
BBX 22 31 1 -10
BITMAP
000155555000
000800001000
002800000400
00B405540400
02F010010000
03E000010100
07D041D04100
0BC043E04040
0F8107F01040
1F4107F01040
3F010AA41010
7E0400001010
BE0400000410
FE0555555410
FE0400000410
FE0405540410
FE040FF80410
FE040FF80410
FE000FF80010
FE0007F80010
FF5553FD5540
FFFF96ABFF40
FFFE9001F800
FFF6D001E000
000BD0410000
002FD0410000
002FD0010000
002FE5550000
002FFFF40000
002FFFD00000
001FFF400000
ENDCHAR
STARTCHAR adotbelow
ENCODING 7841
SWIDTH 830 0
DWIDTH 23 0
BBX 22 31 1 -10
BITMAP
000155555000
000800001000
002800000400
00B405540400
02F010010000
03E000010100
07D041D04100
0BC043E04040
0F8107F01040
1F4107F01040
3F010AA41010
7E0400001010
BE0400000410
FE0555555410
FE0400000410
FE0405540410
FE040FF80410
FE040FF80410
FE000FF80010
FE0007F80010
FF5553FD5540
FFFF96ABFF40
FFFE9001F800
FFF6D001E000
000BD0410000
002FD0410000
002FD0010000
002FE5550000
002FFFF40000
002FFFD00000
001FFF400000
ENDCHAR
STARTCHAR Ahookabove
ENCODING 7842
SWIDTH 830 0
DWIDTH 23 0
BBX 22 33 1 -3
BITMAP
000055550000
000280004000
000B85544000
002F80044000
007FFFC04000
007FF4044000
007FE1544000
001BF0014000
000FFAAD0000
000E55555000
000C00001000
002800000400
00B405540400
02F010010000
03E000010100
07D041D04100
0BC043E04040
0F8107F01040
1F4107F01040
3F010AA41010
7E0400001010
BE0400000410
FE0555555410
FE0400000410
FE0405540410
FE040FF80410
FE040FF80410
FE000FF80010
FE0007F80010
FF5553FD5540
FFFF83FFFF40
FFFE03FFF800
FFF402FFE000
ENDCHAR
STARTCHAR ahookabove
ENCODING 7843
SWIDTH 830 0
DWIDTH 23 0
BBX 22 33 1 -3
BITMAP
000055550000
000280004000
000B85544000
002F80044000
007FFFC04000
007FF4044000
007FE1544000
001BF0014000
000FFAAD0000
000E55555000
000C00001000
002800000400
00B405540400
02F010010000
03E000010100
07D041D04100
0BC043E04040
0F8107F01040
1F4107F01040
3F010AA41010
7E0400001010
BE0400000410
FE0555555410
FE0400000410
FE0405540410
FE040FF80410
FE040FF80410
FE000FF80010
FE0007F80010
FF5553FD5540
FFFF83FFFF40
FFFE03FFF800
FFF402FFE000
ENDCHAR
STARTCHAR Acircumflexacute
ENCODING 7844
SWIDTH 830 0
DWIDTH 23 0
BBX 22 38 1 -3
BITMAP
000000001900
0000000BA600
000000640100
000001E15100
00000BE00100
00001FE00000
00001FE05000
00001917C000
000140005000
000801500400
007810050400
01F800000400
03F81BE90400
07FEFFFFE400
07FE55555000
07FC00001000
07F800000400
00B405540400
02F010010000
03E000010100
07D041D04100
0BC043E04040
0F8107F01040
1F4107F01040
3F010AA41010
7E0400001010
BE0400000410
FE0555555410
FE0400000410
FE0405540410
FE040FF80410
FE040FF80410
FE000FF80010
FE0007F80010
FF5553FD5540
FFFF83FFFF40
FFFE03FFF800
FFF402FFE000
ENDCHAR
STARTCHAR acircumflexacute
ENCODING 7845
SWIDTH 830 0
DWIDTH 23 0
BBX 22 38 1 -3
BITMAP
000000001900
0000000BA600
000000640100
000001E15100
00000BE00100
00001FE00000
00001FE05000
00001917C000
000140005000
000801500400
007810050400
01F800000400
03F81BE90400
07FEFFFFE400
07FE55555000
07FC00001000
07F800000400
00B405540400
02F010010000
03E000010100
07D041D04100
0BC043E04040
0F8107F01040
1F4107F01040
3F010AA41010
7E0400001010
BE0400000410
FE0555555410
FE0400000410
FE0405540410
FE040FF80410
FE040FF80410
FE000FF80010
FE0007F80010
FF5553FD5540
FFFF83FFFF40
FFFE03FFF800
FFF402FFE000
ENDCHAR
STARTCHAR Acircumflexgrave
ENCODING 7846
SWIDTH 830 0
DWIDTH 23 0
BBX 22 37 1 -3
BITMAP
0000006A4000
000001D1B800
000007C00400
00002FC14000
00003FC00000
00003FD00000
0000291A5000
000140006000
000801500400
007810050400
01F800000400
03F81BE90400
07FEFFFFE400
07FE55555000
07FC00001000
07F800000400
00B405540400
02F010010000
03E000010100
07D041D04100
0BC043E04040
0F8107F01040
1F4107F01040
3F010AA41010
7E0400001010
BE0400000410
FE0555555410
FE0400000410
FE0405540410
FE040FF80410
FE040FF80410
FE000FF80010
FE0007F80010
FF5553FD5540
FFFF83FFFF40
FFFE03FFF800
FFF402FFE000
ENDCHAR
STARTCHAR acircumflexgrave
ENCODING 7847
SWIDTH 830 0
DWIDTH 23 0
BBX 22 37 1 -3
BITMAP
0000006A4000
000001D1B800
000007C00400
00002FC14000
00003FC00000
00003FD00000
0000291A5000
000140006000
000801500400
007810050400
01F800000400
03F81BE90400
07FEFFFFE400
07FE55555000
07FC00001000
07F800000400
00B405540400
02F010010000
03E000010100
07D041D04100
0BC043E04040
0F8107F01040
1F4107F01040
3F010AA41010
7E0400001010
BE0400000410
FE0555555410
FE0400000410
FE0405540410
FE040FF80410
FE040FF80410
FE000FF80010
FE0007F80010
FF5553FD5540
FFFF83FFFF40
FFFE03FFF800
FFF402FFE000
ENDCHAR
STARTCHAR Acircumflexhookabove
ENCODING 7848
SWIDTH 830 0
DWIDTH 23 0
BBX 22 39 1 -3
BITMAP
000000155540
000000A00010
000002E15510
00000FE00110
00001FFFF010
00001FFD0110
00001FF85410
000002FC0040
0000055AAE00
000000007800
000401500400
003810050400
01F800000400
03F81BE90400
07FEFFFFE400
07FE55555000
07FC00001000
07F800000400
00B405540400
02F010010000
03E000010100
07D041D04100
0BC043E04040
0F8107F01040
1F4107F01040
3F010AA41010
7E0400001010
BE0400000410
FE0555555410
FE0400000410
FE0405540410
FE040FF80410
FE040FF80410
FE000FF80010
FE0007F80010
FF5553FD5540
FFFF83FFFF40
FFFE03FFF800
FFF402FFE000
ENDCHAR
STARTCHAR acircumflexhookabove
ENCODING 7849
SWIDTH 830 0
DWIDTH 23 0
BBX 22 39 1 -3
BITMAP
000000155540
000000A00010
000002E15510
00000FE00110
00001FFFF010
00001FFD0110
00001FF85410
000002FC0040
0000055AAE00
000000007800
000401500400
003810050400
01F800000400
03F81BE90400
07FEFFFFE400
07FE55555000
07FC00001000
07F800000400
00B405540400
02F010010000
03E000010100
07D041D04100
0BC043E04040
0F8107F01040
1F4107F01040
3F010AA41010
7E0400001010
BE0400000410
FE0555555410
FE0400000410
FE0405540410
FE040FF80410
FE040FF80410
FE000FF80010
FE0007F80010
FF5553FD5540
FFFF83FFFF40
FFFE03FFF800
FFF402FFE000
ENDCHAR
STARTCHAR Acircumflextilde
ENCODING 7850
SWIDTH 830 0
DWIDTH 23 0
BBX 22 38 1 -3
BITMAP
000155405000
000400050400
002800000400
00B815550400
03F800000400
07F855001400
07FFFFFFD000
07FFF40B4000
07FE40005000
025801500400
007810050400
01F800000400
07F81BE90400
07FEFFFFE400
07FE55555000
07FC00001000
07F800000400
00B405540400
02F010010000
03E000010100
07D041D04100
0BC043E04040
0F8107F01040
1F4107F01040
3F010AA41010
7E0400001010
BE0400000410
FE0555555410
FE0400000410
FE0405540410
FE040FF80410
FE040FF80410
FE000FF80010
FE0007F80010
FF5553FD5540
FFFF83FFFF40
FFFE03FFF800
FFF402FFE000
ENDCHAR
STARTCHAR acircumflextilde
ENCODING 7851
SWIDTH 830 0
DWIDTH 23 0
BBX 22 38 1 -3
BITMAP
000155405000
000400050400
002800000400
00B815550400
03F800000400
07F855001400
07FFFFFFD000
07FFF40B4000
07FE40005000
025801500400
007810050400
01F800000400
07F81BE90400
07FEFFFFE400
07FE55555000
07FC00001000
07F800000400
00B405540400
02F010010000
03E000010100
07D041D04100
0BC043E04040
0F8107F01040
1F4107F01040
3F010AA41010
7E0400001010
BE0400000410
FE0555555410
FE0400000410
FE0405540410
FE040FF80410
FE040FF80410
FE000FF80010
FE0007F80010
FF5553FD5540
FFFF83FFFF40
FFFE03FFF800
FFF402FFE000
ENDCHAR
STARTCHAR Acircumflexdotbelow
ENCODING 7852
SWIDTH 830 0
DWIDTH 23 0
BBX 22 39 1 -10
BITMAP
000001500000
000054054000
000500001000
001801500400
007810050400
01F800000400
07F81BE90400
07FEFFFFE400
07FE55555000
07FC00001000
07F800000400
00B405540400
02F010010000
03E000010100
07D041D04100
0BC043E04040
0F8107F01040
1F4107F01040
3F010AA41010
7E0400001010
BE0400000410
FE0555555410
FE0400000410
FE0405540410
FE040FF80410
FE040FF80410
FE000FF80010
FE0007F80010
FF5553FD5540
FFFF96ABFF40
FFFE9001F800
FFF6D001E000
000BD0410000
002FD0410000
002FD0010000
002FE5550000
002FFFF40000
002FFFD00000
001FFF400000
ENDCHAR
STARTCHAR acircumflexdotbelow
ENCODING 7853
SWIDTH 830 0
DWIDTH 23 0
BBX 22 39 1 -10
BITMAP
000001500000
000054054000
000500001000
001801500400
007810050400
01F800000400
07F81BE90400
07FEFFFFE400
07FE55555000
07FC00001000
07F800000400
00B405540400
02F010010000
03E000010100
07D041D04100
0BC043E04040
0F8107F01040
1F4107F01040
3F010AA41010
7E0400001010
BE0400000410
FE0555555410
FE0400000410
FE0405540410
FE040FF80410
FE040FF80410
FE000FF80010
FE0007F80010
FF5553FD5540
FFFF96ABFF40
FFFE9001F800
FFF6D001E000
000BD0410000
002FD0410000
002FD0010000
002FE5550000
002FFFF40000
002FFFD00000
001FFF400000
ENDCHAR
STARTCHAR Abreveacute
ENCODING 7854
SWIDTH 830 0
DWIDTH 23 0
BBX 22 38 1 -3
BITMAP
0000001B8000
000007F98000
00001E004000
00007C144000
0002FC004000
0003FC004000
0006A8145400
001403F00400
00B403F00400
02F441504400
07F410010400
0BF805540000
0BFD00000000
07FF90010000
07FFFFFFD000
02FE00002000
007C00000400
00B805540800
02F410010400
03F000010100
07D041D04100
0BC043E04040
0F8107F01040
1F4107F01040
3F010AA41010
7E0400001010
BE0400000410
FE0555555410
FE0400000410
FE0405540410
FE040FF80410
FE040FF80410
FE000FF80010
FE0007F80010
FF5553FD5540
FFFF83FFFF40
FFFE03FFF800
FFF402FFE000
ENDCHAR
STARTCHAR abreveacute
ENCODING 7855
SWIDTH 830 0
DWIDTH 23 0
BBX 22 38 1 -3
BITMAP
0000001B8000
000007F98000
00001E004000
00007C144000
0002FC004000
0003FC004000
0006A8145400
001403F00400
00B403F00400
02F441504400
07F410010400
0BF805540000
0BFD00000000
07FF90010000
07FFFFFFD000
02FE00002000
007C00000400
00B805540800
02F410010400
03F000010100
07D041D04100
0BC043E04040
0F8107F01040
1F4107F01040
3F010AA41010
7E0400001010
BE0400000410
FE0555555410
FE0400000410
FE0405540410
FE040FF80410
FE040FF80410
FE000FF80010
FE0007F80010
FF5553FD5540
FFFF83FFFF40
FFFE03FFF800
FFF402FFE000
ENDCHAR
STARTCHAR Abrevegrave
ENCODING 7856
SWIDTH 830 0
DWIDTH 23 0
BBX 22 38 1 -3
BITMAP
0000B9000000
00079BE00000
001F40240000
007F45040000
00BF40040000
00BF40040000
00BE95155400
00B403600400
00B402F00400
02F441504400
07F410010400
0BF805540000
0BFD00000000
07FF90010000
07FFFFFFD000
02FE00002000
007C00000400
00B805540800
02F410010400
03F000010100
07D041D04100
0BC043E04040
0F8107F01040
1F4107F01040
3F010AA41010
7E0400001010
BE0400000410
FE0555555410
FE0400000410
FE0405540410
FE040FF80410
FE040FF80410
FE000FF80010
FE0007F80010
FF5553FD5540
FFFF83FFFF40
FFFE03FFF800
FFF402FFE000
ENDCHAR
STARTCHAR abrevegrave
ENCODING 7857
SWIDTH 830 0
DWIDTH 23 0
BBX 22 38 1 -3
BITMAP
0000B9000000
00079BE00000
001F40240000
007F45040000
00BF40040000
00BF40040000
00BE95155400
00B403600400
00B402F00400
02F441504400
07F410010400
0BF805540000
0BFD00000000
07FF90010000
07FFFFFFD000
02FE00002000
007C00000400
00B805540800
02F410010400
03F000010100
07D041D04100
0BC043E04040
0F8107F01040
1F4107F01040
3F010AA41010
7E0400001010
BE0400000410
FE0555555410
FE0400000410
FE0405540410
FE040FF80410
FE040FF80410
FE000FF80010
FE0007F80010
FF5553FD5540
FFFF83FFFF40
FFFE03FFF800
FFF402FFE000
ENDCHAR
STARTCHAR Abrevehookabove
ENCODING 7858
SWIDTH 830 0
DWIDTH 23 0
BBX 22 40 1 -3
BITMAP
000015550000
000090001000
0007D1551000
001FE5511000
002FFE911000
002FF8011000
001FF8501000
0002FC168000
0006ABFA5400
001403F00400
007403F00400
01F441504400
07F410010400
0BF805540000
0BFD00000000
07FF90010000
07FFFFFFD000
02FE00002000
00BC00000400
00B805540800
02F410010400
03F000010100
07D041D04100
0BC043E04040
0F8107F01040
1F4107F01040
3F010AA41010
7E0400001010
BE0400000410
FE0555555410
FE0400000410
FE0405540410
FE040FF80410
FE040FF80410
FE000FF80010
FE0007F80010
FF5553FD5540
FFFF83FFFF40
FFFE03FFF800
FFF402FFE000
ENDCHAR
STARTCHAR abrevehookabove
ENCODING 7859
SWIDTH 830 0
DWIDTH 23 0
BBX 22 40 1 -3
BITMAP
000015550000
000090001000
0007D1551000
001FE5511000
002FFE911000
002FF8011000
001FF8501000
0002FC168000
0006ABFA5400
001403F00400
007403F00400
01F441504400
07F410010400
0BF805540000
0BFD00000000
07FF90010000
07FFFFFFD000
02FE00002000
00BC00000400
00B805540800
02F410010400
03F000010100
07D041D04100
0BC043E04040
0F8107F01040
1F4107F01040
3F010AA41010
7E0400001010
BE0400000410
FE0555555410
FE0400000410
FE0405540410
FE040FF80410
FE040FF80410
FE000FF80010
FE0007F80010
FF5553FD5540
FFFF83FFFF40
FFFE03FFF800
FFF402FFE000
ENDCHAR
STARTCHAR Abrevetilde
ENCODING 7860
SWIDTH 830 0
DWIDTH 23 0
BBX 22 38 1 -3
BITMAP
000155505000
000400010400
002814000400
01F800550400
03F800000400
07FEBEA5A000
07FEABFA9400
07F403F00400
07F403F00400
02F441504400
07F410010400
0BF805540000
0BFD00000000
07FF90010000
07FFFFFFD000
02FE00002000
007C00000400
00B805540800
02F410010400
03F000010100
07D041D04100
0BC043E04040
0F8107F01040
1F4107F01040
3F010AA41010
7E0400001010
BE0400000410
FE0555555410
FE0400000410
FE0405540410
FE040FF80410
FE040FF80410
FE000FF80010
FE0007F80010
FF5553FD5540
FFFF83FFFF40
FFFE03FFF800
FFF402FFE000
ENDCHAR
STARTCHAR abrevetilde
ENCODING 7861
SWIDTH 830 0
DWIDTH 23 0
BBX 22 38 1 -3
BITMAP
000155505000
000400010400
002814000400
01F800550400
03F800000400
07FEBEA5A000
07FEABFA9400
07F403F00400
07F403F00400
02F441504400
07F410010400
0BF805540000
0BFD00000000
07FF90010000
07FFFFFFD000
02FE00002000
007C00000400
00B805540800
02F410010400
03F000010100
07D041D04100
0BC043E04040
0F8107F01040
1F4107F01040
3F010AA41010
7E0400001010
BE0400000410
FE0555555410
FE0400000410
FE0405540410
FE040FF80410
FE040FF80410
FE000FF80010
FE0007F80010
FF5553FD5540
FFFF83FFFF40
FFFE03FFF800
FFF402FFE000
ENDCHAR
STARTCHAR Abrevedotbelow
ENCODING 7862
SWIDTH 830 0
DWIDTH 23 0
BBX 22 39 1 -10
BITMAP
000554055400
001400200400
00B402F00400
02F441504400
07F410010400
0BF805540000
0BFD00000000
07FF90010000
07FFFFFFD000
02FE00002000
007C00000400
00B805540800
02F410010400
03F000010100
07D041D04100
0BC043E04040
0F8107F01040
1F4107F01040
3F010AA41010
7E0400001010
BE0400000410
FE0555555410
FE0400000410
FE0405540410
FE040FF80410
FE040FF80410
FE000FF80010
FE0007F80010
FF5553FD5540
FFFF96ABFF40
FFFE9001F800
FFF6D001E000
000BD0410000
002FD0410000
002FD0010000
002FE5550000
002FFFF40000
002FFFD00000
001FFF400000
ENDCHAR
STARTCHAR abrevedotbelow
ENCODING 7863
SWIDTH 830 0
DWIDTH 23 0
BBX 22 39 1 -10
BITMAP
000554055400
001400200400
00B402F00400
02F441504400
07F410010400
0BF805540000
0BFD00000000
07FF90010000
07FFFFFFD000
02FE00002000
007C00000400
00B805540800
02F410010400
03F000010100
07D041D04100
0BC043E04040
0F8107F01040
1F4107F01040
3F010AA41010
7E0400001010
BE0400000410
FE0555555410
FE0400000410
FE0405540410
FE040FF80410
FE040FF80410
FE000FF80010
FE0007F80010
FF5553FD5540
FFFF96ABFF40
FFFE9001F800
FFF6D001E000
000BD0410000
002FD0410000
002FD0010000
002FE5550000
002FFFF40000
002FFFD00000
001FFF400000
ENDCHAR
STARTCHAR Edotbelow
ENCODING 7864
SWIDTH 754 0
DWIDTH 21 0
BBX 20 31 1 -10
BITMAP
0055555555
0700000001
1F00000001
7F01555541
BF01000001
BF01015555
BF010BFFF4
BF010BFFD0
BF01000040
BF01000010
BF01555010
BF01000010
BF01000040
BF010BFF40
BF010BFD00
BF0106A554
BF01000001
BF01555541
BF00000001
BF00000001
BF40000001
BFFFFFFFF4
BFFF9007D0
7FFF800200
002F810100
007F810100
007F800100
007FD55400
007FFFE000
007FFF8000
003FFD0000
ENDCHAR
STARTCHAR edotbelow
ENCODING 7865
SWIDTH 754 0
DWIDTH 21 0
BBX 20 31 1 -10
BITMAP
0055555555
0700000001
1F00000001
7F01555541
BF01000001
BF01015555
BF010BFFF4
BF010BFFD0
BF01000040
BF01000010
BF01555010
BF01000010
BF01000040
BF010BFF40
BF010BFD00
BF0106A554
BF01000001
BF01555541
BF00000001
BF00000001
BF40000001
BFFFFFFFF4
BFFF9007D0
7FFF800200
002F810100
007F810100
007F800100
007FD55400
007FFFE000
007FFF8000
003FFD0000
ENDCHAR
STARTCHAR Ehookabove
ENCODING 7866
SWIDTH 754 0
DWIDTH 21 0
BBX 20 33 1 -3
BITMAP
0001555400
0006000100
002E155100
00BE000440
01FFFF4440
01FFD00440
01FFC15100
005FC00500
003FEAB400
0055555555
0700000001
1F00000001
7F01555541
BF01000001
BF01015555
BF010BFFF4
BF010BFFD0
BF01000040
BF01000010
BF01555010
BF01000010
BF01000040
BF010BFF40
BF010BFD00
BF0106A554
BF01000001
BF01555541
BF00000001
BF00000001
BF95555555
BFFFFFFFF4
BFFFFFFF80
7FFFFFFE00
ENDCHAR
ENDFONT
